CooperHewitt-Bold.ufo
<glyph name="exclam" format="1">
  <advance width="265"/>
  <unicode hex="0021"/>
  <outline>
    <contour>
      <point x="35" y="780" type="line"/>
      <point x="77" y="228" type="line"/>
      <point x="189" y="228" type="line"/>
      <point x="231" y="780" type="line"/>
    </contour>
    <contour>
      <point x="216" y="167" type="line"/>
      <point x="50" y="167" type="line"/>
      <point x="50" y="0" type="line"/>
      <point x="216" y="0" type="line"/>
    </contour>
  </outline>
</glyph>
<glyph name="quotedbl" format="1">
  <advance width="446"/>
  <unicode hex="0022"/>
  <outline>
    <contour>
      <point x="47" y="780" type="line"/>
      <point x="72" y="457" type="line"/>
      <point x="193" y="457" type="line"/>
      <point x="202" y="780" type="line"/>
    </contour>
    <contour>
      <point x="245" y="780" type="line"/>
      <point x="253" y="457" type="line"/>
      <point x="375" y="457" type="line"/>
      <point x="399" y="780" type="line"/>
    </contour>
  </outline>
</glyph>
<glyph name="numbersign" format="1">
  <advance width="600"/>
  <unicode hex="0023"/>
  <outline>
    <contour>
      <point x="67" y="449" type="line"/>
      <point x="132" y="449" type="line"/>
      <point x="111" y="331" type="line"/>
      <point x="23" y="331" type="line"/>
      <point x="23" y="193" type="line"/>
      <point x="86" y="193" type="line"/>
      <point x="51" y="0" type="line"/>
      <point x="188" y="0" type="line"/>
      <point x="223" y="193" type="line"/>
      <point x="304" y="193" type="line"/>
      <point x="269" y="0" type="line"/>
      <point x="407" y="0" type="line"/>
      <point x="442" y="193" type="line"/>
      <point x="533" y="193" type="line"/>
      <point x="533" y="331" type="line"/>
      <point x="467" y="331" type="line"/>
      <point x="488" y="449" type="line"/>
      <point x="577" y="449" type="line"/>
      <point x="577" y="587" type="line"/>
      <point x="513" y="587" type="line"/>
      <point x="549" y="780" type="line"/>
      <point x="412" y="780" type="line"/>
      <point x="376" y="587" type="line"/>
      <point x="295" y="587" type="line"/>
      <point x="331" y="780" type="line"/>
      <point x="193" y="780" type="line"/>
      <point x="157" y="587" type="line"/>
      <point x="67" y="587" type="line"/>
    </contour>
    <contour>
      <point x="270" y="449" type="line"/>
      <point x="351" y="449" type="line"/>
      <point x="330" y="331" type="line"/>
      <point x="249" y="331" type="line"/>
    </contour>
  </outline>
</glyph>
<glyph name="dollar" format="1">
  <advance width="600"/>
  <unicode hex="0024"/>
  <outline>
    <contour>
      <point x="300" y="601" type="line" smooth="yes"/>
      <point x="367" y="601"/>
      <point x="394" y="560"/>
      <point x="394" y="491" type="curve"/>
      <point x="551" y="491" type="line"/>
      <point x="551" y="505" type="line" smooth="yes"/>
      <point x="551" y="605"/>
      <point x="514" y="668"/>
      <point x="438" y="704" type="curve"/>
      <point x="470" y="840" type="line"/>
      <point x="349" y="840" type="line"/>
      <point x="322" y="731" type="line"/>
      <point x="300" y="731" type="line" smooth="yes"/>
      <point x="151" y="731"/>
      <point x="50" y="662"/>
      <point x="50" y="531" type="curve" smooth="yes"/>
      <point x="50" y="521" type="line" smooth="yes"/>
      <point x="50" y="408"/>
      <point x="123" y="354"/>
      <point x="267" y="332" type="curve" smooth="yes"/>
      <point x="372" y="316"/>
      <point x="396" y="296"/>
      <point x="396" y="251" type="curve" smooth="yes"/>
      <point x="396" y="246" type="line" smooth="yes"/>
      <point x="396" y="205"/>
      <point x="368" y="180"/>
      <point x="307" y="180" type="curve" smooth="yes"/>
      <point x="302" y="180" type="line" smooth="yes"/>
      <point x="233" y="180"/>
      <point x="202" y="224"/>
      <point x="202" y="281" type="curve"/>
      <point x="43" y="281" type="line"/>
      <point x="43" y="275" type="line" smooth="yes"/>
      <point x="43" y="172"/>
      <point x="85" y="108"/>
      <point x="166" y="75" type="curve"/>
      <point x="134" y="-60" type="line"/>
      <point x="255" y="-60" type="line"/>
      <point x="281" y="50" type="line"/>
      <point x="302" y="50" type="line" smooth="yes"/>
      <point x="469" y="50"/>
      <point x="558" y="123"/>
      <point x="558" y="253" type="curve" smooth="yes"/>
      <point x="558" y="263" type="line" smooth="yes"/>
      <point x="558" y="378"/>
      <point x="485" y="432"/>
      <point x="329" y="455" type="curve" smooth="yes"/>
      <point x="228" y="470"/>
      <point x="209" y="491"/>
      <point x="209" y="530" type="curve" smooth="yes"/>
      <point x="209" y="535" type="line" smooth="yes"/>
      <point x="209" y="579"/>
      <point x="244" y="600"/>
      <point x="292" y="601" type="curve" smooth="yes"/>
    </contour>
  </outline>
</glyph>
<glyph name="percent" format="1">
  <advance width="981"/>
  <unicode hex="0025"/>
  <outline>
    <contour>
      <point x="296" y="779" type="curve" smooth="yes"/>
      <point x="272" y="788"/>
      <point x="245" y="793"/>
      <point x="217" y="793" type="curve" smooth="yes"/>
      <point x="107" y="793"/>
      <point x="27" y="727"/>
      <point x="27" y="605" type="curve" smooth="yes"/>
      <point x="27" y="593" type="line" smooth="yes"/>
      <point x="27" y="471"/>
      <point x="107" y="404"/>
      <point x="217" y="404" type="curve" smooth="yes"/>
      <point x="326" y="404"/>
      <point x="406" y="471"/>
      <point x="406" y="593" type="curve" smooth="yes"/>
      <point x="406" y="605" type="line" smooth="yes"/>
      <point x="406" y="613"/>
      <point x="405" y="621"/>
      <point x="405" y="628" type="curve"/>
      <point x="420" y="626"/>
      <point x="435" y="625"/>
      <point x="452" y="625" type="curve" smooth="yes"/>
      <point x="484" y="625"/>
      <point x="509" y="630"/>
      <point x="523" y="633" type="curve"/>
      <point x="259" y="0" type="line"/>
      <point x="397" y="0" type="line"/>
      <point x="692" y="708" type="line"/>
      <point x="692" y="783" type="line"/>
      <point x="660" y="772"/>
      <point x="569" y="751"/>
      <point x="481" y="751" type="curve" smooth="yes"/>
      <point x="397" y="751"/>
      <point x="353" y="758"/>
    </contour>
    <contour>
      <point x="575" y="187" type="curve" smooth="yes"/>
      <point x="575" y="175" type="line" smooth="yes"/>
      <point x="575" y="53"/>
      <point x="655" y="-13"/>
      <point x="765" y="-13" type="curve" smooth="yes"/>
      <point x="874" y="-13"/>
      <point x="954" y="53"/>
      <point x="954" y="175" type="curve" smooth="yes"/>
      <point x="954" y="187" type="line" smooth="yes"/>
      <point x="954" y="309"/>
      <point x="874" y="376"/>
      <point x="765" y="376" type="curve" smooth="yes"/>
      <point x="655" y="376"/>
      <point x="575" y="309"/>
    </contour>
    <contour>
      <point x="692" y="175" type="curve" smooth="yes"/>
      <point x="692" y="188" type="line" smooth="yes"/>
      <point x="692" y="230"/>
      <point x="720" y="258"/>
      <point x="762" y="258" type="curve" smooth="yes"/>
      <point x="768" y="258" type="line" smooth="yes"/>
      <point x="810" y="258"/>
      <point x="837" y="230"/>
      <point x="837" y="188" type="curve" smooth="yes"/>
      <point x="837" y="175" type="line" smooth="yes"/>
      <point x="837" y="133"/>
      <point x="810" y="104"/>
      <point x="768" y="104" type="curve" smooth="yes"/>
      <point x="762" y="104" type="line" smooth="yes"/>
      <point x="720" y="104"/>
      <point x="692" y="133"/>
    </contour>
    <contour>
      <point x="289" y="605" type="curve" smooth="yes"/>
      <point x="289" y="592" type="line" smooth="yes"/>
      <point x="289" y="550"/>
      <point x="262" y="522"/>
      <point x="220" y="522" type="curve" smooth="yes"/>
      <point x="214" y="522" type="line" smooth="yes"/>
      <point x="172" y="522"/>
      <point x="144" y="550"/>
      <point x="144" y="592" type="curve" smooth="yes"/>
      <point x="144" y="605" type="line" smooth="yes"/>
      <point x="144" y="647"/>
      <point x="172" y="676"/>
      <point x="214" y="676" type="curve" smooth="yes"/>
      <point x="220" y="676" type="line" smooth="yes"/>
      <point x="262" y="676"/>
      <point x="289" y="647"/>
    </contour>
  </outline>
</glyph>
<glyph name="ampersand" format="1">
  <advance width="691"/>
  <unicode hex="0026"/>
  <outline>
    <contour>
      <point x="250" y="-13" type="curve" smooth="yes"/>
      <point x="331" y="-13"/>
      <point x="400" y="6"/>
      <point x="457" y="37" type="curve"/>
      <point x="489" y="0" type="line"/>
      <point x="679" y="0" type="line"/>
      <point x="568" y="131" type="line"/>
      <point x="630" y="207"/>
      <point x="661" y="303"/>
      <point x="661" y="391" type="curve" smooth="yes"/>
      <point x="661" y="395" type="line"/>
      <point x="495" y="395" type="line"/>
      <point x="495" y="392" type="line" smooth="yes"/>
      <point x="495" y="342"/>
      <point x="484" y="294"/>
      <point x="466" y="252" type="curve"/>
      <point x="342" y="399" type="line"/>
      <point x="420" y="442"/>
      <point x="496" y="493"/>
      <point x="496" y="603" type="curve" smooth="yes"/>
      <point x="496" y="614" type="line" smooth="yes"/>
      <point x="496" y="710"/>
      <point x="434" y="793"/>
      <point x="281" y="793" type="curve" smooth="yes"/>
      <point x="128" y="793"/>
      <point x="65" y="710"/>
      <point x="65" y="614" type="curve" smooth="yes"/>
      <point x="65" y="603" type="line" smooth="yes"/>
      <point x="65" y="527"/>
      <point x="88" y="481"/>
      <point x="129" y="428" type="curve"/>
      <point x="69" y="384"/>
      <point x="19" y="323"/>
      <point x="19" y="221" type="curve" smooth="yes"/>
      <point x="19" y="211" type="line" smooth="yes"/>
      <point x="19" y="76"/>
      <point x="103" y="-13"/>
    </contour>
    <contour>
      <point x="276" y="123" type="line" smooth="yes"/>
      <point x="213" y="123"/>
      <point x="180" y="161"/>
      <point x="180" y="225" type="curve" smooth="yes"/>
      <point x="180" y="231" type="line" smooth="yes"/>
      <point x="180" y="268"/>
      <point x="195" y="296"/>
      <point x="219" y="319" type="curve"/>
      <point x="368" y="143" type="line"/>
      <point x="342" y="130"/>
      <point x="313" y="123"/>
      <point x="281" y="123" type="curve" smooth="yes"/>
    </contour>
    <contour>
      <point x="224" y="608" type="line" smooth="yes"/>
      <point x="224" y="640"/>
      <point x="244" y="663"/>
      <point x="278" y="663" type="curve" smooth="yes"/>
      <point x="284" y="663" type="line" smooth="yes"/>
      <point x="318" y="663"/>
      <point x="337" y="640"/>
      <point x="337" y="608" type="curve" smooth="yes"/>
      <point x="337" y="602" type="line" smooth="yes"/>
      <point x="337" y="559"/>
      <point x="302" y="531"/>
      <point x="256" y="503" type="curve"/>
      <point x="237" y="534"/>
      <point x="224" y="567"/>
      <point x="224" y="602" type="curve" smooth="yes"/>
    </contour>
  </outline>
</glyph>
<glyph name="quotesingle" format="1">
  <advance width="265"/>
  <unicode hex="0027"/>
  <outline>
    <contour>
      <point x="47" y="780" type="line"/>
      <point x="72" y="457" type="line"/>
      <point x="193" y="457" type="line"/>
      <point x="218" y="780" type="line"/>
    </contour>
  </outline>
</glyph>
<glyph name="parenleft" format="1">
  <advance width="365"/>
  <unicode hex="0028"/>
  <outline>
    <contour>
      <point x="39" y="350" type="line" smooth="yes"/>
      <point x="39" y="120"/>
      <point x="102" y="-4"/>
      <point x="182" y="-120" type="curve"/>
      <point x="346" y="-120" type="line"/>
      <point x="263" y="6"/>
      <point x="197" y="146"/>
      <point x="197" y="350" type="curve" smooth="yes"/>
      <point x="197" y="370" type="line" smooth="yes"/>
      <point x="197" y="574"/>
      <point x="263" y="714"/>
      <point x="346" y="840" type="curve"/>
      <point x="182" y="840" type="line"/>
      <point x="102" y="724"/>
      <point x="39" y="600"/>
      <point x="39" y="370" type="curve" smooth="yes"/>
    </contour>
  </outline>
</glyph>
<glyph name="parenright" format="1">
  <advance width="365"/>
  <unicode hex="0029"/>
  <outline>
    <contour>
      <point x="326" y="370" type="line" smooth="yes"/>
      <point x="326" y="600"/>
      <point x="264" y="724"/>
      <point x="183" y="840" type="curve"/>
      <point x="19" y="840" type="line"/>
      <point x="102" y="714"/>
      <point x="168" y="574"/>
      <point x="168" y="370" type="curve" smooth="yes"/>
      <point x="168" y="350" type="line" smooth="yes"/>
      <point x="168" y="146"/>
      <point x="102" y="6"/>
      <point x="19" y="-120" type="curve"/>
      <point x="183" y="-120" type="line"/>
      <point x="264" y="-4"/>
      <point x="326" y="120"/>
      <point x="326" y="350" type="curve" smooth="yes"/>
    </contour>
  </outline>
</glyph>
<glyph name="asterisk" format="1">
  <advance width="413"/>
  <unicode hex="002A"/>
  <outline>
    <contour>
      <point x="162" y="800" type="line"/>
      <point x="167" y="666" type="line"/>
      <point x="246" y="666" type="line"/>
      <point x="251" y="800" type="line"/>
    </contour>
    <contour>
      <point x="5" y="621" type="line"/>
      <point x="133" y="584" type="line"/>
      <point x="158" y="659" type="line"/>
      <point x="32" y="706" type="line"/>
    </contour>
    <contour>
      <point x="126" y="415" type="line"/>
      <point x="201" y="526" type="line"/>
      <point x="137" y="572" type="line"/>
      <point x="54" y="467" type="line"/>
    </contour>
    <contour>
      <point x="380" y="706" type="line"/>
      <point x="255" y="659" type="line"/>
      <point x="279" y="584" type="line"/>
      <point x="408" y="621" type="line"/>
    </contour>
    <contour>
      <point x="358" y="467" type="line"/>
      <point x="275" y="572" type="line"/>
      <point x="211" y="526" type="line"/>
      <point x="287" y="415" type="line"/>
    </contour>
  </outline>
</glyph>
<glyph name="plus" format="1">
  <advance width="600"/>
  <unicode hex="002B"/>
  <outline>
    <contour>
      <point x="230" y="648" type="line"/>
      <point x="230" y="460" type="line"/>
      <point x="42" y="460" type="line"/>
      <point x="42" y="320" type="line"/>
      <point x="230" y="320" type="line"/>
      <point x="230" y="132" type="line"/>
      <point x="370" y="132" type="line"/>
      <point x="370" y="320" type="line"/>
      <point x="558" y="320" type="line"/>
      <point x="558" y="460" type="line"/>
      <point x="370" y="460" type="line"/>
      <point x="370" y="648" type="line"/>
    </contour>
  </outline>
</glyph>
<glyph name="hyphen" format="1">
  <advance width="353"/>
  <unicode hex="002D"/>
  <outline>
    <contour>
      <point x="40" y="281" type="line"/>
      <point x="313" y="281" type="line"/>
      <point x="313" y="419" type="line"/>
      <point x="40" y="419" type="line"/>
    </contour>
  </outline>
</glyph>
<glyph name="period" format="1">
  <advance width="266"/>
  <unicode hex="002E"/>
  <outline>
    <contour>
      <point x="216" y="167" type="line"/>
      <point x="50" y="167" type="line"/>
      <point x="50" y="0" type="line"/>
      <point x="216" y="0" type="line"/>
    </contour>
  </outline>
</glyph>
<glyph name="slash" format="1">
  <advance width="414"/>
  <unicode hex="002F"/>
  <outline>
    <contour>
      <point x="399" y="840" type="line"/>
      <point x="245" y="840" type="line"/>
      <point x="15" y="-120" type="line"/>
      <point x="169" y="-120" type="line"/>
    </contour>
  </outline>
</glyph>
<glyph name="zero" format="1">
  <advance width="600"/>
  <unicode hex="0030"/>
  <outline>
    <contour>
      <point x="555" y="221" type="curve" smooth="yes"/>
      <point x="555" y="559" type="line" smooth="yes"/>
      <point x="555" y="694"/>
      <point x="470" y="793"/>
      <point x="300" y="793" type="curve" smooth="yes"/>
      <point x="130" y="793"/>
      <point x="45" y="694"/>
      <point x="45" y="559" type="curve" smooth="yes"/>
      <point x="45" y="221" type="line" smooth="yes"/>
      <point x="45" y="86"/>
      <point x="130" y="-13"/>
      <point x="300" y="-13" type="curve" smooth="yes"/>
      <point x="470" y="-13"/>
      <point x="555" y="86"/>
    </contour>
    <contour>
      <point x="395" y="557" type="curve" smooth="yes"/>
      <point x="395" y="223" type="line" smooth="yes"/>
      <point x="395" y="166"/>
      <point x="366" y="127"/>
      <point x="302" y="127" type="curve" smooth="yes"/>
      <point x="298" y="127" type="line" smooth="yes"/>
      <point x="234" y="127"/>
      <point x="205" y="166"/>
      <point x="205" y="223" type="curve" smooth="yes"/>
      <point x="205" y="557" type="line" smooth="yes"/>
      <point x="205" y="614"/>
      <point x="234" y="653"/>
      <point x="298" y="653" type="curve" smooth="yes"/>
      <point x="302" y="653" type="line" smooth="yes"/>
      <point x="366" y="653"/>
      <point x="395" y="614"/>
    </contour>
  </outline>
</glyph>
<glyph name="one" format="1">
  <advance width="600"/>
  <unicode hex="0031"/>
  <outline>
    <contour>
      <point x="561" y="0" type="line"/>
      <point x="561" y="140" type="line"/>
      <point x="390" y="140" type="line"/>
      <point x="390" y="781" type="line"/>
      <point x="271" y="781" type="line"/>
      <point x="28" y="616" type="line"/>
      <point x="107" y="500" type="line"/>
      <point x="230" y="583" type="line"/>
      <point x="230" y="140" type="line"/>
      <point x="59" y="140" type="line"/>
      <point x="59" y="0" type="line"/>
    </contour>
  </outline>
</glyph>
<glyph name="two" format="1">
  <advance width="600"/>
  <unicode hex="0032"/>
  <outline>
    <contour>
      <point x="341" y="140" type="line"/>
      <point x="270" y="139" type="line"/>
      <point x="469" y="357" type="line" smooth="yes"/>
      <point x="527" y="421"/>
      <point x="556" y="467"/>
      <point x="556" y="559" type="curve" smooth="yes"/>
      <point x="556" y="577" type="line" smooth="yes"/>
      <point x="556" y="679"/>
      <point x="490" y="793"/>
      <point x="300" y="793" type="curve" smooth="yes"/>
      <point x="126" y="793"/>
      <point x="44" y="708"/>
      <point x="44" y="540" type="curve" smooth="yes"/>
      <point x="44" y="520" type="line"/>
      <point x="204" y="520" type="line"/>
      <point x="204" y="619"/>
      <point x="240" y="653"/>
      <point x="295" y="653" type="curve" smooth="yes"/>
      <point x="305" y="653" type="line" smooth="yes"/>
      <point x="358" y="653"/>
      <point x="396" y="618"/>
      <point x="396" y="547" type="curve" smooth="yes"/>
      <point x="396" y="537" type="line" smooth="yes"/>
      <point x="396" y="494"/>
      <point x="379" y="469"/>
      <point x="344" y="432" type="curve" smooth="yes"/>
      <point x="44" y="101" type="line"/>
      <point x="44" y="0" type="line"/>
      <point x="556" y="0" type="line"/>
      <point x="556" y="140" type="line"/>
    </contour>
  </outline>
</glyph>
<glyph name="three" format="1">
  <advance width="600"/>
  <unicode hex="0033"/>
  <outline>
    <contour>
      <point x="199" y="250" type="curve"/>
      <point x="39" y="250" type="line"/>
      <point x="39" y="237" type="line" smooth="yes"/>
      <point x="39" y="77"/>
      <point x="125" y="-13"/>
      <point x="300" y="-13" type="curve" smooth="yes"/>
      <point x="487" y="-13"/>
      <point x="561" y="110"/>
      <point x="561" y="209" type="curve" smooth="yes"/>
      <point x="561" y="228" type="line" smooth="yes"/>
      <point x="561" y="314"/>
      <point x="519" y="368"/>
      <point x="465" y="399" type="curve"/>
      <point x="516" y="429"/>
      <point x="556" y="483"/>
      <point x="556" y="566" type="curve" smooth="yes"/>
      <point x="556" y="585" type="line" smooth="yes"/>
      <point x="556" y="679"/>
      <point x="490" y="793"/>
      <point x="300" y="793" type="curve" smooth="yes"/>
      <point x="126" y="793"/>
      <point x="44" y="708"/>
      <point x="44" y="540" type="curve" smooth="yes"/>
      <point x="44" y="520" type="line"/>
      <point x="204" y="520" type="line"/>
      <point x="204" y="619"/>
      <point x="239" y="653"/>
      <point x="295" y="653" type="curve" smooth="yes"/>
      <point x="305" y="653" type="line" smooth="yes"/>
      <point x="358" y="653"/>
      <point x="396" y="618"/>
      <point x="396" y="566" type="curve" smooth="yes"/>
      <point x="396" y="557" type="line" smooth="yes"/>
      <point x="396" y="497"/>
      <point x="362" y="468"/>
      <point x="304" y="468" type="curve" smooth="yes"/>
      <point x="200" y="468" type="line"/>
      <point x="200" y="328" type="line"/>
      <point x="307" y="328" type="line" smooth="yes"/>
      <point x="365" y="328"/>
      <point x="401" y="298"/>
      <point x="401" y="237" type="curve" smooth="yes"/>
      <point x="401" y="226" type="line" smooth="yes"/>
      <point x="401" y="157"/>
      <point x="355" y="127"/>
      <point x="305" y="127" type="curve" smooth="yes"/>
      <point x="295" y="127" type="line" smooth="yes"/>
      <point x="241" y="127"/>
      <point x="199" y="157"/>
    </contour>
  </outline>
</glyph>
<glyph name="four" format="1">
  <advance width="600"/>
  <unicode hex="0034"/>
  <outline>
    <contour>
      <point x="488" y="0" type="line"/>
      <point x="488" y="170" type="line"/>
      <point x="573" y="170" type="line"/>
      <point x="573" y="310" type="line"/>
      <point x="488" y="310" type="line"/>
      <point x="488" y="780" type="line"/>
      <point x="337" y="780" type="line"/>
      <point x="27" y="282" type="line"/>
      <point x="27" y="170" type="line"/>
      <point x="328" y="170" type="line"/>
      <point x="328" y="0" type="line"/>
    </contour>
    <contour>
      <point x="330" y="526" type="line"/>
      <point x="328" y="468" type="line"/>
      <point x="328" y="310" type="line"/>
      <point x="244" y="310" type="line"/>
      <point x="193" y="308" type="line"/>
    </contour>
  </outline>
</glyph>
<glyph name="five" format="1">
  <advance width="600"/>
  <unicode hex="0035"/>
  <outline>
    <contour>
      <point x="39" y="250" type="line"/>
      <point x="39" y="237" type="line" smooth="yes"/>
      <point x="39" y="77"/>
      <point x="125" y="-13"/>
      <point x="300" y="-13" type="curve" smooth="yes"/>
      <point x="471" y="-13"/>
      <point x="561" y="84"/>
      <point x="561" y="237" type="curve" smooth="yes"/>
      <point x="561" y="256" type="line" smooth="yes"/>
      <point x="561" y="409"/>
      <point x="471" y="506"/>
      <point x="308" y="506" type="curve" smooth="yes"/>
      <point x="265" y="506"/>
      <point x="225" y="497"/>
      <point x="190" y="482" type="curve"/>
      <point x="197" y="640" type="line"/>
      <point x="551" y="640" type="line"/>
      <point x="551" y="780" type="line"/>
      <point x="63" y="780" type="line"/>
      <point x="45" y="352" type="line"/>
      <point x="182" y="305" type="line"/>
      <point x="203" y="347"/>
      <point x="250" y="367"/>
      <point x="291" y="367" type="curve" smooth="yes"/>
      <point x="297" y="367" type="line" smooth="yes"/>
      <point x="355" y="367"/>
      <point x="401" y="335"/>
      <point x="401" y="252" type="curve" smooth="yes"/>
      <point x="401" y="241" type="line" smooth="yes"/>
      <point x="401" y="158"/>
      <point x="355" y="127"/>
      <point x="305" y="127" type="curve" smooth="yes"/>
      <point x="295" y="127" type="line" smooth="yes"/>
      <point x="241" y="127"/>
      <point x="199" y="157"/>
      <point x="199" y="250" type="curve"/>
    </contour>
  </outline>
</glyph>
<glyph name="six" format="1">
  <advance width="600"/>
  <unicode hex="0036"/>
  <outline>
    <contour>
      <point x="523" y="793" type="line"/>
      <point x="365" y="793"/>
      <point x="235" y="761"/>
      <point x="149" y="646" type="curve" smooth="yes"/>
      <point x="66" y="535"/>
      <point x="39" y="410"/>
      <point x="39" y="286" type="curve" smooth="yes"/>
      <point x="39" y="273" type="line" smooth="yes"/>
      <point x="39" y="101"/>
      <point x="132" y="-13"/>
      <point x="301" y="-13" type="curve" smooth="yes"/>
      <point x="473" y="-13"/>
      <point x="562" y="82"/>
      <point x="562" y="236" type="curve" smooth="yes"/>
      <point x="562" y="246" type="line" smooth="yes"/>
      <point x="562" y="400"/>
      <point x="475" y="492"/>
      <point x="344" y="492" type="curve" smooth="yes"/>
      <point x="294" y="492"/>
      <point x="254" y="477"/>
      <point x="221" y="455" type="curve"/>
      <point x="233" y="494"/>
      <point x="250" y="528"/>
      <point x="273" y="556" type="curve" smooth="yes"/>
      <point x="328" y="624"/>
      <point x="408" y="651"/>
      <point x="523" y="651" type="curve"/>
    </contour>
    <contour>
      <point x="303" y="352" type="curve" smooth="yes"/>
      <point x="308" y="352" type="line" smooth="yes"/>
      <point x="362" y="352"/>
      <point x="402" y="322"/>
      <point x="402" y="250" type="curve" smooth="yes"/>
      <point x="402" y="231" type="line" smooth="yes"/>
      <point x="402" y="164"/>
      <point x="358" y="127"/>
      <point x="304" y="127" type="curve" smooth="yes"/>
      <point x="298" y="127" type="line" smooth="yes"/>
      <point x="243" y="127"/>
      <point x="199" y="173"/>
      <point x="199" y="260" type="curve" smooth="yes"/>
      <point x="199" y="292" type="line"/>
      <point x="221" y="332"/>
      <point x="263" y="352"/>
    </contour>
  </outline>
</glyph>
<glyph name="seven" format="1">
  <advance width="600"/>
  <unicode hex="0037"/>
  <outline>
    <contour>
      <point x="36" y="500" type="line"/>
      <point x="177" y="500" type="line"/>
      <point x="177" y="640" type="line"/>
      <point x="292" y="640" type="line"/>
      <point x="387" y="642" type="line"/>
      <point x="118" y="0" type="line"/>
      <point x="289" y="0" type="line"/>
      <point x="566" y="681" type="line"/>
      <point x="566" y="780" type="line"/>
      <point x="36" y="780" type="line"/>
    </contour>
  </outline>
</glyph>
<glyph name="eight" format="1">
  <advance width="600"/>
  <unicode hex="0038"/>
  <outline>
    <contour>
      <point x="300" y="-13" type="curve" smooth="yes"/>
      <point x="487" y="-13"/>
      <point x="561" y="109"/>
      <point x="561" y="208" type="curve" smooth="yes"/>
      <point x="561" y="227" type="line" smooth="yes"/>
      <point x="561" y="313"/>
      <point x="518" y="368"/>
      <point x="465" y="399" type="curve"/>
      <point x="516" y="429"/>
      <point x="556" y="483"/>
      <point x="556" y="567" type="curve" smooth="yes"/>
      <point x="556" y="586" type="line" smooth="yes"/>
      <point x="556" y="679"/>
      <point x="490" y="793"/>
      <point x="300" y="793" type="curve" smooth="yes"/>
      <point x="110" y="793"/>
      <point x="44" y="679"/>
      <point x="44" y="586" type="curve" smooth="yes"/>
      <point x="44" y="567" type="line" smooth="yes"/>
      <point x="44" y="483"/>
      <point x="84" y="429"/>
      <point x="135" y="399" type="curve"/>
      <point x="81" y="368"/>
      <point x="39" y="313"/>
      <point x="39" y="227" type="curve" smooth="yes"/>
      <point x="39" y="208" type="line" smooth="yes"/>
      <point x="39" y="109"/>
      <point x="113" y="-13"/>
    </contour>
    <contour>
      <point x="293" y="328" type="curve" smooth="yes"/>
      <point x="307" y="328" type="line" smooth="yes"/>
      <point x="365" y="328"/>
      <point x="401" y="297"/>
      <point x="401" y="237" type="curve" smooth="yes"/>
      <point x="401" y="226" type="line" smooth="yes"/>
      <point x="401" y="156"/>
      <point x="355" y="127"/>
      <point x="305" y="127" type="curve" smooth="yes"/>
      <point x="295" y="127" type="line" smooth="yes"/>
      <point x="245" y="127"/>
      <point x="199" y="156"/>
      <point x="199" y="226" type="curve" smooth="yes"/>
      <point x="199" y="237" type="line" smooth="yes"/>
      <point x="199" y="297"/>
      <point x="235" y="328"/>
    </contour>
    <contour>
      <point x="305" y="653" type="line" smooth="yes"/>
      <point x="358" y="653"/>
      <point x="396" y="619"/>
      <point x="396" y="567" type="curve" smooth="yes"/>
      <point x="396" y="557" type="line" smooth="yes"/>
      <point x="396" y="497"/>
      <point x="362" y="468"/>
      <point x="304" y="468" type="curve" smooth="yes"/>
      <point x="296" y="468" type="line" smooth="yes"/>
      <point x="238" y="468"/>
      <point x="204" y="497"/>
      <point x="204" y="557" type="curve" smooth="yes"/>
      <point x="204" y="567" type="line" smooth="yes"/>
      <point x="204" y="619"/>
      <point x="242" y="653"/>
      <point x="295" y="653" type="curve" smooth="yes"/>
    </contour>
  </outline>
</glyph>
<glyph name="nine" format="1">
  <advance width="600"/>
  <unicode hex="0039"/>
  <outline>
    <contour>
      <point x="77" y="-13" type="line"/>
      <point x="235" y="-13"/>
      <point x="365" y="19"/>
      <point x="451" y="134" type="curve" smooth="yes"/>
      <point x="534" y="245"/>
      <point x="561" y="370"/>
      <point x="561" y="494" type="curve" smooth="yes"/>
      <point x="561" y="507" type="line" smooth="yes"/>
      <point x="561" y="679"/>
      <point x="468" y="793"/>
      <point x="299" y="793" type="curve" smooth="yes"/>
      <point x="127" y="793"/>
      <point x="38" y="698"/>
      <point x="38" y="544" type="curve" smooth="yes"/>
      <point x="38" y="534" type="line" smooth="yes"/>
      <point x="38" y="380"/>
      <point x="125" y="288"/>
      <point x="256" y="288" type="curve" smooth="yes"/>
      <point x="305" y="288"/>
      <point x="346" y="302"/>
      <point x="378" y="324" type="curve"/>
      <point x="367" y="285"/>
      <point x="350" y="252"/>
      <point x="327" y="224" type="curve" smooth="yes"/>
      <point x="272" y="156"/>
      <point x="192" y="129"/>
      <point x="77" y="129" type="curve"/>
    </contour>
    <contour>
      <point x="297" y="428" type="curve" smooth="yes"/>
      <point x="292" y="428" type="line" smooth="yes"/>
      <point x="238" y="428"/>
      <point x="198" y="458"/>
      <point x="198" y="530" type="curve" smooth="yes"/>
      <point x="198" y="549" type="line" smooth="yes"/>
      <point x="198" y="616"/>
      <point x="242" y="653"/>
      <point x="296" y="653" type="curve" smooth="yes"/>
      <point x="302" y="653" type="line" smooth="yes"/>
      <point x="357" y="653"/>
      <point x="401" y="607"/>
      <point x="401" y="520" type="curve" smooth="yes"/>
      <point x="401" y="488" type="line"/>
      <point x="378" y="448"/>
      <point x="336" y="428"/>
    </contour>
  </outline>
</glyph>
<glyph name="colon" format="1">
  <advance width="266"/>
  <unicode hex="003A"/>
  <outline>
    <contour>
      <point x="216" y="167" type="line"/>
      <point x="50" y="167" type="line"/>
      <point x="50" y="0" type="line"/>
      <point x="216" y="0" type="line"/>
    </contour>
    <contour>
      <point x="216" y="474" type="line"/>
      <point x="50" y="474" type="line"/>
      <point x="50" y="307" type="line"/>
      <point x="216" y="307" type="line"/>
    </contour>
  </outline>
</glyph>
<glyph name="semicolon" format="1">
  <advance width="266"/>
  <unicode hex="003B"/>
  <outline>
    <contour>
      <point x="216" y="167" type="line"/>
      <point x="50" y="167" type="line"/>
      <point x="50" y="0" type="line"/>
      <point x="134" y="0" type="line"/>
      <point x="124" y="-43"/>
      <point x="93" y="-64"/>
      <point x="45" y="-64" type="curve"/>
      <point x="45" y="-143" type="line"/>
      <point x="158" y="-143"/>
      <point x="216" y="-82"/>
      <point x="216" y="35" type="curve" smooth="yes"/>
    </contour>
    <contour>
      <point x="216" y="474" type="line"/>
      <point x="50" y="474" type="line"/>
      <point x="50" y="307" type="line"/>
      <point x="216" y="307" type="line"/>
    </contour>
  </outline>
</glyph>
<glyph name="less" format="1">
  <advance width="600"/>
  <unicode hex="003C"/>
  <outline>
    <contour>
      <point x="42" y="467" type="line"/>
      <point x="42" y="313" type="line"/>
      <point x="558" y="108" type="line"/>
      <point x="558" y="264" type="line"/>
      <point x="220" y="390" type="line"/>
      <point x="558" y="516" type="line"/>
      <point x="558" y="672" type="line"/>
    </contour>
  </outline>
</glyph>
<glyph name="equal" format="1">
  <advance width="600"/>
  <unicode hex="003D"/>
  <outline>
    <contour>
      <point x="42" y="428" type="line"/>
      <point x="558" y="428" type="line"/>
      <point x="558" y="569" type="line"/>
      <point x="42" y="569" type="line"/>
    </contour>
    <contour>
      <point x="42" y="211" type="line"/>
      <point x="558" y="211" type="line"/>
      <point x="558" y="352" type="line"/>
      <point x="42" y="352" type="line"/>
    </contour>
  </outline>
</glyph>
<glyph name="greater" format="1">
  <advance width="600"/>
  <unicode hex="003E"/>
  <outline>
    <contour>
      <point x="558" y="467" type="line"/>
      <point x="42" y="672" type="line"/>
      <point x="42" y="516" type="line"/>
      <point x="380" y="390" type="line"/>
      <point x="42" y="264" type="line"/>
      <point x="42" y="108" type="line"/>
      <point x="558" y="313" type="line"/>
    </contour>
  </outline>
</glyph>
<glyph name="question" format="1">
  <advance width="497"/>
  <unicode hex="003F"/>
  <outline>
    <contour>
      <point x="253" y="654" type="curve" smooth="yes"/>
      <point x="303" y="654"/>
      <point x="320" y="626"/>
      <point x="320" y="579" type="curve" smooth="yes"/>
      <point x="320" y="490"/>
      <point x="175" y="417"/>
      <point x="189" y="228" type="curve"/>
      <point x="300" y="228" type="line"/>
      <point x="314" y="417"/>
      <point x="479" y="391"/>
      <point x="479" y="592" type="curve" smooth="yes"/>
      <point x="479" y="692"/>
      <point x="429" y="793"/>
      <point x="253" y="793" type="curve" smooth="yes"/>
      <point x="80" y="793"/>
      <point x="21" y="701"/>
      <point x="21" y="534" type="curve" smooth="yes"/>
      <point x="21" y="516" type="line"/>
      <point x="180" y="516" type="line"/>
      <point x="180" y="614"/>
      <point x="198" y="654"/>
    </contour>
    <contour>
      <point x="328" y="167" type="line"/>
      <point x="162" y="167" type="line"/>
      <point x="162" y="0" type="line"/>
      <point x="328" y="0" type="line"/>
    </contour>
  </outline>
</glyph>
<glyph name="at" format="1">
  <advance width="991"/>
  <unicode hex="0040"/>
  <outline>
    <contour>
      <point x="513" y="-110" type="line" smooth="yes"/>
      <point x="289" y="-110"/>
      <point x="132" y="15"/>
      <point x="132" y="270" type="curve" smooth="yes"/>
      <point x="132" y="310" type="line" smooth="yes"/>
      <point x="132" y="563"/>
      <point x="290" y="690"/>
      <point x="508" y="690" type="curve" smooth="yes"/>
      <point x="514" y="690" type="line" smooth="yes"/>
      <point x="683" y="690"/>
      <point x="857" y="631"/>
      <point x="857" y="398" type="curve" smooth="yes"/>
      <point x="857" y="368" type="line" smooth="yes"/>
      <point x="857" y="214"/>
      <point x="815" y="168"/>
      <point x="700" y="162" type="curve"/>
      <point x="700" y="393" type="line"/>
      <point x="709" y="530" type="line"/>
      <point x="586" y="530" type="line"/>
      <point x="575" y="471" type="line"/>
      <point x="548" y="513"/>
      <point x="504" y="543"/>
      <point x="436" y="543" type="curve" smooth="yes"/>
      <point x="312" y="543"/>
      <point x="251" y="446"/>
      <point x="251" y="312" type="curve" smooth="yes"/>
      <point x="251" y="278" type="line" smooth="yes"/>
      <point x="251" y="144"/>
      <point x="312" y="47"/>
      <point x="436" y="47" type="curve" smooth="yes"/>
      <point x="504" y="47"/>
      <point x="548" y="77"/>
      <point x="575" y="119" type="curve"/>
      <point x="586" y="60" type="line"/>
      <point x="691" y="60" type="line" smooth="yes"/>
      <point x="846" y="60"/>
      <point x="964" y="128"/>
      <point x="964" y="368" type="curve" smooth="yes"/>
      <point x="964" y="398" type="line" smooth="yes"/>
      <point x="964" y="680"/>
      <point x="753" y="793"/>
      <point x="511" y="793" type="curve" smooth="yes"/>
      <point x="232" y="793"/>
      <point x="27" y="622"/>
      <point x="27" y="310" type="curve" smooth="yes"/>
      <point x="27" y="270" type="line" smooth="yes"/>
      <point x="27" y="-42"/>
      <point x="232" y="-213"/>
      <point x="516" y="-213" type="curve" smooth="yes"/>
      <point x="633" y="-213"/>
      <point x="770" y="-191"/>
      <point x="908" y="-81" type="curve"/>
      <point x="849" y="-1" type="line"/>
      <point x="751" y="-73"/>
      <point x="640" y="-110"/>
      <point x="519" y="-110" type="curve" smooth="yes"/>
    </contour>
    <contour>
      <point x="563" y="374" type="curve"/>
      <point x="563" y="216" type="line"/>
      <point x="551" y="197"/>
      <point x="522" y="169"/>
      <point x="479" y="169" type="curve" smooth="yes"/>
      <point x="421" y="169"/>
      <point x="395" y="211"/>
      <point x="395" y="278" type="curve" smooth="yes"/>
      <point x="395" y="312" type="line" smooth="yes"/>
      <point x="395" y="379"/>
      <point x="421" y="421"/>
      <point x="479" y="421" type="curve" smooth="yes"/>
      <point x="522" y="421"/>
      <point x="551" y="393"/>
    </contour>
  </outline>
</glyph>
<glyph name="B" format="1">
  <advance width="631"/>
  <unicode hex="0042"/>
  <outline>
    <contour>
      <point x="56" y="780" type="line"/>
      <point x="56" y="0" type="line"/>
      <point x="320" y="0" type="line" smooth="yes"/>
      <point x="446" y="0"/>
      <point x="583" y="34"/>
      <point x="583" y="224" type="curve" smooth="yes"/>
      <point x="583" y="244" type="line" smooth="yes"/>
      <point x="583" y="328"/>
      <point x="543" y="376"/>
      <point x="487" y="403" type="curve"/>
      <point x="532" y="429"/>
      <point x="563" y="473"/>
      <point x="563" y="544" type="curve" smooth="yes"/>
      <point x="563" y="564" type="line" smooth="yes"/>
      <point x="563" y="747"/>
      <point x="434" y="780"/>
      <point x="312" y="780" type="curve" smooth="yes"/>
    </contour>
    <contour>
      <point x="325" y="328" type="line" smooth="yes"/>
      <point x="370" y="328"/>
      <point x="419" y="310"/>
      <point x="419" y="239" type="curve" smooth="yes"/>
      <point x="419" y="230" type="line" smooth="yes"/>
      <point x="419" y="159"/>
      <point x="370" y="140"/>
      <point x="325" y="140" type="curve" smooth="yes"/>
      <point x="218" y="140" type="line"/>
      <point x="218" y="328" type="line"/>
    </contour>
    <contour>
      <point x="311" y="640" type="line" smooth="yes"/>
      <point x="353" y="640"/>
      <point x="399" y="625"/>
      <point x="399" y="561" type="curve" smooth="yes"/>
      <point x="399" y="548" type="line" smooth="yes"/>
      <point x="399" y="484"/>
      <point x="353" y="469"/>
      <point x="311" y="469" type="curve" smooth="yes"/>
      <point x="218" y="469" type="line"/>
      <point x="218" y="640" type="line"/>
    </contour>
  </outline>
</glyph>
<glyph name="D" format="1">
  <advance width="663"/>
  <unicode hex="0044"/>
  <outline>
    <contour>
      <point x="624" y="370" type="curve" smooth="yes"/>
      <point x="624" y="410" type="line" smooth="yes"/>
      <point x="624" y="680"/>
      <point x="527" y="780"/>
      <point x="295" y="780" type="curve" smooth="yes"/>
      <point x="56" y="780" type="line"/>
      <point x="56" y="0" type="line"/>
      <point x="295" y="0" type="line" smooth="yes"/>
      <point x="527" y="0"/>
      <point x="624" y="100"/>
    </contour>
    <contour>
      <point x="218" y="140" type="line"/>
      <point x="218" y="640" type="line"/>
      <point x="286" y="640" type="line" smooth="yes"/>
      <point x="421" y="640"/>
      <point x="459" y="566"/>
      <point x="459" y="410" type="curve" smooth="yes"/>
      <point x="459" y="370" type="line" smooth="yes"/>
      <point x="459" y="214"/>
      <point x="421" y="140"/>
      <point x="286" y="140" type="curve" smooth="yes"/>
    </contour>
  </outline>
</glyph>
<glyph name="E" format="1">
  <advance width="573"/>
  <unicode hex="0045"/>
  <outline>
    <contour>
      <point x="56" y="780" type="line"/>
      <point x="56" y="0" type="line"/>
      <point x="533" y="0" type="line"/>
      <point x="533" y="140" type="line"/>
      <point x="218" y="140" type="line"/>
      <point x="218" y="328" type="line"/>
      <point x="483" y="328" type="line"/>
      <point x="483" y="468" type="line"/>
      <point x="218" y="468" type="line"/>
      <point x="218" y="640" type="line"/>
      <point x="533" y="640" type="line"/>
      <point x="533" y="780" type="line"/>
    </contour>
  </outline>
</glyph>
<glyph name="F" format="1">
  <advance width="549"/>
  <unicode hex="0046"/>
  <outline>
    <contour>
      <point x="56" y="780" type="line"/>
      <point x="56" y="0" type="line"/>
      <point x="218" y="0" type="line"/>
      <point x="218" y="328" type="line"/>
      <point x="479" y="328" type="line"/>
      <point x="479" y="468" type="line"/>
      <point x="218" y="468" type="line"/>
      <point x="218" y="640" type="line"/>
      <point x="529" y="640" type="line"/>
      <point x="529" y="780" type="line"/>
    </contour>
  </outline>
</glyph>
<glyph name="H" format="1">
  <advance width="663"/>
  <unicode hex="0048"/>
  <outline>
    <contour>
      <point x="445" y="780" type="line"/>
      <point x="445" y="468" type="line"/>
      <point x="218" y="468" type="line"/>
      <point x="218" y="780" type="line"/>
      <point x="56" y="780" type="line"/>
      <point x="56" y="0" type="line"/>
      <point x="218" y="0" type="line"/>
      <point x="218" y="328" type="line"/>
      <point x="445" y="328" type="line"/>
      <point x="445" y="0" type="line"/>
      <point x="607" y="0" type="line"/>
      <point x="607" y="780" type="line"/>
    </contour>
  </outline>
</glyph>
<glyph name="I" format="1">
  <advance width="283"/>
  <unicode hex="0049"/>
  <outline>
    <contour>
      <point x="223" y="780" type="line"/>
      <point x="61" y="780" type="line"/>
      <point x="61" y="0" type="line"/>
      <point x="223" y="0" type="line"/>
    </contour>
  </outline>
</glyph>
<glyph name="J" format="1">
  <advance width="537"/>
  <unicode hex="004A"/>
  <outline>
    <contour>
      <point x="324" y="780" type="line"/>
      <point x="324" y="258" type="line" smooth="yes"/>
      <point x="324" y="174"/>
      <point x="308" y="127"/>
      <point x="250" y="127" type="curve" smooth="yes"/>
      <point x="193" y="127"/>
      <point x="176" y="174"/>
      <point x="176" y="266" type="curve"/>
      <point x="23" y="266" type="line"/>
      <point x="23" y="240" type="line" smooth="yes"/>
      <point x="23" y="79"/>
      <point x="82" y="-13"/>
      <point x="254" y="-13" type="curve" smooth="yes"/>
      <point x="419" y="-13"/>
      <point x="486" y="79"/>
      <point x="486" y="238" type="curve" smooth="yes"/>
      <point x="486" y="780" type="line"/>
    </contour>
  </outline>
</glyph>
<glyph name="K" format="1">
  <advance width="625"/>
  <unicode hex="004B"/>
  <outline>
    <contour>
      <point x="218" y="780" type="line"/>
      <point x="56" y="780" type="line"/>
      <point x="56" y="0" type="line"/>
      <point x="218" y="0" type="line"/>
      <point x="218" y="225" type="line"/>
      <point x="284" y="319" type="line"/>
      <point x="426" y="0" type="line"/>
      <point x="606" y="0" type="line"/>
      <point x="387" y="467" type="line"/>
      <point x="606" y="780" type="line"/>
      <point x="410" y="780" type="line"/>
      <point x="218" y="474" type="line"/>
    </contour>
  </outline>
</glyph>
<glyph name="L" format="1">
  <advance width="521"/>
  <unicode hex="004C"/>
  <outline>
    <contour>
      <point x="506" y="0" type="line"/>
      <point x="506" y="140" type="line"/>
      <point x="218" y="140" type="line"/>
      <point x="218" y="780" type="line"/>
      <point x="56" y="780" type="line"/>
      <point x="56" y="0" type="line"/>
    </contour>
  </outline>
</glyph>
<glyph name="N" format="1">
  <advance width="683"/>
  <unicode hex="004E"/>
  <outline>
    <contour>
      <point x="627" y="780" type="line"/>
      <point x="473" y="780" type="line"/>
      <point x="473" y="453" type="line"/>
      <point x="478" y="296" type="line"/>
      <point x="227" y="780" type="line"/>
      <point x="56" y="780" type="line"/>
      <point x="56" y="0" type="line"/>
      <point x="209" y="0" type="line"/>
      <point x="209" y="327" type="line"/>
      <point x="204" y="484" type="line"/>
      <point x="456" y="0" type="line"/>
      <point x="627" y="0" type="line"/>
    </contour>
  </outline>
</glyph>
<glyph name="O" format="1">
  <advance width="673"/>
  <unicode hex="004F"/>
  <outline>
    <contour>
      <point x="336" y="-13" type="curve" smooth="yes"/>
      <point x="539" y="-13"/>
      <point x="634" y="100"/>
      <point x="634" y="370" type="curve" smooth="yes"/>
      <point x="634" y="410" type="line" smooth="yes"/>
      <point x="634" y="680"/>
      <point x="539" y="793"/>
      <point x="336" y="793" type="curve" smooth="yes"/>
      <point x="134" y="793"/>
      <point x="39" y="680"/>
      <point x="39" y="410" type="curve" smooth="yes"/>
      <point x="39" y="370" type="line" smooth="yes"/>
      <point x="39" y="100"/>
      <point x="134" y="-13"/>
    </contour>
    <contour>
      <point x="332" y="127" type="line" smooth="yes"/>
      <point x="232" y="127"/>
      <point x="203" y="214"/>
      <point x="203" y="370" type="curve" smooth="yes"/>
      <point x="203" y="410" type="line" smooth="yes"/>
      <point x="203" y="566"/>
      <point x="232" y="653"/>
      <point x="332" y="653" type="curve" smooth="yes"/>
      <point x="341" y="653" type="line" smooth="yes"/>
      <point x="441" y="653"/>
      <point x="469" y="566"/>
      <point x="469" y="410" type="curve" smooth="yes"/>
      <point x="469" y="370" type="line" smooth="yes"/>
      <point x="469" y="214"/>
      <point x="441" y="127"/>
      <point x="341" y="127" type="curve" smooth="yes"/>
    </contour>
  </outline>
</glyph>
<glyph name="P" format="1">
  <advance width="609"/>
  <unicode hex="0050"/>
  <outline>
    <contour>
      <point x="218" y="280" type="line"/>
      <point x="312" y="280" type="line" smooth="yes"/>
      <point x="439" y="280"/>
      <point x="583" y="312"/>
      <point x="583" y="520" type="curve" smooth="yes"/>
      <point x="583" y="540" type="line" smooth="yes"/>
      <point x="583" y="747"/>
      <point x="439" y="780"/>
      <point x="312" y="780" type="curve" smooth="yes"/>
      <point x="56" y="780" type="line"/>
      <point x="56" y="0" type="line"/>
      <point x="218" y="0" type="line"/>
    </contour>
    <contour>
      <point x="218" y="420" type="line"/>
      <point x="218" y="640" type="line"/>
      <point x="319" y="640" type="line" smooth="yes"/>
      <point x="363" y="640"/>
      <point x="419" y="623"/>
      <point x="419" y="535" type="curve" smooth="yes"/>
      <point x="419" y="525" type="line" smooth="yes"/>
      <point x="419" y="437"/>
      <point x="363" y="420"/>
      <point x="319" y="420" type="curve" smooth="yes"/>
    </contour>
  </outline>
</glyph>
<glyph name="Q" format="1">
  <advance width="673"/>
  <unicode hex="0051"/>
  <outline>
    <contour>
      <point x="336" y="-13" type="curve" smooth="yes"/>
      <point x="349" y="-13"/>
      <point x="361" y="-12"/>
      <point x="373" y="-11" type="curve"/>
      <point x="407" y="-100" type="line"/>
      <point x="533" y="-100" type="line"/>
      <point x="486" y="17" type="line"/>
      <point x="586" y="66"/>
      <point x="634" y="179"/>
      <point x="634" y="370" type="curve" smooth="yes"/>
      <point x="634" y="410" type="line" smooth="yes"/>
      <point x="634" y="680"/>
      <point x="539" y="793"/>
      <point x="336" y="793" type="curve" smooth="yes"/>
      <point x="134" y="793"/>
      <point x="39" y="680"/>
      <point x="39" y="410" type="curve" smooth="yes"/>
      <point x="39" y="370" type="line" smooth="yes"/>
      <point x="39" y="100"/>
      <point x="134" y="-13"/>
    </contour>
    <contour>
      <point x="389" y="262" type="line"/>
      <point x="267" y="262" type="line"/>
      <point x="319" y="127" type="line"/>
      <point x="229" y="135"/>
      <point x="203" y="221"/>
      <point x="203" y="370" type="curve" smooth="yes"/>
      <point x="203" y="410" type="line" smooth="yes"/>
      <point x="203" y="566"/>
      <point x="232" y="653"/>
      <point x="332" y="653" type="curve" smooth="yes"/>
      <point x="341" y="653" type="line" smooth="yes"/>
      <point x="441" y="653"/>
      <point x="469" y="566"/>
      <point x="469" y="410" type="curve" smooth="yes"/>
      <point x="469" y="370" type="line" smooth="yes"/>
      <point x="469" y="274"/>
      <point x="458" y="204"/>
      <point x="427" y="165" type="curve"/>
    </contour>
  </outline>
</glyph>
<glyph name="V" format="1">
  <advance width="641"/>
  <unicode hex="0056"/>
  <outline>
    <contour>
      <point x="432" y="-2" type="line"/>
      <point x="627" y="780" type="line"/>
      <point x="453" y="780" type="line"/>
      <point x="320" y="185" type="line"/>
      <point x="187" y="780" type="line"/>
      <point x="14" y="780" type="line"/>
      <point x="209" y="-2" type="line"/>
    </contour>
  </outline>
</glyph>
<glyph name="W" format="1">
  <advance width="937"/>
  <unicode hex="0057"/>
  <outline>
    <contour>
      <point x="581" y="-2" type="line"/>
      <point x="789" y="-2" type="line"/>
      <point x="918" y="780" type="line"/>
      <point x="749" y="780" type="line"/>
      <point x="674" y="219" type="line"/>
      <point x="569" y="780" type="line"/>
      <point x="368" y="780" type="line"/>
      <point x="263" y="219" type="line"/>
      <point x="188" y="780" type="line"/>
      <point x="19" y="780" type="line"/>
      <point x="148" y="-2" type="line"/>
      <point x="355" y="-2" type="line"/>
      <point x="468" y="595" type="line"/>
    </contour>
  </outline>
</glyph>
<glyph name="X" format="1">
  <advance width="649"/>
  <unicode hex="0058"/>
  <outline>
    <contour>
      <point x="19" y="0" type="line"/>
      <point x="198" y="0" type="line"/>
      <point x="324" y="291" type="line"/>
      <point x="450" y="0" type="line"/>
      <point x="630" y="0" type="line"/>
      <point x="440" y="409" type="line"/>
      <point x="630" y="780" type="line"/>
      <point x="442" y="780" type="line"/>
      <point x="324" y="521" type="line"/>
      <point x="207" y="780" type="line"/>
      <point x="19" y="780" type="line"/>
      <point x="209" y="409" type="line"/>
    </contour>
  </outline>
</glyph>
<glyph name="Y" format="1">
  <advance width="625"/>
  <unicode hex="0059"/>
  <outline>
    <contour>
      <point x="394" y="239" type="line"/>
      <point x="617" y="780" type="line"/>
      <point x="440" y="780" type="line"/>
      <point x="313" y="439" type="line"/>
      <point x="185" y="780" type="line"/>
      <point x="8" y="780" type="line"/>
      <point x="232" y="239" type="line"/>
      <point x="232" y="0" type="line"/>
      <point x="394" y="0" type="line"/>
    </contour>
  </outline>
</glyph>
<glyph name="Z" format="1">
  <advance width="599"/>
  <unicode hex="005A"/>
  <outline>
    <contour>
      <point x="40" y="111" type="line"/>
      <point x="40" y="0" type="line"/>
      <point x="559" y="0" type="line"/>
      <point x="559" y="140" type="line"/>
      <point x="381" y="140" type="line"/>
      <point x="238" y="137" type="line"/>
      <point x="549" y="669" type="line"/>
      <point x="549" y="780" type="line"/>
      <point x="50" y="780" type="line"/>
      <point x="50" y="640" type="line"/>
      <point x="208" y="640" type="line"/>
      <point x="351" y="643" type="line"/>
    </contour>
  </outline>
</glyph>
<glyph name="bracketleft" format="1">
  <advance width="365"/>
  <unicode hex="005B"/>
  <outline>
    <contour>
      <point x="58" y="840" type="line"/>
      <point x="58" y="-120" type="line"/>
      <point x="332" y="-120" type="line"/>
      <point x="332" y="18" type="line"/>
      <point x="215" y="18" type="line"/>
      <point x="215" y="702" type="line"/>
      <point x="332" y="702" type="line"/>
      <point x="332" y="840" type="line"/>
    </contour>
  </outline>
</glyph>
<glyph name="backslash" format="1">
  <advance width="412"/>
  <unicode hex="005C"/>
  <outline>
    <contour>
      <point x="245" y="-120" type="line"/>
      <point x="399" y="-120" type="line"/>
      <point x="169" y="840" type="line"/>
      <point x="15" y="840" type="line"/>
    </contour>
  </outline>
</glyph>
<glyph name="bracketright" format="1">
  <advance width="365"/>
  <unicode hex="005D"/>
  <outline>
    <contour>
      <point x="307" y="-120" type="line"/>
      <point x="307" y="840" type="line"/>
      <point x="33" y="840" type="line"/>
      <point x="33" y="702" type="line"/>
      <point x="150" y="702" type="line"/>
      <point x="150" y="18" type="line"/>
      <point x="33" y="18" type="line"/>
      <point x="33" y="-120" type="line"/>
    </contour>
  </outline>
</glyph>
<glyph name="asciicircum" format="1">
  <advance width="600"/>
  <unicode hex="005E"/>
  <outline>
    <contour>
      <point x="377" y="780" type="line"/>
      <point x="223" y="780" type="line"/>
      <point x="18" y="264" type="line"/>
      <point x="174" y="264" type="line"/>
      <point x="300" y="602" type="line"/>
      <point x="426" y="264" type="line"/>
      <point x="582" y="264" type="line"/>
    </contour>
  </outline>
</glyph>
<glyph name="underscore" format="1">
  <advance width="320"/>
  <unicode hex="005F"/>
  <outline>
    <contour>
      <point x="42" y="-185" type="line"/>
      <point x="278" y="-185" type="line"/>
      <point x="278" y="-47" type="line"/>
      <point x="42" y="-47" type="line"/>
    </contour>
  </outline>
</glyph>
<glyph name="grave" format="1">
  <advance width="500"/>
  <unicode hex="0060"/>
  <outline>
    <contour>
      <point x="65" y="780" type="line"/>
      <point x="172" y="596" type="line"/>
      <point x="328" y="596" type="line"/>
      <point x="237" y="780" type="line"/>
    </contour>
  </outline>
</glyph>
<glyph name="b" format="1">
  <advance width="574"/>
  <unicode hex="0062"/>
  <outline>
    <contour>
      <point x="211" y="800" type="line"/>
      <point x="53" y="800" type="line"/>
      <point x="53" y="150" type="line"/>
      <point x="44" y="0" type="line"/>
      <point x="185" y="0" type="line"/>
      <point x="196" y="64" type="line"/>
      <point x="226" y="19"/>
      <point x="273" y="-13"/>
      <point x="347" y="-13" type="curve" smooth="yes"/>
      <point x="492" y="-13"/>
      <point x="544" y="94"/>
      <point x="544" y="247" type="curve" smooth="yes"/>
      <point x="544" y="283" type="line" smooth="yes"/>
      <point x="544" y="436"/>
      <point x="492" y="543"/>
      <point x="347" y="543" type="curve" smooth="yes"/>
      <point x="284" y="543"/>
      <point x="241" y="520"/>
      <point x="211" y="485" type="curve"/>
    </contour>
    <contour>
      <point x="211" y="357" type="line"/>
      <point x="224" y="376"/>
      <point x="254" y="407"/>
      <point x="301" y="407" type="curve" smooth="yes"/>
      <point x="362" y="407"/>
      <point x="386" y="361"/>
      <point x="386" y="283" type="curve" smooth="yes"/>
      <point x="386" y="247" type="line" smooth="yes"/>
      <point x="386" y="169"/>
      <point x="362" y="123"/>
      <point x="301" y="123" type="curve" smooth="yes"/>
      <point x="254" y="123"/>
      <point x="224" y="154"/>
      <point x="211" y="173" type="curve"/>
    </contour>
  </outline>
</glyph>
<glyph name="e" format="1">
  <advance width="556"/>
  <unicode hex="0065"/>
  <outline>
    <contour>
      <point x="526" y="208" type="line"/>
      <point x="526" y="279" type="line" smooth="yes"/>
      <point x="526" y="432"/>
      <point x="449" y="543"/>
      <point x="281" y="543" type="curve" smooth="yes"/>
      <point x="114" y="543"/>
      <point x="30" y="432"/>
      <point x="30" y="279" type="curve" smooth="yes"/>
      <point x="30" y="251" type="line" smooth="yes"/>
      <point x="30" y="98"/>
      <point x="111" y="-13"/>
      <point x="287" y="-13" type="curve" smooth="yes"/>
      <point x="440" y="-13"/>
      <point x="526" y="65"/>
      <point x="526" y="166" type="curve" smooth="yes"/>
      <point x="526" y="170" type="line"/>
      <point x="377" y="170" type="line"/>
      <point x="377" y="138"/>
      <point x="343" y="107"/>
      <point x="288" y="107" type="curve" smooth="yes"/>
      <point x="229" y="107"/>
      <point x="194" y="134"/>
      <point x="188" y="208" type="curve"/>
    </contour>
    <contour>
      <point x="278" y="423" type="curve" smooth="yes"/>
      <point x="334" y="423"/>
      <point x="362" y="391"/>
      <point x="367" y="322" type="curve"/>
      <point x="189" y="322" type="line"/>
      <point x="194" y="391"/>
      <point x="222" y="423"/>
    </contour>
  </outline>
</glyph>
<glyph name="h" format="1">
  <advance width="580"/>
  <unicode hex="0068"/>
  <outline>
    <contour>
      <point x="212" y="800" type="line"/>
      <point x="54" y="800" type="line"/>
      <point x="54" y="0" type="line"/>
      <point x="212" y="0" type="line"/>
      <point x="212" y="357" type="line"/>
      <point x="224" y="376"/>
      <point x="255" y="407"/>
      <point x="305" y="407" type="curve" smooth="yes"/>
      <point x="359" y="407"/>
      <point x="375" y="371"/>
      <point x="375" y="333" type="curve" smooth="yes"/>
      <point x="375" y="0" type="line"/>
      <point x="532" y="0" type="line"/>
      <point x="532" y="359" type="line" smooth="yes"/>
      <point x="532" y="455"/>
      <point x="488" y="543"/>
      <point x="368" y="543" type="curve" smooth="yes"/>
      <point x="297" y="543"/>
      <point x="246" y="517"/>
      <point x="212" y="479" type="curve"/>
    </contour>
  </outline>
</glyph>
<glyph name="j" format="1">
  <advance width="268"/>
  <unicode hex="006A"/>
  <outline>
    <contour>
      <point x="54" y="1" type="line" smooth="yes"/>
      <point x="54" y="-64"/>
      <point x="23" y="-77"/>
      <point x="-24" y="-77" type="curve" smooth="yes"/>
      <point x="-42" y="-77"/>
      <point x="-67" y="-73"/>
      <point x="-73" y="-70" type="curve"/>
      <point x="-73" y="-200" type="line"/>
      <point x="-64" y="-205"/>
      <point x="-35" y="-213"/>
      <point x="13" y="-213" type="curve" smooth="yes"/>
      <point x="131" y="-213"/>
      <point x="212" y="-162"/>
      <point x="212" y="-16" type="curve" smooth="yes"/>
      <point x="212" y="530" type="line"/>
      <point x="54" y="530" type="line"/>
    </contour>
    <contour>
      <point x="216" y="772" type="line"/>
      <point x="50" y="772" type="line"/>
      <point x="50" y="605" type="line"/>
      <point x="216" y="605" type="line"/>
    </contour>
  </outline>
</glyph>
<glyph name="k" format="1">
  <advance width="562"/>
  <unicode hex="006B"/>
  <outline>
    <contour>
      <point x="50" y="0" type="line"/>
      <point x="208" y="0" type="line"/>
      <point x="208" y="144" type="line"/>
      <point x="260" y="204" type="line"/>
      <point x="360" y="0" type="line"/>
      <point x="544" y="0" type="line"/>
      <point x="369" y="329" type="line"/>
      <point x="544" y="530" type="line"/>
      <point x="355" y="530" type="line"/>
      <point x="208" y="350" type="line"/>
      <point x="208" y="800" type="line"/>
      <point x="50" y="800" type="line"/>
    </contour>
  </outline>
</glyph>
<glyph name="m" format="1">
  <advance width="863"/>
  <unicode hex="006D"/>
  <outline>
    <contour>
      <point x="815" y="0" type="line"/>
      <point x="815" y="365" type="line" smooth="yes"/>
      <point x="815" y="465"/>
      <point x="768" y="543"/>
      <point x="658" y="543" type="curve" smooth="yes"/>
      <point x="579" y="543"/>
      <point x="527" y="508"/>
      <point x="495" y="461" type="curve"/>
      <point x="472" y="511"/>
      <point x="427" y="543"/>
      <point x="356" y="543" type="curve" smooth="yes"/>
      <point x="280" y="543"/>
      <point x="229" y="511"/>
      <point x="197" y="466" type="curve"/>
      <point x="186" y="530" type="line"/>
      <point x="45" y="530" type="line"/>
      <point x="54" y="380" type="line"/>
      <point x="54" y="0" type="line"/>
      <point x="212" y="0" type="line"/>
      <point x="212" y="361" type="line"/>
      <point x="224" y="380"/>
      <point x="249" y="407"/>
      <point x="293" y="407" type="curve" smooth="yes"/>
      <point x="337" y="407"/>
      <point x="356" y="382"/>
      <point x="356" y="340" type="curve" smooth="yes"/>
      <point x="356" y="0" type="line"/>
      <point x="513" y="0" type="line"/>
      <point x="513" y="361" type="line"/>
      <point x="526" y="380"/>
      <point x="550" y="407"/>
      <point x="595" y="407" type="curve" smooth="yes"/>
      <point x="639" y="407"/>
      <point x="658" y="382"/>
      <point x="658" y="340" type="curve" smooth="yes"/>
      <point x="658" y="0" type="line"/>
    </contour>
  </outline>
</glyph>
<glyph name="n" format="1">
  <advance width="580"/>
  <unicode hex="006E"/>
  <outline>
    <contour>
      <point x="532" y="0" type="line"/>
      <point x="532" y="359" type="line" smooth="yes"/>
      <point x="532" y="455"/>
      <point x="488" y="543"/>
      <point x="368" y="543" type="curve" smooth="yes"/>
      <point x="286" y="543"/>
      <point x="231" y="509"/>
      <point x="198" y="462" type="curve"/>
      <point x="186" y="530" type="line"/>
      <point x="45" y="530" type="line"/>
      <point x="54" y="380" type="line"/>
      <point x="54" y="0" type="line"/>
      <point x="212" y="0" type="line"/>
      <point x="212" y="357" type="line"/>
      <point x="224" y="376"/>
      <point x="255" y="407"/>
      <point x="305" y="407" type="curve" smooth="yes"/>
      <point x="359" y="407"/>
      <point x="375" y="371"/>
      <point x="375" y="333" type="curve" smooth="yes"/>
      <point x="375" y="0" type="line"/>
    </contour>
  </outline>
</glyph>
<glyph name="q" format="1">
  <advance width="581"/>
  <unicode hex="0071"/>
  <outline>
    <contour>
      <point x="366" y="-200" type="line"/>
      <point x="524" y="-200" type="line"/>
      <point x="524" y="380" type="line"/>
      <point x="533" y="530" type="line"/>
      <point x="391" y="530" type="line"/>
      <point x="380" y="466" type="line"/>
      <point x="350" y="511"/>
      <point x="303" y="543"/>
      <point x="230" y="543" type="curve" smooth="yes"/>
      <point x="85" y="543"/>
      <point x="33" y="436"/>
      <point x="33" y="283" type="curve" smooth="yes"/>
      <point x="33" y="247" type="line" smooth="yes"/>
      <point x="33" y="94"/>
      <point x="85" y="-13"/>
      <point x="230" y="-13" type="curve" smooth="yes"/>
      <point x="292" y="-13"/>
      <point x="336" y="10"/>
      <point x="366" y="45" type="curve"/>
    </contour>
    <contour>
      <point x="366" y="173" type="line"/>
      <point x="353" y="154"/>
      <point x="323" y="123"/>
      <point x="276" y="123" type="curve" smooth="yes"/>
      <point x="214" y="123"/>
      <point x="190" y="169"/>
      <point x="190" y="247" type="curve" smooth="yes"/>
      <point x="190" y="283" type="line" smooth="yes"/>
      <point x="190" y="361"/>
      <point x="214" y="407"/>
      <point x="276" y="407" type="curve" smooth="yes"/>
      <point x="323" y="407"/>
      <point x="353" y="376"/>
      <point x="366" y="357" type="curve"/>
    </contour>
  </outline>
</glyph>
<glyph name="r" format="1">
  <advance width="385"/>
  <unicode hex="0072"/>
  <outline>
    <contour>
      <point x="338" y="543" type="curve" smooth="yes"/>
      <point x="276" y="543"/>
      <point x="228" y="512"/>
      <point x="197" y="468" type="curve"/>
      <point x="186" y="530" type="line"/>
      <point x="45" y="530" type="line"/>
      <point x="54" y="380" type="line"/>
      <point x="54" y="0" type="line"/>
      <point x="212" y="0" type="line"/>
      <point x="212" y="344" type="line"/>
      <point x="226" y="364"/>
      <point x="262" y="390"/>
      <point x="326" y="390" type="curve" smooth="yes"/>
      <point x="353" y="390" type="line"/>
      <point x="353" y="542" type="line"/>
      <point x="349" y="543"/>
      <point x="343" y="543"/>
    </contour>
  </outline>
</glyph>
<glyph name="v" format="1">
  <advance width="549"/>
  <unicode hex="0076"/>
  <outline>
    <contour>
      <point x="164" y="0" type="line"/>
      <point x="385" y="0" type="line"/>
      <point x="540" y="530" type="line"/>
      <point x="376" y="530" type="line"/>
      <point x="275" y="127" type="line"/>
      <point x="173" y="530" type="line"/>
      <point x="10" y="530" type="line"/>
    </contour>
  </outline>
</glyph>
<glyph name="w" format="1">
  <advance width="766"/>
  <unicode hex="0077"/>
  <outline>
    <contour>
      <point x="383" y="365" type="line"/>
      <point x="457" y="0" type="line"/>
      <point x="655" y="0" type="line"/>
      <point x="747" y="530" type="line"/>
      <point x="592" y="530" type="line"/>
      <point x="552" y="171" type="line"/>
      <point x="477" y="530" type="line"/>
      <point x="288" y="530" type="line"/>
      <point x="214" y="171" type="line"/>
      <point x="174" y="530" type="line"/>
      <point x="19" y="530" type="line"/>
      <point x="110" y="0" type="line"/>
      <point x="309" y="0" type="line"/>
    </contour>
  </outline>
</glyph>
<glyph name="x" format="1">
  <advance width="558"/>
  <unicode hex="0078"/>
  <outline>
    <contour>
      <point x="17" y="530" type="line"/>
      <point x="152" y="274" type="line"/>
      <point x="17" y="0" type="line"/>
      <point x="195" y="0" type="line"/>
      <point x="279" y="190" type="line"/>
      <point x="364" y="0" type="line"/>
      <point x="542" y="0" type="line"/>
      <point x="406" y="274" type="line"/>
      <point x="542" y="530" type="line"/>
      <point x="359" y="530" type="line"/>
      <point x="279" y="351" type="line"/>
      <point x="199" y="530" type="line"/>
    </contour>
  </outline>
</glyph>
<glyph name="y" format="1">
  <advance width="551"/>
  <unicode hex="0079"/>
  <outline>
    <contour>
      <point x="277" y="192" type="line"/>
      <point x="177" y="530" type="line"/>
      <point x="5" y="530" type="line"/>
      <point x="191" y="28" type="line"/>
      <point x="106" y="-200" type="line"/>
      <point x="294" y="-200" type="line"/>
      <point x="362" y="28" type="line"/>
      <point x="549" y="530" type="line"/>
      <point x="377" y="530" type="line"/>
    </contour>
  </outline>
</glyph>
<glyph name="z" format="1">
  <advance width="499"/>
  <unicode hex="007A"/>
  <outline>
    <contour>
      <point x="24" y="108" type="line"/>
      <point x="24" y="0" type="line"/>
      <point x="475" y="0" type="line"/>
      <point x="475" y="138" type="line"/>
      <point x="341" y="138" type="line"/>
      <point x="231" y="135" type="line"/>
      <point x="465" y="422" type="line"/>
      <point x="465" y="530" type="line"/>
      <point x="34" y="530" type="line"/>
      <point x="34" y="392" type="line"/>
      <point x="148" y="392" type="line"/>
      <point x="258" y="395" type="line"/>
    </contour>
  </outline>
</glyph>
<glyph name="braceleft" format="1">
  <advance width="365"/>
  <unicode hex="007B"/>
  <outline>
    <contour>
      <point x="332" y="840" type="line"/>
      <point x="305" y="840" type="line" smooth="yes"/>
      <point x="181" y="840"/>
      <point x="99" y="795"/>
      <point x="99" y="662" type="curve" smooth="yes"/>
      <point x="99" y="511" type="line" smooth="yes"/>
      <point x="99" y="452"/>
      <point x="75" y="429"/>
      <point x="24" y="429" type="curve"/>
      <point x="24" y="291" type="line"/>
      <point x="72" y="291"/>
      <point x="96" y="270"/>
      <point x="99" y="217" type="curve"/>
      <point x="99" y="58" type="line" smooth="yes"/>
      <point x="99" y="-75"/>
      <point x="181" y="-120"/>
      <point x="305" y="-120" type="curve" smooth="yes"/>
      <point x="332" y="-120" type="line"/>
      <point x="332" y="18" type="line"/>
      <point x="281" y="18"/>
      <point x="256" y="42"/>
      <point x="256" y="103" type="curve" smooth="yes"/>
      <point x="256" y="244" type="line" smooth="yes"/>
      <point x="256" y="301"/>
      <point x="235" y="338"/>
      <point x="196" y="360" type="curve"/>
      <point x="235" y="382"/>
      <point x="256" y="419"/>
      <point x="256" y="476" type="curve" smooth="yes"/>
      <point x="256" y="626" type="line" smooth="yes"/>
      <point x="258" y="680"/>
      <point x="283" y="702"/>
      <point x="332" y="702" type="curve"/>
    </contour>
  </outline>
</glyph>
<glyph name="bar" format="1">
  <advance width="261"/>
  <unicode hex="007C"/>
  <outline>
    <contour>
      <point x="54" y="-120" type="line"/>
      <point x="208" y="-120" type="line"/>
      <point x="208" y="840" type="line"/>
      <point x="54" y="840" type="line"/>
    </contour>
  </outline>
</glyph>
<glyph name="braceright" format="1">
  <advance width="365"/>
  <unicode hex="007D"/>
  <outline>
    <contour>
      <point x="33" y="-120" type="line"/>
      <point x="60" y="-120" type="line" smooth="yes"/>
      <point x="184" y="-120"/>
      <point x="266" y="-75"/>
      <point x="266" y="58" type="curve" smooth="yes"/>
      <point x="266" y="209" type="line" smooth="yes"/>
      <point x="266" y="268"/>
      <point x="290" y="291"/>
      <point x="341" y="291" type="curve"/>
      <point x="341" y="429" type="line"/>
      <point x="292" y="429"/>
      <point x="268" y="450"/>
      <point x="266" y="502" type="curve" smooth="yes"/>
      <point x="266" y="662" type="line" smooth="yes"/>
      <point x="266" y="795"/>
      <point x="184" y="840"/>
      <point x="60" y="840" type="curve" smooth="yes"/>
      <point x="33" y="840" type="line"/>
      <point x="33" y="702" type="line"/>
      <point x="84" y="702"/>
      <point x="109" y="678"/>
      <point x="109" y="617" type="curve" smooth="yes"/>
      <point x="109" y="476" type="line" smooth="yes"/>
      <point x="109" y="419"/>
      <point x="130" y="382"/>
      <point x="168" y="360" type="curve"/>
      <point x="130" y="338"/>
      <point x="109" y="301"/>
      <point x="109" y="244" type="curve" smooth="yes"/>
      <point x="109" y="103" type="line" smooth="yes"/>
      <point x="109" y="42"/>
      <point x="84" y="18"/>
      <point x="33" y="18" type="curve"/>
    </contour>
  </outline>
</glyph>
<glyph name="asciitilde" format="1">
  <advance width="600"/>
  <unicode hex="007E"/>
  <outline>
    <contour>
      <point x="184" y="482" type="curve" smooth="yes"/>
      <point x="113" y="482"/>
      <point x="60" y="438"/>
      <point x="28" y="387" type="curve"/>
      <point x="102" y="313" type="line"/>
      <point x="118" y="332"/>
      <point x="149" y="361"/>
      <point x="190" y="361" type="curve" smooth="yes"/>
      <point x="263" y="361"/>
      <point x="312" y="296"/>
      <point x="416" y="296" type="curve" smooth="yes"/>
      <point x="487" y="296"/>
      <point x="540" y="340"/>
      <point x="572" y="391" type="curve"/>
      <point x="498" y="465" type="line"/>
      <point x="482" y="446"/>
      <point x="451" y="417"/>
      <point x="410" y="417" type="curve" smooth="yes"/>
      <point x="337" y="417"/>
      <point x="288" y="482"/>
    </contour>
  </outline>
</glyph>
<glyph name="exclamdown" format="1">
  <advance width="265"/>
  <unicode hex="00A1"/>
  <outline>
    <contour>
      <point x="231" y="-200" type="line"/>
      <point x="189" y="302" type="line"/>
      <point x="77" y="302" type="line"/>
      <point x="35" y="-200" type="line"/>
    </contour>
    <contour>
      <point x="50" y="363" type="line"/>
      <point x="216" y="363" type="line"/>
      <point x="216" y="530" type="line"/>
      <point x="50" y="530" type="line"/>
    </contour>
  </outline>
</glyph>
<glyph name="cent" format="1">
  <advance width="600"/>
  <unicode hex="00A2"/>
  <outline>
    <contour>
      <point x="561" y="466" type="line"/>
      <point x="561" y="496" type="line" smooth="yes"/>
      <point x="561" y="606"/>
      <point x="518" y="678"/>
      <point x="433" y="711" type="curve"/>
      <point x="464" y="840" type="line"/>
      <point x="342" y="840" type="line"/>
      <point x="316" y="731" type="line"/>
      <point x="307" y="731" type="line" smooth="yes"/>
      <point x="122" y="731"/>
      <point x="39" y="621"/>
      <point x="39" y="409" type="curve" smooth="yes"/>
      <point x="39" y="371" type="line" smooth="yes"/>
      <point x="39" y="227"/>
      <point x="77" y="130"/>
      <point x="161" y="83" type="curve"/>
      <point x="127" y="-60" type="line"/>
      <point x="249" y="-60" type="line"/>
      <point x="275" y="51" type="line"/>
      <point x="285" y="50"/>
      <point x="296" y="50"/>
      <point x="307" y="50" type="curve" smooth="yes"/>
      <point x="476" y="50"/>
      <point x="561" y="128"/>
      <point x="561" y="278" type="curve" smooth="yes"/>
      <point x="561" y="294" type="line"/>
      <point x="405" y="294" type="line"/>
      <point x="405" y="232"/>
      <point x="381" y="189"/>
      <point x="314" y="189" type="curve" smooth="yes"/>
      <point x="307" y="189" type="line" smooth="yes"/>
      <point x="227" y="189"/>
      <point x="200" y="262"/>
      <point x="200" y="373" type="curve" smooth="yes"/>
      <point x="200" y="409" type="line" smooth="yes"/>
      <point x="200" y="520"/>
      <point x="227" y="593"/>
      <point x="307" y="593" type="curve" smooth="yes"/>
      <point x="314" y="593" type="line" smooth="yes"/>
      <point x="382" y="593"/>
      <point x="405" y="548"/>
      <point x="405" y="466" type="curve"/>
    </contour>
  </outline>
</glyph>
<glyph name="sterling" format="1">
  <advance width="600"/>
  <unicode hex="00A3"/>
  <outline>
    <contour>
      <point x="322" y="654" type="curve" smooth="yes"/>
      <point x="377" y="654"/>
      <point x="398" y="597"/>
      <point x="398" y="500" type="curve"/>
      <point x="557" y="500" type="line"/>
      <point x="557" y="517" type="line" smooth="yes"/>
      <point x="557" y="701"/>
      <point x="495" y="793"/>
      <point x="322" y="793" type="curve" smooth="yes"/>
      <point x="146" y="793"/>
      <point x="92" y="686"/>
      <point x="92" y="583" type="curve" smooth="yes"/>
      <point x="92" y="527"/>
      <point x="100" y="479"/>
      <point x="112" y="434" type="curve"/>
      <point x="44" y="434" type="line"/>
      <point x="44" y="297" type="line"/>
      <point x="157" y="297" type="line"/>
      <point x="174" y="248"/>
      <point x="189" y="197"/>
      <point x="197" y="139" type="curve"/>
      <point x="44" y="139" type="line"/>
      <point x="44" y="0" type="line"/>
      <point x="556" y="0" type="line"/>
      <point x="556" y="139" type="line"/>
      <point x="335" y="139" type="line"/>
      <point x="331" y="197"/>
      <point x="321" y="249"/>
      <point x="310" y="297" type="curve"/>
      <point x="450" y="297" type="line"/>
      <point x="450" y="434" type="line"/>
      <point x="274" y="434" type="line"/>
      <point x="261" y="483"/>
      <point x="252" y="527"/>
      <point x="252" y="570" type="curve" smooth="yes"/>
      <point x="252" y="621"/>
      <point x="272" y="654"/>
    </contour>
  </outline>
</glyph>
<glyph name="yen" format="1">
  <advance width="600"/>
  <unicode hex="00A5"/>
  <outline>
    <contour>
      <point x="41" y="342" type="line"/>
      <point x="190" y="342" type="line"/>
      <point x="216" y="280" type="line"/>
      <point x="41" y="280" type="line"/>
      <point x="41" y="142" type="line"/>
      <point x="219" y="142" type="line"/>
      <point x="219" y="0" type="line"/>
      <point x="381" y="0" type="line"/>
      <point x="381" y="142" type="line"/>
      <point x="559" y="142" type="line"/>
      <point x="559" y="280" type="line"/>
      <point x="383" y="280" type="line"/>
      <point x="409" y="342" type="line"/>
      <point x="559" y="342" type="line"/>
      <point x="559" y="480" type="line"/>
      <point x="467" y="480" type="line"/>
      <point x="593" y="780" type="line"/>
      <point x="415" y="780" type="line"/>
      <point x="300" y="446" type="line"/>
      <point x="185" y="780" type="line"/>
      <point x="7" y="780" type="line"/>
      <point x="132" y="480" type="line"/>
      <point x="41" y="480" type="line"/>
    </contour>
  </outline>
</glyph>
<glyph name="brokenbar" format="1">
  <advance width="261"/>
  <unicode hex="00A6"/>
  <outline>
    <contour>
      <point x="54" y="384" type="line"/>
      <point x="208" y="384" type="line"/>
      <point x="208" y="840" type="line"/>
      <point x="54" y="840" type="line"/>
    </contour>
    <contour>
      <point x="54" y="-120" type="line"/>
      <point x="208" y="-120" type="line"/>
      <point x="208" y="336" type="line"/>
      <point x="54" y="336" type="line"/>
    </contour>
  </outline>
</glyph>
<glyph name="section" format="1">
  <advance width="549"/>
  <unicode hex="00A7"/>
  <outline>
    <contour>
      <point x="518" y="393" type="curve" smooth="yes"/>
      <point x="518" y="402" type="line" smooth="yes"/>
      <point x="518" y="521"/>
      <point x="431" y="554"/>
      <point x="298" y="565" type="curve" smooth="yes"/>
      <point x="236" y="571"/>
      <point x="220" y="593"/>
      <point x="220" y="625" type="curve" smooth="yes"/>
      <point x="220" y="655"/>
      <point x="244" y="674"/>
      <point x="288" y="674" type="curve" smooth="yes"/>
      <point x="337" y="674"/>
      <point x="357" y="648"/>
      <point x="357" y="606" type="curve"/>
      <point x="511" y="606" type="line"/>
      <point x="511" y="611" type="line" smooth="yes"/>
      <point x="511" y="725"/>
      <point x="444" y="793"/>
      <point x="288" y="793" type="curve" smooth="yes"/>
      <point x="163" y="793"/>
      <point x="66" y="742"/>
      <point x="66" y="620" type="curve" smooth="yes"/>
      <point x="66" y="611" type="line" smooth="yes"/>
      <point x="66" y="570"/>
      <point x="77" y="537"/>
      <point x="100" y="512" type="curve"/>
      <point x="55" y="486"/>
      <point x="31" y="445"/>
      <point x="31" y="387" type="curve" smooth="yes"/>
      <point x="31" y="378" type="line" smooth="yes"/>
      <point x="31" y="259"/>
      <point x="118" y="226"/>
      <point x="251" y="215" type="curve" smooth="yes"/>
      <point x="312" y="209"/>
      <point x="328" y="187"/>
      <point x="328" y="155" type="curve" smooth="yes"/>
      <point x="328" y="125"/>
      <point x="304" y="106"/>
      <point x="260" y="106" type="curve" smooth="yes"/>
      <point x="212" y="106"/>
      <point x="192" y="132"/>
      <point x="192" y="174" type="curve"/>
      <point x="38" y="174" type="line"/>
      <point x="38" y="169" type="line" smooth="yes"/>
      <point x="38" y="55"/>
      <point x="105" y="-13"/>
      <point x="260" y="-13" type="curve" smooth="yes"/>
      <point x="386" y="-13"/>
      <point x="483" y="38"/>
      <point x="483" y="160" type="curve" smooth="yes"/>
      <point x="483" y="169" type="line" smooth="yes"/>
      <point x="483" y="209"/>
      <point x="471" y="242"/>
      <point x="448" y="267" type="curve"/>
      <point x="494" y="293"/>
      <point x="518" y="334"/>
    </contour>
    <contour>
      <point x="273" y="455" type="line" smooth="yes"/>
      <point x="336" y="453"/>
      <point x="360" y="430"/>
      <point x="360" y="390" type="curve" smooth="yes"/>
      <point x="360" y="355"/>
      <point x="337" y="327"/>
      <point x="284" y="325" type="curve" smooth="yes"/>
      <point x="275" y="325" type="line" smooth="yes"/>
      <point x="213" y="327"/>
      <point x="189" y="350"/>
      <point x="189" y="390" type="curve" smooth="yes"/>
      <point x="189" y="425"/>
      <point x="211" y="452"/>
      <point x="264" y="455" type="curve"/>
    </contour>
  </outline>
</glyph>
<glyph name="dieresis" format="1">
  <advance width="500"/>
  <unicode hex="00A8"/>
  <outline>
    <contour>
      <point x="225" y="772" type="line"/>
      <point x="60" y="772" type="line"/>
      <point x="60" y="606" type="line"/>
      <point x="225" y="606" type="line"/>
    </contour>
    <contour>
      <point x="440" y="772" type="line"/>
      <point x="275" y="772" type="line"/>
      <point x="275" y="606" type="line"/>
      <point x="440" y="606" type="line"/>
    </contour>
  </outline>
</glyph>
<glyph name="ordfeminine" format="1">
  <advance width="429"/>
  <unicode hex="00AA"/>
  <outline>
    <contour>
      <point x="279" y="387" type="line"/>
      <point x="403" y="387" type="line"/>
      <point x="396" y="499" type="line"/>
      <point x="396" y="641" type="line" smooth="yes"/>
      <point x="396" y="739"/>
      <point x="354" y="793"/>
      <point x="219" y="793" type="curve" smooth="yes"/>
      <point x="84" y="793"/>
      <point x="43" y="731"/>
      <point x="43" y="659" type="curve" smooth="yes"/>
      <point x="43" y="652" type="line"/>
      <point x="173" y="652" type="line"/>
      <point x="173" y="671"/>
      <point x="182" y="690"/>
      <point x="215" y="690" type="curve" smooth="yes"/>
      <point x="245" y="690"/>
      <point x="256" y="676"/>
      <point x="258" y="648" type="curve"/>
      <point x="174" y="635" type="line" smooth="yes"/>
      <point x="85" y="622"/>
      <point x="28" y="592"/>
      <point x="28" y="506" type="curve" smooth="yes"/>
      <point x="28" y="499" type="line" smooth="yes"/>
      <point x="28" y="435"/>
      <point x="58" y="377"/>
      <point x="152" y="377" type="curve" smooth="yes"/>
      <point x="205" y="377"/>
      <point x="244" y="397"/>
      <point x="271" y="427" type="curve"/>
    </contour>
    <contour>
      <point x="401" y="181" type="line"/>
      <point x="401" y="300" type="line"/>
      <point x="39" y="300" type="line"/>
      <point x="39" y="181" type="line"/>
    </contour>
    <contour>
      <point x="203" y="487" type="curve" smooth="yes"/>
      <point x="174" y="487"/>
      <point x="165" y="503"/>
      <point x="165" y="520" type="curve" smooth="yes"/>
      <point x="165" y="524" type="line" smooth="yes"/>
      <point x="165" y="542"/>
      <point x="176" y="557"/>
      <point x="203" y="561" type="curve" smooth="yes"/>
      <point x="258" y="570" type="line"/>
      <point x="258" y="509" type="line"/>
      <point x="246" y="499"/>
      <point x="226" y="487"/>
    </contour>
  </outline>
</glyph>
<glyph name="guillemotleft" format="1">
  <advance width="565"/>
  <unicode hex="00AB"/>
  <outline>
    <contour>
      <point x="266" y="563" type="line"/>
      <point x="50" y="416" type="line"/>
      <point x="50" y="264" type="line"/>
      <point x="266" y="117" type="line"/>
      <point x="266" y="256" type="line"/>
      <point x="157" y="340" type="line"/>
      <point x="266" y="424" type="line"/>
    </contour>
    <contour>
      <point x="515" y="563" type="line"/>
      <point x="299" y="416" type="line"/>
      <point x="299" y="264" type="line"/>
      <point x="515" y="117" type="line"/>
      <point x="515" y="256" type="line"/>
      <point x="406" y="340" type="line"/>
      <point x="515" y="424" type="line"/>
    </contour>
  </outline>
</glyph>
<glyph name="logicalnot" format="1">
  <advance width="600"/>
  <unicode hex="00AC"/>
  <outline>
    <contour>
      <point x="42" y="435" type="line"/>
      <point x="417" y="435" type="line"/>
      <point x="417" y="194" type="line"/>
      <point x="558" y="194" type="line"/>
      <point x="558" y="576" type="line"/>
      <point x="42" y="576" type="line"/>
    </contour>
  </outline>
</glyph>
<glyph name="uni00AD" format="1">
  <advance width="353"/>
  <unicode hex="00AD"/>
  <outline>
    <contour>
      <point x="40" y="281" type="line"/>
      <point x="313" y="281" type="line"/>
      <point x="313" y="419" type="line"/>
      <point x="40" y="419" type="line"/>
    </contour>
  </outline>
</glyph>
<glyph name="macron" format="1">
  <advance width="500"/>
  <unicode hex="00AF"/>
  <outline>
    <contour>
      <point x="100" y="619" type="line"/>
      <point x="400" y="619" type="line"/>
      <point x="400" y="757" type="line"/>
      <point x="100" y="757" type="line"/>
    </contour>
  </outline>
</glyph>
<glyph name="degree" format="1">
  <advance width="400"/>
  <unicode hex="00B0"/>
  <outline>
    <contour>
      <point x="266" y="627" type="line" smooth="yes"/>
      <point x="266" y="588"/>
      <point x="238" y="563"/>
      <point x="202" y="563" type="curve" smooth="yes"/>
      <point x="198" y="563" type="line" smooth="yes"/>
      <point x="162" y="563"/>
      <point x="134" y="588"/>
      <point x="134" y="627" type="curve" smooth="yes"/>
      <point x="134" y="633" type="line" smooth="yes"/>
      <point x="134" y="672"/>
      <point x="162" y="697"/>
      <point x="198" y="697" type="curve" smooth="yes"/>
      <point x="202" y="697" type="line" smooth="yes"/>
      <point x="238" y="697"/>
      <point x="266" y="672"/>
      <point x="266" y="633" type="curve" smooth="yes"/>
    </contour>
    <contour>
      <point x="362" y="632" type="line" smooth="yes"/>
      <point x="362" y="732"/>
      <point x="292" y="793"/>
      <point x="200" y="793" type="curve" smooth="yes"/>
      <point x="108" y="793"/>
      <point x="38" y="732"/>
      <point x="38" y="632" type="curve" smooth="yes"/>
      <point x="38" y="627" type="line" smooth="yes"/>
      <point x="38" y="528"/>
      <point x="108" y="466"/>
      <point x="200" y="466" type="curve" smooth="yes"/>
      <point x="292" y="466"/>
      <point x="362" y="528"/>
      <point x="362" y="627" type="curve" smooth="yes"/>
    </contour>
  </outline>
</glyph>
<glyph name="plusminus" format="1">
  <advance width="600"/>
  <unicode hex="00B1"/>
  <outline>
    <contour>
      <point x="230" y="673" type="line"/>
      <point x="230" y="565" type="line"/>
      <point x="42" y="565" type="line"/>
      <point x="42" y="424" type="line"/>
      <point x="230" y="424" type="line"/>
      <point x="230" y="316" type="line"/>
      <point x="370" y="316" type="line"/>
      <point x="370" y="424" type="line"/>
      <point x="558" y="424" type="line"/>
      <point x="558" y="565" type="line"/>
      <point x="370" y="565" type="line"/>
      <point x="370" y="673" type="line"/>
    </contour>
    <contour>
      <point x="42" y="136" type="line"/>
      <point x="558" y="136" type="line"/>
      <point x="558" y="277" type="line"/>
      <point x="42" y="277" type="line"/>
    </contour>
  </outline>
</glyph>
<glyph name="twosuperior" format="1">
  <advance width="300"/>
  <unicode hex="00B2"/>
  <outline>
    <contour>
      <point x="284" y="493" type="line"/>
      <point x="179" y="493" type="line"/>
      <point x="241" y="562" type="line" smooth="yes"/>
      <point x="269" y="594"/>
      <point x="284" y="616"/>
      <point x="284" y="659" type="curve" smooth="yes"/>
      <point x="284" y="677" type="line" smooth="yes"/>
      <point x="284" y="719"/>
      <point x="258" y="793"/>
      <point x="149" y="793" type="curve" smooth="yes"/>
      <point x="39" y="793"/>
      <point x="13" y="719"/>
      <point x="13" y="665" type="curve" smooth="yes"/>
      <point x="13" y="650" type="line"/>
      <point x="133" y="650" type="line"/>
      <point x="133" y="675"/>
      <point x="137" y="689"/>
      <point x="147" y="689" type="curve" smooth="yes"/>
      <point x="150" y="689" type="line" smooth="yes"/>
      <point x="160" y="689"/>
      <point x="164" y="673"/>
      <point x="164" y="662" type="curve" smooth="yes"/>
      <point x="164" y="651" type="line" smooth="yes"/>
      <point x="164" y="639"/>
      <point x="159" y="628"/>
      <point x="151" y="619" type="curve" smooth="yes"/>
      <point x="13" y="466" type="line"/>
      <point x="13" y="390" type="line"/>
      <point x="284" y="390" type="line"/>
    </contour>
  </outline>
</glyph>
<glyph name="threesuperior" format="1">
  <advance width="300"/>
  <unicode hex="00B3"/>
  <outline>
    <contour>
      <point x="131" y="515" type="curve"/>
      <point x="11" y="515" type="line"/>
      <point x="11" y="507" type="line" smooth="yes"/>
      <point x="11" y="428"/>
      <point x="65" y="377"/>
      <point x="150" y="377" type="curve" smooth="yes"/>
      <point x="235" y="377"/>
      <point x="288" y="424"/>
      <point x="288" y="492" type="curve" smooth="yes"/>
      <point x="288" y="502" type="line" smooth="yes"/>
      <point x="288" y="547"/>
      <point x="263" y="574"/>
      <point x="236" y="589" type="curve"/>
      <point x="262" y="603"/>
      <point x="284" y="629"/>
      <point x="284" y="674" type="curve" smooth="yes"/>
      <point x="284" y="684" type="line" smooth="yes"/>
      <point x="284" y="721"/>
      <point x="258" y="793"/>
      <point x="149" y="793" type="curve" smooth="yes"/>
      <point x="39" y="793"/>
      <point x="13" y="719"/>
      <point x="13" y="659" type="curve" smooth="yes"/>
      <point x="13" y="650" type="line"/>
      <point x="133" y="650" type="line"/>
      <point x="133" y="675"/>
      <point x="137" y="689"/>
      <point x="147" y="689" type="curve" smooth="yes"/>
      <point x="150" y="689" type="line" smooth="yes"/>
      <point x="160" y="689"/>
      <point x="164" y="671"/>
      <point x="164" y="664" type="curve" smooth="yes"/>
      <point x="164" y="662" type="line" smooth="yes"/>
      <point x="164" y="646"/>
      <point x="160" y="637"/>
      <point x="149" y="637" type="curve" smooth="yes"/>
      <point x="100" y="637" type="line"/>
      <point x="100" y="541" type="line"/>
      <point x="150" y="541" type="line" smooth="yes"/>
      <point x="163" y="541"/>
      <point x="169" y="531"/>
      <point x="169" y="516" type="curve" smooth="yes"/>
      <point x="169" y="511" type="line" smooth="yes"/>
      <point x="169" y="491"/>
      <point x="159" y="481"/>
      <point x="152" y="481" type="curve" smooth="yes"/>
      <point x="149" y="481" type="line" smooth="yes"/>
      <point x="142" y="481"/>
      <point x="131" y="489"/>
    </contour>
  </outline>
</glyph>
<glyph name="acute" format="1">
  <advance width="500"/>
  <unicode hex="00B4"/>
  <outline>
    <contour>
      <point x="263" y="780" type="line"/>
      <point x="172" y="596" type="line"/>
      <point x="328" y="596" type="line"/>
      <point x="435" y="780" type="line"/>
    </contour>
  </outline>
</glyph>
<glyph name="paragraph" format="1">
  <advance width="549"/>
  <unicode hex="00B6"/>
  <outline>
    <contour>
      <point x="333" y="0" type="line"/>
      <point x="495" y="0" type="line"/>
      <point x="495" y="780" type="line"/>
      <point x="296" y="780" type="line" smooth="yes"/>
      <point x="169" y="780"/>
      <point x="25" y="747"/>
      <point x="25" y="540" type="curve" smooth="yes"/>
      <point x="25" y="520" type="line" smooth="yes"/>
      <point x="25" y="312"/>
      <point x="169" y="280"/>
      <point x="296" y="280" type="curve" smooth="yes"/>
      <point x="333" y="280" type="line"/>
    </contour>
  </outline>
</glyph>
<glyph name="periodcentered" format="1">
  <advance width="266"/>
  <unicode hex="00B7"/>
  <outline>
    <contour>
      <point x="216" y="434" type="line"/>
      <point x="50" y="434" type="line"/>
      <point x="50" y="267" type="line"/>
      <point x="216" y="267" type="line"/>
    </contour>
  </outline>
</glyph>
<glyph name="cedilla" format="1">
  <advance width="602"/>
  <unicode hex="00B8"/>
  <outline>
    <contour>
      <point x="144" y="-190" type="line"/>
      <point x="163" y="-202"/>
      <point x="202" y="-215"/>
      <point x="251" y="-215" type="curve" smooth="yes"/>
      <point x="330" y="-215"/>
      <point x="371" y="-184"/>
      <point x="371" y="-127" type="curve" smooth="yes"/>
      <point x="371" y="-71"/>
      <point x="327" y="-44"/>
      <point x="271" y="-40" type="curve"/>
      <point x="286" y="0" type="line"/>
      <point x="214" y="0" type="line"/>
      <point x="185" y="-72" type="line"/>
      <point x="200" y="-100" type="line"/>
      <point x="200" y="-100"/>
      <point x="220" y="-95"/>
      <point x="238" y="-95" type="curve" smooth="yes"/>
      <point x="270" y="-95"/>
      <point x="286" y="-103"/>
      <point x="286" y="-118" type="curve" smooth="yes"/>
      <point x="286" y="-132"/>
      <point x="274" y="-141"/>
      <point x="239" y="-141" type="curve" smooth="yes"/>
      <point x="213" y="-141"/>
      <point x="183" y="-134"/>
      <point x="167" y="-124" type="curve"/>
    </contour>
  </outline>
</glyph>
<glyph name="onesuperior" format="1">
  <advance width="300"/>
  <unicode hex="00B9"/>
  <outline>
    <contour>
      <point x="290" y="390" type="line"/>
      <point x="290" y="493" type="line"/>
      <point x="219" y="493" type="line"/>
      <point x="219" y="781" type="line"/>
      <point x="129" y="781" type="line"/>
      <point x="5" y="697" type="line"/>
      <point x="64" y="612" type="line"/>
      <point x="99" y="635" type="line"/>
      <point x="99" y="493" type="line"/>
      <point x="27" y="493" type="line"/>
      <point x="27" y="390" type="line"/>
    </contour>
  </outline>
</glyph>
<glyph name="ordmasculine" format="1">
  <advance width="443"/>
  <unicode hex="00BA"/>
  <outline>
    <contour>
      <point x="412" y="570" type="curve" smooth="yes"/>
      <point x="412" y="600" type="line" smooth="yes"/>
      <point x="412" y="716"/>
      <point x="352" y="794"/>
      <point x="221" y="794" type="curve" smooth="yes"/>
      <point x="90" y="794"/>
      <point x="31" y="716"/>
      <point x="31" y="600" type="curve" smooth="yes"/>
      <point x="31" y="570" type="line" smooth="yes"/>
      <point x="31" y="455"/>
      <point x="90" y="377"/>
      <point x="221" y="377" type="curve" smooth="yes"/>
      <point x="352" y="377"/>
      <point x="412" y="455"/>
    </contour>
    <contour>
      <point x="40" y="181" type="line"/>
      <point x="403" y="181" type="line"/>
      <point x="403" y="300" type="line"/>
      <point x="40" y="300" type="line"/>
    </contour>
    <contour>
      <point x="168" y="570" type="curve" smooth="yes"/>
      <point x="168" y="600" type="line" smooth="yes"/>
      <point x="168" y="649"/>
      <point x="184" y="676"/>
      <point x="221" y="676" type="curve" smooth="yes"/>
      <point x="259" y="676"/>
      <point x="275" y="649"/>
      <point x="275" y="600" type="curve" smooth="yes"/>
      <point x="275" y="570" type="line" smooth="yes"/>
      <point x="275" y="522"/>
      <point x="259" y="495"/>
      <point x="221" y="495" type="curve" smooth="yes"/>
      <point x="184" y="495"/>
      <point x="168" y="522"/>
    </contour>
  </outline>
</glyph>
<glyph name="guillemotright" format="1">
  <advance width="565"/>
  <unicode hex="00BB"/>
  <outline>
    <contour>
      <point x="299" y="424" type="line"/>
      <point x="408" y="340" type="line"/>
      <point x="299" y="256" type="line"/>
      <point x="299" y="117" type="line"/>
      <point x="515" y="264" type="line"/>
      <point x="515" y="416" type="line"/>
      <point x="299" y="563" type="line"/>
    </contour>
    <contour>
      <point x="50" y="424" type="line"/>
      <point x="159" y="340" type="line"/>
      <point x="50" y="256" type="line"/>
      <point x="50" y="117" type="line"/>
      <point x="266" y="264" type="line"/>
      <point x="266" y="416" type="line"/>
      <point x="50" y="563" type="line"/>
    </contour>
  </outline>
</glyph>
<glyph name="onequarter" format="1">
  <advance width="800"/>
  <unicode hex="00BC"/>
  <outline>
    <contour>
      <point x="179" y="0" type="line"/>
      <point x="755" y="780" type="line"/>
      <point x="621" y="780" type="line"/>
      <point x="45" y="0" type="line"/>
    </contour>
    <contour>
      <point x="757" y="0" type="line"/>
      <point x="757" y="68" type="line"/>
      <point x="789" y="68" type="line"/>
      <point x="789" y="172" type="line"/>
      <point x="757" y="172" type="line"/>
      <point x="757" y="390" type="line"/>
      <point x="636" y="390" type="line"/>
      <point x="510" y="160" type="line"/>
      <point x="510" y="68" type="line"/>
      <point x="637" y="68" type="line"/>
      <point x="637" y="0" type="line"/>
    </contour>
    <contour>
      <point x="290" y="390" type="line"/>
      <point x="290" y="493" type="line"/>
      <point x="219" y="493" type="line"/>
      <point x="219" y="781" type="line"/>
      <point x="129" y="781" type="line"/>
      <point x="5" y="697" type="line"/>
      <point x="64" y="612" type="line"/>
      <point x="99" y="635" type="line"/>
      <point x="99" y="493" type="line"/>
      <point x="27" y="493" type="line"/>
      <point x="27" y="390" type="line"/>
    </contour>
    <contour>
      <point x="637" y="229" type="line"/>
      <point x="637" y="172" type="line"/>
      <point x="606" y="172" type="line"/>
    </contour>
  </outline>
</glyph>
<glyph name="onehalf" format="1">
  <advance width="800"/>
  <unicode hex="00BD"/>
  <outline>
    <contour>
      <point x="179" y="0" type="line"/>
      <point x="755" y="780" type="line"/>
      <point x="621" y="780" type="line"/>
      <point x="45" y="0" type="line"/>
    </contour>
    <contour>
      <point x="784" y="103" type="line"/>
      <point x="679" y="103" type="line"/>
      <point x="741" y="172" type="line" smooth="yes"/>
      <point x="769" y="204"/>
      <point x="784" y="226"/>
      <point x="784" y="269" type="curve" smooth="yes"/>
      <point x="784" y="287" type="line" smooth="yes"/>
      <point x="784" y="329"/>
      <point x="758" y="403"/>
      <point x="649" y="403" type="curve" smooth="yes"/>
      <point x="539" y="403"/>
      <point x="513" y="329"/>
      <point x="513" y="275" type="curve" smooth="yes"/>
      <point x="513" y="260" type="line"/>
      <point x="633" y="260" type="line"/>
      <point x="633" y="285"/>
      <point x="637" y="299"/>
      <point x="647" y="299" type="curve" smooth="yes"/>
      <point x="650" y="299" type="line" smooth="yes"/>
      <point x="660" y="299"/>
      <point x="664" y="283"/>
      <point x="664" y="272" type="curve" smooth="yes"/>
      <point x="664" y="261" type="line" smooth="yes"/>
      <point x="664" y="249"/>
      <point x="659" y="238"/>
      <point x="651" y="229" type="curve" smooth="yes"/>
      <point x="513" y="76" type="line"/>
      <point x="513" y="0" type="line"/>
      <point x="784" y="0" type="line"/>
    </contour>
    <contour>
      <point x="290" y="390" type="line"/>
      <point x="290" y="493" type="line"/>
      <point x="219" y="493" type="line"/>
      <point x="219" y="781" type="line"/>
      <point x="129" y="781" type="line"/>
      <point x="5" y="697" type="line"/>
      <point x="64" y="612" type="line"/>
      <point x="99" y="635" type="line"/>
      <point x="99" y="493" type="line"/>
      <point x="27" y="493" type="line"/>
      <point x="27" y="390" type="line"/>
    </contour>
  </outline>
</glyph>
<glyph name="threequarters" format="1">
  <advance width="800"/>
  <unicode hex="00BE"/>
  <outline>
    <contour>
      <point x="179" y="0" type="line"/>
      <point x="755" y="780" type="line"/>
      <point x="621" y="780" type="line"/>
      <point x="45" y="0" type="line"/>
    </contour>
    <contour>
      <point x="131" y="515" type="curve"/>
      <point x="11" y="515" type="line"/>
      <point x="11" y="507" type="line" smooth="yes"/>
      <point x="11" y="428"/>
      <point x="65" y="377"/>
      <point x="150" y="377" type="curve" smooth="yes"/>
      <point x="235" y="377"/>
      <point x="288" y="424"/>
      <point x="288" y="492" type="curve" smooth="yes"/>
      <point x="288" y="502" type="line" smooth="yes"/>
      <point x="288" y="547"/>
      <point x="263" y="574"/>
      <point x="236" y="589" type="curve"/>
      <point x="262" y="603"/>
      <point x="284" y="629"/>
      <point x="284" y="674" type="curve" smooth="yes"/>
      <point x="284" y="684" type="line" smooth="yes"/>
      <point x="284" y="721"/>
      <point x="258" y="793"/>
      <point x="149" y="793" type="curve" smooth="yes"/>
      <point x="39" y="793"/>
      <point x="13" y="719"/>
      <point x="13" y="659" type="curve" smooth="yes"/>
      <point x="13" y="650" type="line"/>
      <point x="133" y="650" type="line"/>
      <point x="133" y="675"/>
      <point x="137" y="689"/>
      <point x="147" y="689" type="curve" smooth="yes"/>
      <point x="150" y="689" type="line" smooth="yes"/>
      <point x="160" y="689"/>
      <point x="164" y="671"/>
      <point x="164" y="664" type="curve" smooth="yes"/>
      <point x="164" y="662" type="line" smooth="yes"/>
      <point x="164" y="646"/>
      <point x="160" y="637"/>
      <point x="149" y="637" type="curve" smooth="yes"/>
      <point x="100" y="637" type="line"/>
      <point x="100" y="541" type="line"/>
      <point x="150" y="541" type="line" smooth="yes"/>
      <point x="163" y="541"/>
      <point x="169" y="531"/>
      <point x="169" y="516" type="curve" smooth="yes"/>
      <point x="169" y="511" type="line" smooth="yes"/>
      <point x="169" y="491"/>
      <point x="159" y="481"/>
      <point x="152" y="481" type="curve" smooth="yes"/>
      <point x="149" y="481" type="line" smooth="yes"/>
      <point x="142" y="481"/>
      <point x="131" y="489"/>
    </contour>
    <contour>
      <point x="757" y="0" type="line"/>
      <point x="757" y="68" type="line"/>
      <point x="789" y="68" type="line"/>
      <point x="789" y="172" type="line"/>
      <point x="757" y="172" type="line"/>
      <point x="757" y="390" type="line"/>
      <point x="636" y="390" type="line"/>
      <point x="510" y="160" type="line"/>
      <point x="510" y="68" type="line"/>
      <point x="637" y="68" type="line"/>
      <point x="637" y="0" type="line"/>
    </contour>
    <contour>
      <point x="637" y="229" type="line"/>
      <point x="637" y="172" type="line"/>
      <point x="606" y="172" type="line"/>
    </contour>
  </outline>
</glyph>
<glyph name="questiondown" format="1">
  <advance width="497"/>
  <unicode hex="00BF"/>
  <outline>
    <contour>
      <point x="244" y="-74" type="curve" smooth="yes"/>
      <point x="196" y="-74"/>
      <point x="177" y="-52"/>
      <point x="177" y="-13" type="curve" smooth="yes"/>
      <point x="177" y="68"/>
      <point x="321" y="150"/>
      <point x="308" y="302" type="curve"/>
      <point x="197" y="302" type="line"/>
      <point x="184" y="150"/>
      <point x="18" y="167"/>
      <point x="18" y="-26" type="curve" smooth="yes"/>
      <point x="18" y="-118"/>
      <point x="70" y="-213"/>
      <point x="244" y="-213" type="curve" smooth="yes"/>
      <point x="417" y="-213"/>
      <point x="475" y="-123"/>
      <point x="475" y="43" type="curve" smooth="yes"/>
      <point x="475" y="60" type="line"/>
      <point x="317" y="60" type="line"/>
      <point x="317" y="-35"/>
      <point x="299" y="-74"/>
    </contour>
    <contour>
      <point x="169" y="363" type="line"/>
      <point x="335" y="363" type="line"/>
      <point x="335" y="530" type="line"/>
      <point x="169" y="530" type="line"/>
    </contour>
  </outline>
</glyph>
<glyph name="Aacute" format="1">
  <advance width="641"/>
  <unicode hex="00C1"/>
  <outline>
    <contour>
      <point x="209" y="782" type="line"/>
      <point x="14" y="0" type="line"/>
      <point x="188" y="0" type="line"/>
      <point x="225" y="168" type="line"/>
      <point x="416" y="168" type="line"/>
      <point x="454" y="0" type="line"/>
      <point x="627" y="0" type="line"/>
      <point x="432" y="782" type="line"/>
    </contour>
    <contour>
      <point x="320" y="595" type="line"/>
      <point x="384" y="308" type="line"/>
      <point x="256" y="308" type="line"/>
    </contour>
    <contour>
      <point x="297" y="950" type="line"/>
      <point x="242" y="840" type="line"/>
      <point x="398" y="840" type="line"/>
      <point x="462" y="950" type="line"/>
    </contour>
  </outline>
</glyph>
<glyph name="Acircumflex" format="1">
  <advance width="641"/>
  <unicode hex="00C2"/>
  <outline>
    <contour>
      <point x="209" y="782" type="line"/>
      <point x="14" y="0" type="line"/>
      <point x="188" y="0" type="line"/>
      <point x="225" y="168" type="line"/>
      <point x="416" y="168" type="line"/>
      <point x="454" y="0" type="line"/>
      <point x="627" y="0" type="line"/>
      <point x="432" y="782" type="line"/>
    </contour>
    <contour>
      <point x="258" y="840" type="line"/>
      <point x="320" y="884" type="line"/>
      <point x="382" y="840" type="line"/>
      <point x="524" y="840" type="line"/>
      <point x="400" y="950" type="line"/>
      <point x="240" y="950" type="line"/>
      <point x="116" y="840" type="line"/>
    </contour>
    <contour>
      <point x="320" y="595" type="line"/>
      <point x="384" y="308" type="line"/>
      <point x="256" y="308" type="line"/>
    </contour>
  </outline>
</glyph>
<glyph name="Atilde" format="1">
  <advance width="641"/>
  <unicode hex="00C3"/>
  <outline>
    <contour>
      <point x="209" y="782" type="line"/>
      <point x="14" y="0" type="line"/>
      <point x="188" y="0" type="line"/>
      <point x="225" y="168" type="line"/>
      <point x="416" y="168" type="line"/>
      <point x="454" y="0" type="line"/>
      <point x="627" y="0" type="line"/>
      <point x="432" y="782" type="line"/>
    </contour>
    <contour>
      <point x="420" y="947" type="line"/>
      <point x="420" y="921"/>
      <point x="405" y="914"/>
      <point x="387" y="914" type="curve" smooth="yes"/>
      <point x="349" y="914"/>
      <point x="302" y="962"/>
      <point x="238" y="962" type="curve" smooth="yes"/>
      <point x="184" y="962"/>
      <point x="135" y="931"/>
      <point x="135" y="843" type="curve"/>
      <point x="220" y="843" type="line"/>
      <point x="220" y="869"/>
      <point x="235" y="876"/>
      <point x="253" y="876" type="curve" smooth="yes"/>
      <point x="291" y="876"/>
      <point x="338" y="828"/>
      <point x="402" y="828" type="curve" smooth="yes"/>
      <point x="456" y="828"/>
      <point x="505" y="859"/>
      <point x="505" y="947" type="curve"/>
    </contour>
    <contour>
      <point x="320" y="595" type="line"/>
      <point x="384" y="308" type="line"/>
      <point x="256" y="308" type="line"/>
    </contour>
  </outline>
</glyph>
<glyph name="Adieresis" format="1">
  <advance width="641"/>
  <unicode hex="00C4"/>
  <outline>
    <contour>
      <point x="209" y="782" type="line"/>
      <point x="14" y="0" type="line"/>
      <point x="188" y="0" type="line"/>
      <point x="225" y="168" type="line"/>
      <point x="416" y="168" type="line"/>
      <point x="454" y="0" type="line"/>
      <point x="627" y="0" type="line"/>
      <point x="432" y="782" type="line"/>
    </contour>
    <contour>
      <point x="320" y="595" type="line"/>
      <point x="384" y="308" type="line"/>
      <point x="256" y="308" type="line"/>
    </contour>
    <contour>
      <point x="299" y="945" type="line"/>
      <point x="166" y="945" type="line"/>
      <point x="166" y="845" type="line"/>
      <point x="299" y="845" type="line"/>
    </contour>
    <contour>
      <point x="474" y="945" type="line"/>
      <point x="341" y="945" type="line"/>
      <point x="341" y="845" type="line"/>
      <point x="474" y="845" type="line"/>
    </contour>
  </outline>
</glyph>
<glyph name="Aring" format="1">
  <advance width="641"/>
  <unicode hex="00C5"/>
  <outline>
    <contour>
      <point x="215" y="858" type="curve" smooth="yes"/>
      <point x="215" y="828"/>
      <point x="227" y="801"/>
      <point x="247" y="782" type="curve"/>
      <point x="209" y="782" type="line"/>
      <point x="14" y="0" type="line"/>
      <point x="188" y="0" type="line"/>
      <point x="225" y="168" type="line"/>
      <point x="416" y="168" type="line"/>
      <point x="454" y="0" type="line"/>
      <point x="627" y="0" type="line"/>
      <point x="432" y="782" type="line"/>
      <point x="393" y="782" type="line"/>
      <point x="412" y="801"/>
      <point x="425" y="828"/>
      <point x="425" y="858" type="curve" smooth="yes"/>
      <point x="425" y="916"/>
      <point x="378" y="963"/>
      <point x="320" y="963" type="curve" smooth="yes"/>
      <point x="262" y="963"/>
      <point x="215" y="916"/>
    </contour>
    <contour>
      <point x="320" y="595" type="line"/>
      <point x="384" y="308" type="line"/>
      <point x="256" y="308" type="line"/>
    </contour>
    <contour>
      <point x="269" y="858" type="curve" smooth="yes"/>
      <point x="269" y="886"/>
      <point x="292" y="908"/>
      <point x="320" y="908" type="curve" smooth="yes"/>
      <point x="348" y="908"/>
      <point x="371" y="886"/>
      <point x="371" y="858" type="curve" smooth="yes"/>
      <point x="371" y="830"/>
      <point x="348" y="807"/>
      <point x="320" y="807" type="curve" smooth="yes"/>
      <point x="292" y="807"/>
      <point x="269" y="830"/>
    </contour>
  </outline>
</glyph>
<glyph name="AE" format="1">
  <advance width="885"/>
  <unicode hex="00C6"/>
  <outline>
    <contour>
      <point x="280" y="780" type="line"/>
      <point x="8" y="0" type="line"/>
      <point x="182" y="0" type="line"/>
      <point x="236" y="170" type="line"/>
      <point x="418" y="170" type="line"/>
      <point x="437" y="0" type="line"/>
      <point x="845" y="0" type="line"/>
      <point x="845" y="140" type="line"/>
      <point x="590" y="140" type="line"/>
      <point x="564" y="328" type="line"/>
      <point x="795" y="328" type="line"/>
      <point x="795" y="468" type="line"/>
      <point x="544" y="468" type="line"/>
      <point x="521" y="640" type="line"/>
      <point x="845" y="640" type="line"/>
      <point x="845" y="780" type="line"/>
    </contour>
    <contour>
      <point x="371" y="594" type="line"/>
      <point x="402" y="310" type="line"/>
      <point x="280" y="310" type="line"/>
    </contour>
  </outline>
</glyph>
<glyph name="Ccedilla" format="1">
  <advance width="650"/>
  <unicode hex="00C7"/>
  <outline>
    <contour>
      <point x="235" y="-190" type="line"/>
      <point x="254" y="-202"/>
      <point x="293" y="-215"/>
      <point x="342" y="-215" type="curve" smooth="yes"/>
      <point x="421" y="-215"/>
      <point x="462" y="-184"/>
      <point x="462" y="-127" type="curve" smooth="yes"/>
      <point x="462" y="-71"/>
      <point x="418" y="-44"/>
      <point x="362" y="-40" type="curve"/>
      <point x="373" y="-11" type="line"/>
      <point x="531" y="0"/>
      <point x="611" y="80"/>
      <point x="611" y="257" type="curve" smooth="yes"/>
      <point x="611" y="266" type="line"/>
      <point x="449" y="266" type="line"/>
      <point x="449" y="182"/>
      <point x="420" y="127"/>
      <point x="341" y="127" type="curve" smooth="yes"/>
      <point x="332" y="127" type="line" smooth="yes"/>
      <point x="228" y="127"/>
      <point x="203" y="214"/>
      <point x="203" y="370" type="curve" smooth="yes"/>
      <point x="203" y="410" type="line" smooth="yes"/>
      <point x="203" y="566"/>
      <point x="228" y="653"/>
      <point x="332" y="653" type="curve" smooth="yes"/>
      <point x="341" y="653" type="line" smooth="yes"/>
      <point x="426" y="653"/>
      <point x="449" y="591"/>
      <point x="449" y="484" type="curve"/>
      <point x="611" y="484" type="line"/>
      <point x="611" y="520" type="line" smooth="yes"/>
      <point x="611" y="715"/>
      <point x="517" y="793"/>
      <point x="332" y="793" type="curve" smooth="yes"/>
      <point x="129" y="793"/>
      <point x="39" y="680"/>
      <point x="39" y="410" type="curve" smooth="yes"/>
      <point x="39" y="370" type="line" smooth="yes"/>
      <point x="39" y="114"/>
      <point x="119" y="0"/>
      <point x="300" y="-12" type="curve"/>
      <point x="276" y="-72" type="line"/>
      <point x="291" y="-100" type="line"/>
      <point x="291" y="-100"/>
      <point x="311" y="-95"/>
      <point x="329" y="-95" type="curve" smooth="yes"/>
      <point x="361" y="-95"/>
      <point x="377" y="-103"/>
      <point x="377" y="-118" type="curve" smooth="yes"/>
      <point x="377" y="-132"/>
      <point x="365" y="-141"/>
      <point x="330" y="-141" type="curve" smooth="yes"/>
      <point x="304" y="-141"/>
      <point x="274" y="-134"/>
      <point x="258" y="-124" type="curve"/>
    </contour>
  </outline>
</glyph>
<glyph name="Egrave" format="1">
  <advance width="573"/>
  <unicode hex="00C8"/>
  <outline>
    <contour>
      <point x="56" y="780" type="line"/>
      <point x="56" y="0" type="line"/>
      <point x="533" y="0" type="line"/>
      <point x="533" y="140" type="line"/>
      <point x="218" y="140" type="line"/>
      <point x="218" y="328" type="line"/>
      <point x="483" y="328" type="line"/>
      <point x="483" y="468" type="line"/>
      <point x="218" y="468" type="line"/>
      <point x="218" y="640" type="line"/>
      <point x="533" y="640" type="line"/>
      <point x="533" y="780" type="line"/>
    </contour>
    <contour>
      <point x="154" y="950" type="line"/>
      <point x="218" y="840" type="line"/>
      <point x="374" y="840" type="line"/>
      <point x="319" y="950" type="line"/>
    </contour>
  </outline>
</glyph>
<glyph name="Eacute" format="1">
  <advance width="573"/>
  <unicode hex="00C9"/>
  <outline>
    <contour>
      <point x="56" y="780" type="line"/>
      <point x="56" y="0" type="line"/>
      <point x="533" y="0" type="line"/>
      <point x="533" y="140" type="line"/>
      <point x="218" y="140" type="line"/>
      <point x="218" y="328" type="line"/>
      <point x="483" y="328" type="line"/>
      <point x="483" y="468" type="line"/>
      <point x="218" y="468" type="line"/>
      <point x="218" y="640" type="line"/>
      <point x="533" y="640" type="line"/>
      <point x="533" y="780" type="line"/>
    </contour>
    <contour>
      <point x="273" y="950" type="line"/>
      <point x="218" y="840" type="line"/>
      <point x="374" y="840" type="line"/>
      <point x="438" y="950" type="line"/>
    </contour>
  </outline>
</glyph>
<glyph name="Ecircumflex" format="1">
  <advance width="573"/>
  <unicode hex="00CA"/>
  <outline>
    <contour>
      <point x="56" y="780" type="line"/>
      <point x="56" y="0" type="line"/>
      <point x="533" y="0" type="line"/>
      <point x="533" y="140" type="line"/>
      <point x="218" y="140" type="line"/>
      <point x="218" y="328" type="line"/>
      <point x="483" y="328" type="line"/>
      <point x="483" y="468" type="line"/>
      <point x="218" y="468" type="line"/>
      <point x="218" y="640" type="line"/>
      <point x="533" y="640" type="line"/>
      <point x="533" y="780" type="line"/>
    </contour>
    <contour>
      <point x="234" y="840" type="line"/>
      <point x="296" y="884" type="line"/>
      <point x="358" y="840" type="line"/>
      <point x="500" y="840" type="line"/>
      <point x="376" y="950" type="line"/>
      <point x="216" y="950" type="line"/>
      <point x="92" y="840" type="line"/>
    </contour>
  </outline>
</glyph>
<glyph name="Edieresis" format="1">
  <advance width="573"/>
  <unicode hex="00CB"/>
  <outline>
    <contour>
      <point x="56" y="780" type="line"/>
      <point x="56" y="0" type="line"/>
      <point x="533" y="0" type="line"/>
      <point x="533" y="140" type="line"/>
      <point x="218" y="140" type="line"/>
      <point x="218" y="328" type="line"/>
      <point x="483" y="328" type="line"/>
      <point x="483" y="468" type="line"/>
      <point x="218" y="468" type="line"/>
      <point x="218" y="640" type="line"/>
      <point x="533" y="640" type="line"/>
      <point x="533" y="780" type="line"/>
    </contour>
    <contour>
      <point x="275" y="945" type="line"/>
      <point x="142" y="945" type="line"/>
      <point x="142" y="845" type="line"/>
      <point x="275" y="845" type="line"/>
    </contour>
    <contour>
      <point x="450" y="945" type="line"/>
      <point x="317" y="945" type="line"/>
      <point x="317" y="845" type="line"/>
      <point x="450" y="845" type="line"/>
    </contour>
  </outline>
</glyph>
<glyph name="Igrave" format="1">
  <advance width="283"/>
  <unicode hex="00CC"/>
  <outline>
    <contour>
      <point x="223" y="780" type="line"/>
      <point x="61" y="780" type="line"/>
      <point x="61" y="0" type="line"/>
      <point x="223" y="0" type="line"/>
    </contour>
    <contour>
      <point x="0" y="950" type="line"/>
      <point x="64" y="840" type="line"/>
      <point x="220" y="840" type="line"/>
      <point x="165" y="950" type="line"/>
    </contour>
  </outline>
</glyph>
<glyph name="Iacute" format="1">
  <advance width="283"/>
  <unicode hex="00CD"/>
  <outline>
    <contour>
      <point x="223" y="780" type="line"/>
      <point x="61" y="780" type="line"/>
      <point x="61" y="0" type="line"/>
      <point x="223" y="0" type="line"/>
    </contour>
    <contour>
      <point x="119" y="950" type="line"/>
      <point x="64" y="840" type="line"/>
      <point x="220" y="840" type="line"/>
      <point x="284" y="950" type="line"/>
    </contour>
  </outline>
</glyph>
<glyph name="Icircumflex" format="1">
  <advance width="283"/>
  <unicode hex="00CE"/>
  <outline>
    <contour>
      <point x="223" y="780" type="line"/>
      <point x="61" y="780" type="line"/>
      <point x="61" y="0" type="line"/>
      <point x="223" y="0" type="line"/>
    </contour>
    <contour>
      <point x="80" y="840" type="line"/>
      <point x="142" y="884" type="line"/>
      <point x="204" y="840" type="line"/>
      <point x="346" y="840" type="line"/>
      <point x="222" y="950" type="line"/>
      <point x="62" y="950" type="line"/>
      <point x="-62" y="840" type="line"/>
    </contour>
  </outline>
</glyph>
<glyph name="Idieresis" format="1">
  <advance width="283"/>
  <unicode hex="00CF"/>
  <outline>
    <contour>
      <point x="223" y="780" type="line"/>
      <point x="61" y="780" type="line"/>
      <point x="61" y="0" type="line"/>
      <point x="223" y="0" type="line"/>
    </contour>
    <contour>
      <point x="296" y="945" type="line"/>
      <point x="163" y="945" type="line"/>
      <point x="163" y="845" type="line"/>
      <point x="296" y="845" type="line"/>
    </contour>
    <contour>
      <point x="121" y="945" type="line"/>
      <point x="-12" y="945" type="line"/>
      <point x="-12" y="845" type="line"/>
      <point x="121" y="845" type="line"/>
    </contour>
  </outline>
</glyph>
<glyph name="Eth" format="1">
  <advance width="723"/>
  <unicode hex="00D0"/>
  <outline>
    <contour>
      <point x="12" y="339" type="line"/>
      <point x="116" y="339" type="line"/>
      <point x="116" y="0" type="line"/>
      <point x="355" y="0" type="line" smooth="yes"/>
      <point x="587" y="0"/>
      <point x="684" y="100"/>
      <point x="684" y="370" type="curve" smooth="yes"/>
      <point x="684" y="410" type="line" smooth="yes"/>
      <point x="684" y="680"/>
      <point x="587" y="780"/>
      <point x="355" y="780" type="curve" smooth="yes"/>
      <point x="116" y="780" type="line"/>
      <point x="116" y="460" type="line"/>
      <point x="12" y="460" type="line"/>
    </contour>
    <contour>
      <point x="278" y="640" type="line"/>
      <point x="346" y="640" type="line" smooth="yes"/>
      <point x="481" y="640"/>
      <point x="519" y="566"/>
      <point x="519" y="410" type="curve" smooth="yes"/>
      <point x="519" y="370" type="line" smooth="yes"/>
      <point x="519" y="214"/>
      <point x="481" y="140"/>
      <point x="346" y="140" type="curve" smooth="yes"/>
      <point x="278" y="140" type="line"/>
      <point x="278" y="339" type="line"/>
      <point x="443" y="339" type="line"/>
      <point x="443" y="460" type="line"/>
      <point x="278" y="460" type="line"/>
    </contour>
  </outline>
</glyph>
<glyph name="Ntilde" format="1">
  <advance width="683"/>
  <unicode hex="00D1"/>
  <outline>
    <contour>
      <point x="627" y="780" type="line"/>
      <point x="473" y="780" type="line"/>
      <point x="473" y="453" type="line"/>
      <point x="478" y="296" type="line"/>
      <point x="227" y="780" type="line"/>
      <point x="56" y="780" type="line"/>
      <point x="56" y="0" type="line"/>
      <point x="209" y="0" type="line"/>
      <point x="209" y="327" type="line"/>
      <point x="204" y="484" type="line"/>
      <point x="456" y="0" type="line"/>
      <point x="627" y="0" type="line"/>
    </contour>
    <contour>
      <point x="441" y="947" type="line"/>
      <point x="441" y="921"/>
      <point x="426" y="914"/>
      <point x="408" y="914" type="curve" smooth="yes"/>
      <point x="370" y="914"/>
      <point x="323" y="962"/>
      <point x="259" y="962" type="curve" smooth="yes"/>
      <point x="205" y="962"/>
      <point x="156" y="931"/>
      <point x="156" y="843" type="curve"/>
      <point x="241" y="843" type="line"/>
      <point x="241" y="869"/>
      <point x="256" y="876"/>
      <point x="274" y="876" type="curve" smooth="yes"/>
      <point x="312" y="876"/>
      <point x="359" y="828"/>
      <point x="423" y="828" type="curve" smooth="yes"/>
      <point x="477" y="828"/>
      <point x="526" y="859"/>
      <point x="526" y="947" type="curve"/>
    </contour>
  </outline>
</glyph>
<glyph name="Otilde" format="1">
  <advance width="673"/>
  <unicode hex="00D5"/>
  <outline>
    <contour>
      <point x="336" y="-13" type="curve" smooth="yes"/>
      <point x="539" y="-13"/>
      <point x="634" y="100"/>
      <point x="634" y="370" type="curve" smooth="yes"/>
      <point x="634" y="410" type="line" smooth="yes"/>
      <point x="634" y="680"/>
      <point x="539" y="793"/>
      <point x="336" y="793" type="curve" smooth="yes"/>
      <point x="134" y="793"/>
      <point x="39" y="680"/>
      <point x="39" y="410" type="curve" smooth="yes"/>
      <point x="39" y="370" type="line" smooth="yes"/>
      <point x="39" y="100"/>
      <point x="134" y="-13"/>
    </contour>
    <contour>
      <point x="332" y="127" type="line" smooth="yes"/>
      <point x="232" y="127"/>
      <point x="203" y="214"/>
      <point x="203" y="370" type="curve" smooth="yes"/>
      <point x="203" y="410" type="line" smooth="yes"/>
      <point x="203" y="566"/>
      <point x="232" y="653"/>
      <point x="332" y="653" type="curve" smooth="yes"/>
      <point x="341" y="653" type="line" smooth="yes"/>
      <point x="441" y="653"/>
      <point x="469" y="566"/>
      <point x="469" y="410" type="curve" smooth="yes"/>
      <point x="469" y="370" type="line" smooth="yes"/>
      <point x="469" y="214"/>
      <point x="441" y="127"/>
      <point x="341" y="127" type="curve" smooth="yes"/>
    </contour>
    <contour>
      <point x="436" y="947" type="line"/>
      <point x="436" y="921"/>
      <point x="421" y="914"/>
      <point x="403" y="914" type="curve" smooth="yes"/>
      <point x="365" y="914"/>
      <point x="318" y="962"/>
      <point x="254" y="962" type="curve" smooth="yes"/>
      <point x="200" y="962"/>
      <point x="151" y="931"/>
      <point x="151" y="843" type="curve"/>
      <point x="236" y="843" type="line"/>
      <point x="236" y="869"/>
      <point x="251" y="876"/>
      <point x="269" y="876" type="curve" smooth="yes"/>
      <point x="307" y="876"/>
      <point x="354" y="828"/>
      <point x="418" y="828" type="curve" smooth="yes"/>
      <point x="472" y="828"/>
      <point x="521" y="859"/>
      <point x="521" y="947" type="curve"/>
    </contour>
  </outline>
</glyph>
<glyph name="Odieresis" format="1">
  <advance width="673"/>
  <unicode hex="00D6"/>
  <outline>
    <contour>
      <point x="336" y="-13" type="curve" smooth="yes"/>
      <point x="539" y="-13"/>
      <point x="634" y="100"/>
      <point x="634" y="370" type="curve" smooth="yes"/>
      <point x="634" y="410" type="line" smooth="yes"/>
      <point x="634" y="680"/>
      <point x="539" y="793"/>
      <point x="336" y="793" type="curve" smooth="yes"/>
      <point x="134" y="793"/>
      <point x="39" y="680"/>
      <point x="39" y="410" type="curve" smooth="yes"/>
      <point x="39" y="370" type="line" smooth="yes"/>
      <point x="39" y="100"/>
      <point x="134" y="-13"/>
    </contour>
    <contour>
      <point x="332" y="127" type="line" smooth="yes"/>
      <point x="232" y="127"/>
      <point x="203" y="214"/>
      <point x="203" y="370" type="curve" smooth="yes"/>
      <point x="203" y="410" type="line" smooth="yes"/>
      <point x="203" y="566"/>
      <point x="232" y="653"/>
      <point x="332" y="653" type="curve" smooth="yes"/>
      <point x="341" y="653" type="line" smooth="yes"/>
      <point x="441" y="653"/>
      <point x="469" y="566"/>
      <point x="469" y="410" type="curve" smooth="yes"/>
      <point x="469" y="370" type="line" smooth="yes"/>
      <point x="469" y="214"/>
      <point x="441" y="127"/>
      <point x="341" y="127" type="curve" smooth="yes"/>
    </contour>
    <contour>
      <point x="315" y="945" type="line"/>
      <point x="182" y="945" type="line"/>
      <point x="182" y="845" type="line"/>
      <point x="315" y="845" type="line"/>
    </contour>
    <contour>
      <point x="490" y="945" type="line"/>
      <point x="357" y="945" type="line"/>
      <point x="357" y="845" type="line"/>
      <point x="490" y="845" type="line"/>
    </contour>
  </outline>
</glyph>
<glyph name="multiply" format="1">
  <advance width="600"/>
  <unicode hex="00D7"/>
  <outline>
    <contour>
      <point x="129" y="119" type="line"/>
      <point x="300" y="290" type="line"/>
      <point x="471" y="119" type="line"/>
      <point x="571" y="219" type="line"/>
      <point x="400" y="390" type="line"/>
      <point x="571" y="561" type="line"/>
      <point x="471" y="661" type="line"/>
      <point x="300" y="490" type="line"/>
      <point x="129" y="661" type="line"/>
      <point x="29" y="561" type="line"/>
      <point x="200" y="390" type="line"/>
      <point x="29" y="219" type="line"/>
    </contour>
  </outline>
</glyph>
<glyph name="Oslash" format="1">
  <advance width="670"/>
  <unicode hex="00D8"/>
  <outline>
    <contour>
      <point x="39" y="410" type="curve" smooth="yes"/>
      <point x="39" y="370" type="line" smooth="yes"/>
      <point x="39" y="247"/>
      <point x="59" y="157"/>
      <point x="99" y="95" type="curve"/>
      <point x="38" y="0" type="line"/>
      <point x="136" y="0" type="line"/>
      <point x="157" y="34" type="line"/>
      <point x="203" y="2"/>
      <point x="262" y="-13"/>
      <point x="336" y="-13" type="curve" smooth="yes"/>
      <point x="539" y="-13"/>
      <point x="634" y="100"/>
      <point x="634" y="370" type="curve" smooth="yes"/>
      <point x="634" y="410" type="line" smooth="yes"/>
      <point x="634" y="533"/>
      <point x="614" y="624"/>
      <point x="573" y="686" type="curve"/>
      <point x="633" y="780" type="line"/>
      <point x="535" y="780" type="line"/>
      <point x="514" y="747" type="line"/>
      <point x="468" y="778"/>
      <point x="409" y="793"/>
      <point x="336" y="793" type="curve" smooth="yes"/>
      <point x="134" y="793"/>
      <point x="39" y="680"/>
    </contour>
    <contour>
      <point x="469" y="410" type="curve" smooth="yes"/>
      <point x="469" y="370" type="line" smooth="yes"/>
      <point x="469" y="214"/>
      <point x="441" y="127"/>
      <point x="341" y="127" type="curve" smooth="yes"/>
      <point x="332" y="127" type="line" smooth="yes"/>
      <point x="291" y="127"/>
      <point x="263" y="141"/>
      <point x="243" y="168" type="curve"/>
      <point x="463" y="513" type="line"/>
      <point x="467" y="483"/>
      <point x="469" y="449"/>
    </contour>
    <contour>
      <point x="203" y="370" type="curve" smooth="yes"/>
      <point x="203" y="410" type="line" smooth="yes"/>
      <point x="203" y="566"/>
      <point x="232" y="653"/>
      <point x="332" y="653" type="curve" smooth="yes"/>
      <point x="341" y="653" type="line" smooth="yes"/>
      <point x="380" y="653"/>
      <point x="409" y="639"/>
      <point x="429" y="613" type="curve"/>
      <point x="209" y="268" type="line"/>
      <point x="205" y="297"/>
      <point x="203" y="332"/>
    </contour>
  </outline>
</glyph>
<glyph name="Ugrave" format="1">
  <advance width="663"/>
  <unicode hex="00D9"/>
  <outline>
    <contour>
      <point x="331" y="-13" type="curve" smooth="yes"/>
      <point x="543" y="-13"/>
      <point x="612" y="77"/>
      <point x="612" y="247" type="curve" smooth="yes"/>
      <point x="612" y="780" type="line"/>
      <point x="450" y="780" type="line"/>
      <point x="450" y="252" type="line" smooth="yes"/>
      <point x="450" y="169"/>
      <point x="423" y="127"/>
      <point x="331" y="127" type="curve" smooth="yes"/>
      <point x="239" y="127"/>
      <point x="213" y="169"/>
      <point x="213" y="252" type="curve" smooth="yes"/>
      <point x="213" y="780" type="line"/>
      <point x="51" y="780" type="line"/>
      <point x="51" y="247" type="line" smooth="yes"/>
      <point x="51" y="77"/>
      <point x="119" y="-13"/>
    </contour>
    <contour>
      <point x="189" y="950" type="line"/>
      <point x="253" y="840" type="line"/>
      <point x="409" y="840" type="line"/>
      <point x="354" y="950" type="line"/>
    </contour>
  </outline>
</glyph>
<glyph name="Ucircumflex" format="1">
  <advance width="663"/>
  <unicode hex="00DB"/>
  <outline>
    <contour>
      <point x="331" y="-13" type="curve" smooth="yes"/>
      <point x="543" y="-13"/>
      <point x="612" y="77"/>
      <point x="612" y="247" type="curve" smooth="yes"/>
      <point x="612" y="780" type="line"/>
      <point x="450" y="780" type="line"/>
      <point x="450" y="252" type="line" smooth="yes"/>
      <point x="450" y="169"/>
      <point x="423" y="127"/>
      <point x="331" y="127" type="curve" smooth="yes"/>
      <point x="239" y="127"/>
      <point x="213" y="169"/>
      <point x="213" y="252" type="curve" smooth="yes"/>
      <point x="213" y="780" type="line"/>
      <point x="51" y="780" type="line"/>
      <point x="51" y="247" type="line" smooth="yes"/>
      <point x="51" y="77"/>
      <point x="119" y="-13"/>
    </contour>
    <contour>
      <point x="269" y="840" type="line"/>
      <point x="331" y="884" type="line"/>
      <point x="393" y="840" type="line"/>
      <point x="535" y="840" type="line"/>
      <point x="411" y="950" type="line"/>
      <point x="251" y="950" type="line"/>
      <point x="127" y="840" type="line"/>
    </contour>
  </outline>
</glyph>
<glyph name="Udieresis" format="1">
  <advance width="663"/>
  <unicode hex="00DC"/>
  <outline>
    <contour>
      <point x="331" y="-13" type="curve" smooth="yes"/>
      <point x="543" y="-13"/>
      <point x="612" y="77"/>
      <point x="612" y="247" type="curve" smooth="yes"/>
      <point x="612" y="780" type="line"/>
      <point x="450" y="780" type="line"/>
      <point x="450" y="252" type="line" smooth="yes"/>
      <point x="450" y="169"/>
      <point x="423" y="127"/>
      <point x="331" y="127" type="curve" smooth="yes"/>
      <point x="239" y="127"/>
      <point x="213" y="169"/>
      <point x="213" y="252" type="curve" smooth="yes"/>
      <point x="213" y="780" type="line"/>
      <point x="51" y="780" type="line"/>
      <point x="51" y="247" type="line" smooth="yes"/>
      <point x="51" y="77"/>
      <point x="119" y="-13"/>
    </contour>
    <contour>
      <point x="310" y="945" type="line"/>
      <point x="177" y="945" type="line"/>
      <point x="177" y="845" type="line"/>
      <point x="310" y="845" type="line"/>
    </contour>
    <contour>
      <point x="485" y="945" type="line"/>
      <point x="352" y="945" type="line"/>
      <point x="352" y="845" type="line"/>
      <point x="485" y="845" type="line"/>
    </contour>
  </outline>
</glyph>
<glyph name="Yacute" format="1">
  <advance width="625"/>
  <unicode hex="00DD"/>
  <outline>
    <contour>
      <point x="394" y="239" type="line"/>
      <point x="617" y="780" type="line"/>
      <point x="440" y="780" type="line"/>
      <point x="313" y="439" type="line"/>
      <point x="185" y="780" type="line"/>
      <point x="8" y="780" type="line"/>
      <point x="232" y="239" type="line"/>
      <point x="232" y="0" type="line"/>
      <point x="394" y="0" type="line"/>
    </contour>
    <contour>
      <point x="290" y="950" type="line"/>
      <point x="235" y="840" type="line"/>
      <point x="391" y="840" type="line"/>
      <point x="455" y="950" type="line"/>
    </contour>
  </outline>
</glyph>
<glyph name="Thorn" format="1">
  <advance width="609"/>
  <unicode hex="00DE"/>
  <outline>
    <contour>
      <point x="218" y="780" type="line"/>
      <point x="56" y="780" type="line"/>
      <point x="56" y="0" type="line"/>
      <point x="218" y="0" type="line"/>
      <point x="218" y="140" type="line"/>
      <point x="312" y="140" type="line" smooth="yes"/>
      <point x="439" y="140"/>
      <point x="583" y="173"/>
      <point x="583" y="380" type="curve" smooth="yes"/>
      <point x="583" y="400" type="line" smooth="yes"/>
      <point x="583" y="607"/>
      <point x="439" y="640"/>
      <point x="312" y="640" type="curve" smooth="yes"/>
      <point x="218" y="640" type="line"/>
    </contour>
    <contour>
      <point x="218" y="280" type="line"/>
      <point x="218" y="500" type="line"/>
      <point x="319" y="500" type="line" smooth="yes"/>
      <point x="363" y="500"/>
      <point x="419" y="483"/>
      <point x="419" y="395" type="curve" smooth="yes"/>
      <point x="419" y="385" type="line" smooth="yes"/>
      <point x="419" y="297"/>
      <point x="363" y="280"/>
      <point x="319" y="280" type="curve" smooth="yes"/>
    </contour>
  </outline>
</glyph>
<glyph name="germandbls" format="1">
  <advance width="632"/>
  <unicode hex="00DF"/>
  <outline>
    <contour>
      <point x="285" y="334" type="line"/>
      <point x="378" y="270" type="line" smooth="yes"/>
      <point x="434" y="232"/>
      <point x="454" y="193"/>
      <point x="454" y="162" type="curve" smooth="yes"/>
      <point x="454" y="133"/>
      <point x="447" y="107"/>
      <point x="417" y="107" type="curve" smooth="yes"/>
      <point x="391" y="107"/>
      <point x="378" y="128"/>
      <point x="378" y="168" type="curve"/>
      <point x="244" y="168" type="line"/>
      <point x="244" y="160" type="line" smooth="yes"/>
      <point x="244" y="60"/>
      <point x="275" y="-13"/>
      <point x="420" y="-13" type="curve" smooth="yes"/>
      <point x="557" y="-13"/>
      <point x="612" y="72"/>
      <point x="612" y="164" type="curve" smooth="yes"/>
      <point x="612" y="173" type="line" smooth="yes"/>
      <point x="612" y="254"/>
      <point x="562" y="321"/>
      <point x="471" y="382" type="curve" smooth="yes"/>
      <point x="447" y="398" type="line"/>
      <point x="510" y="444"/>
      <point x="548" y="498"/>
      <point x="548" y="584" type="curve" smooth="yes"/>
      <point x="548" y="594" type="line" smooth="yes"/>
      <point x="548" y="710"/>
      <point x="470" y="813"/>
      <point x="299" y="813" type="curve" smooth="yes"/>
      <point x="116" y="813"/>
      <point x="49" y="716"/>
      <point x="49" y="594" type="curve" smooth="yes"/>
      <point x="49" y="0" type="line"/>
      <point x="207" y="0" type="line"/>
      <point x="207" y="585" type="line" smooth="yes"/>
      <point x="207" y="631"/>
      <point x="233" y="677"/>
      <point x="299" y="677" type="curve" smooth="yes"/>
      <point x="363" y="677"/>
      <point x="390" y="636"/>
      <point x="390" y="577" type="curve" smooth="yes"/>
      <point x="390" y="516"/>
      <point x="347" y="468"/>
      <point x="285" y="434" type="curve"/>
    </contour>
  </outline>
</glyph>
<glyph name="aacute" format="1">
  <advance width="549"/>
  <unicode hex="00E1"/>
  <outline>
    <contour>
      <point x="368" y="0" type="line"/>
      <point x="510" y="0" type="line"/>
      <point x="500" y="150" type="line"/>
      <point x="500" y="341" type="line" smooth="yes"/>
      <point x="500" y="469"/>
      <point x="448" y="543"/>
      <point x="275" y="543" type="curve" smooth="yes"/>
      <point x="100" y="543"/>
      <point x="50" y="456"/>
      <point x="50" y="364" type="curve" smooth="yes"/>
      <point x="50" y="355" type="line"/>
      <point x="199" y="355" type="line"/>
      <point x="199" y="390"/>
      <point x="213" y="423"/>
      <point x="270" y="423" type="curve" smooth="yes"/>
      <point x="324" y="423"/>
      <point x="341" y="397"/>
      <point x="342" y="345" type="curve"/>
      <point x="220" y="326" type="line" smooth="yes"/>
      <point x="109" y="309"/>
      <point x="30" y="271"/>
      <point x="30" y="156" type="curve" smooth="yes"/>
      <point x="30" y="146" type="line" smooth="yes"/>
      <point x="30" y="61"/>
      <point x="73" y="-13"/>
      <point x="192" y="-13" type="curve" smooth="yes"/>
      <point x="266" y="-13"/>
      <point x="321" y="15"/>
      <point x="358" y="55" type="curve"/>
    </contour>
    <contour>
      <point x="287" y="780" type="line"/>
      <point x="196" y="596" type="line"/>
      <point x="352" y="596" type="line"/>
      <point x="459" y="780" type="line"/>
    </contour>
    <contour>
      <point x="250" y="115" type="curve" smooth="yes"/>
      <point x="204" y="115"/>
      <point x="187" y="142"/>
      <point x="187" y="169" type="curve" smooth="yes"/>
      <point x="187" y="175" type="line" smooth="yes"/>
      <point x="187" y="207"/>
      <point x="203" y="230"/>
      <point x="252" y="238" type="curve" smooth="yes"/>
      <point x="342" y="252" type="line"/>
      <point x="342" y="155" type="line"/>
      <point x="325" y="137"/>
      <point x="295" y="115"/>
    </contour>
  </outline>
</glyph>
<glyph name="atilde" format="1">
  <advance width="549"/>
  <unicode hex="00E3"/>
  <outline>
    <contour>
      <point x="368" y="0" type="line"/>
      <point x="510" y="0" type="line"/>
      <point x="500" y="150" type="line"/>
      <point x="500" y="341" type="line" smooth="yes"/>
      <point x="500" y="469"/>
      <point x="448" y="543"/>
      <point x="275" y="543" type="curve" smooth="yes"/>
      <point x="100" y="543"/>
      <point x="50" y="456"/>
      <point x="50" y="364" type="curve" smooth="yes"/>
      <point x="50" y="355" type="line"/>
      <point x="199" y="355" type="line"/>
      <point x="199" y="390"/>
      <point x="213" y="423"/>
      <point x="270" y="423" type="curve" smooth="yes"/>
      <point x="324" y="423"/>
      <point x="341" y="397"/>
      <point x="342" y="345" type="curve"/>
      <point x="220" y="326" type="line" smooth="yes"/>
      <point x="109" y="309"/>
      <point x="30" y="271"/>
      <point x="30" y="156" type="curve" smooth="yes"/>
      <point x="30" y="146" type="line" smooth="yes"/>
      <point x="30" y="61"/>
      <point x="73" y="-13"/>
      <point x="192" y="-13" type="curve" smooth="yes"/>
      <point x="266" y="-13"/>
      <point x="321" y="15"/>
      <point x="358" y="55" type="curve"/>
    </contour>
    <contour>
      <point x="370" y="772" type="line"/>
      <point x="370" y="745"/>
      <point x="357" y="735"/>
      <point x="339" y="735" type="curve" smooth="yes"/>
      <point x="299" y="735"/>
      <point x="248" y="787"/>
      <point x="184" y="787" type="curve" smooth="yes"/>
      <point x="122" y="787"/>
      <point x="73" y="740"/>
      <point x="73" y="628" type="curve"/>
      <point x="178" y="628" type="line"/>
      <point x="178" y="655"/>
      <point x="191" y="665"/>
      <point x="209" y="665" type="curve" smooth="yes"/>
      <point x="249" y="665"/>
      <point x="300" y="613"/>
      <point x="364" y="613" type="curve" smooth="yes"/>
      <point x="426" y="613"/>
      <point x="475" y="660"/>
      <point x="475" y="772" type="curve"/>
    </contour>
    <contour>
      <point x="250" y="115" type="curve" smooth="yes"/>
      <point x="204" y="115"/>
      <point x="187" y="142"/>
      <point x="187" y="169" type="curve" smooth="yes"/>
      <point x="187" y="175" type="line" smooth="yes"/>
      <point x="187" y="207"/>
      <point x="203" y="230"/>
      <point x="252" y="238" type="curve" smooth="yes"/>
      <point x="342" y="252" type="line"/>
      <point x="342" y="155" type="line"/>
      <point x="325" y="137"/>
      <point x="295" y="115"/>
    </contour>
  </outline>
</glyph>
<glyph name="aring" format="1">
  <advance width="549"/>
  <unicode hex="00E5"/>
  <outline>
    <contour>
      <point x="368" y="0" type="line"/>
      <point x="510" y="0" type="line"/>
      <point x="500" y="150" type="line"/>
      <point x="500" y="341" type="line" smooth="yes"/>
      <point x="500" y="469"/>
      <point x="448" y="543"/>
      <point x="275" y="543" type="curve" smooth="yes"/>
      <point x="100" y="543"/>
      <point x="50" y="456"/>
      <point x="50" y="364" type="curve" smooth="yes"/>
      <point x="50" y="355" type="line"/>
      <point x="199" y="355" type="line"/>
      <point x="199" y="390"/>
      <point x="213" y="423"/>
      <point x="270" y="423" type="curve" smooth="yes"/>
      <point x="324" y="423"/>
      <point x="341" y="397"/>
      <point x="342" y="345" type="curve"/>
      <point x="220" y="326" type="line" smooth="yes"/>
      <point x="109" y="309"/>
      <point x="30" y="271"/>
      <point x="30" y="156" type="curve" smooth="yes"/>
      <point x="30" y="146" type="line" smooth="yes"/>
      <point x="30" y="61"/>
      <point x="73" y="-13"/>
      <point x="192" y="-13" type="curve" smooth="yes"/>
      <point x="266" y="-13"/>
      <point x="321" y="15"/>
      <point x="358" y="55" type="curve"/>
    </contour>
    <contour>
      <point x="170" y="688" type="curve" smooth="yes"/>
      <point x="170" y="630"/>
      <point x="217" y="582"/>
      <point x="275" y="582" type="curve" smooth="yes"/>
      <point x="333" y="582"/>
      <point x="380" y="630"/>
      <point x="380" y="688" type="curve" smooth="yes"/>
      <point x="380" y="746"/>
      <point x="333" y="793"/>
      <point x="275" y="793" type="curve" smooth="yes"/>
      <point x="217" y="793"/>
      <point x="170" y="746"/>
    </contour>
    <contour>
      <point x="250" y="115" type="curve" smooth="yes"/>
      <point x="204" y="115"/>
      <point x="187" y="142"/>
      <point x="187" y="169" type="curve" smooth="yes"/>
      <point x="187" y="175" type="line" smooth="yes"/>
      <point x="187" y="207"/>
      <point x="203" y="230"/>
      <point x="252" y="238" type="curve" smooth="yes"/>
      <point x="342" y="252" type="line"/>
      <point x="342" y="155" type="line"/>
      <point x="325" y="137"/>
      <point x="295" y="115"/>
    </contour>
    <contour>
      <point x="224" y="688" type="curve" smooth="yes"/>
      <point x="224" y="716"/>
      <point x="247" y="738"/>
      <point x="275" y="738" type="curve" smooth="yes"/>
      <point x="303" y="738"/>
      <point x="326" y="716"/>
      <point x="326" y="688" type="curve" smooth="yes"/>
      <point x="326" y="660"/>
      <point x="303" y="637"/>
      <point x="275" y="637" type="curve" smooth="yes"/>
      <point x="247" y="637"/>
      <point x="224" y="660"/>
    </contour>
  </outline>
</glyph>
<glyph name="ae" format="1">
  <advance width="859"/>
  <unicode hex="00E6"/>
  <outline>
    <contour>
      <point x="838" y="208" type="line"/>
      <point x="838" y="279" type="line" smooth="yes"/>
      <point x="838" y="432"/>
      <point x="761" y="543"/>
      <point x="594" y="543" type="curve" smooth="yes"/>
      <point x="524" y="543"/>
      <point x="473" y="521"/>
      <point x="438" y="484" type="curve"/>
      <point x="409" y="521"/>
      <point x="359" y="543"/>
      <point x="275" y="543" type="curve" smooth="yes"/>
      <point x="100" y="543"/>
      <point x="50" y="456"/>
      <point x="50" y="364" type="curve" smooth="yes"/>
      <point x="50" y="355" type="line"/>
      <point x="199" y="355" type="line"/>
      <point x="199" y="390"/>
      <point x="213" y="423"/>
      <point x="270" y="423" type="curve" smooth="yes"/>
      <point x="324" y="423"/>
      <point x="341" y="397"/>
      <point x="342" y="345" type="curve"/>
      <point x="221" y="326" type="line" smooth="yes"/>
      <point x="110" y="309"/>
      <point x="30" y="271"/>
      <point x="30" y="156" type="curve" smooth="yes"/>
      <point x="30" y="146" type="line" smooth="yes"/>
      <point x="30" y="61"/>
      <point x="77" y="-13"/>
      <point x="204" y="-13" type="curve" smooth="yes"/>
      <point x="283" y="-13"/>
      <point x="354" y="17"/>
      <point x="405" y="61" type="curve"/>
      <point x="447" y="14"/>
      <point x="511" y="-13"/>
      <point x="599" y="-13" type="curve" smooth="yes"/>
      <point x="752" y="-13"/>
      <point x="838" y="65"/>
      <point x="838" y="166" type="curve" smooth="yes"/>
      <point x="838" y="170" type="line"/>
      <point x="689" y="170" type="line"/>
      <point x="689" y="138"/>
      <point x="655" y="107"/>
      <point x="600" y="107" type="curve" smooth="yes"/>
      <point x="541" y="107"/>
      <point x="506" y="134"/>
      <point x="500" y="208" type="curve"/>
    </contour>
    <contour>
      <point x="351" y="163" type="line"/>
      <point x="339" y="145"/>
      <point x="305" y="111"/>
      <point x="250" y="111" type="curve" smooth="yes"/>
      <point x="204" y="111"/>
      <point x="187" y="138"/>
      <point x="187" y="164" type="curve" smooth="yes"/>
      <point x="187" y="171" type="line" smooth="yes"/>
      <point x="187" y="203"/>
      <point x="204" y="226"/>
      <point x="253" y="234" type="curve" smooth="yes"/>
      <point x="342" y="248" type="line"/>
      <point x="342" y="218"/>
      <point x="346" y="190"/>
      <point x="352" y="164" type="curve"/>
    </contour>
    <contour>
      <point x="590" y="423" type="curve" smooth="yes"/>
      <point x="646" y="423"/>
      <point x="674" y="391"/>
      <point x="679" y="322" type="curve"/>
      <point x="501" y="322" type="line"/>
      <point x="506" y="391"/>
      <point x="534" y="423"/>
    </contour>
  </outline>
</glyph>
<glyph name="ccedilla" format="1">
  <advance width="527"/>
  <unicode hex="00E7"/>
  <outline>
    <contour>
      <point x="165" y="-190" type="line"/>
      <point x="184" y="-202"/>
      <point x="223" y="-215"/>
      <point x="272" y="-215" type="curve" smooth="yes"/>
      <point x="351" y="-215"/>
      <point x="392" y="-184"/>
      <point x="392" y="-127" type="curve" smooth="yes"/>
      <point x="392" y="-71"/>
      <point x="348" y="-44"/>
      <point x="292" y="-40" type="curve"/>
      <point x="302" y="-11" type="line"/>
      <point x="433" y="-1"/>
      <point x="498" y="73"/>
      <point x="498" y="174" type="curve" smooth="yes"/>
      <point x="498" y="196" type="line"/>
      <point x="349" y="196" type="line"/>
      <point x="349" y="154"/>
      <point x="324" y="123"/>
      <point x="273" y="123" type="curve" smooth="yes"/>
      <point x="212" y="123"/>
      <point x="188" y="169"/>
      <point x="188" y="247" type="curve" smooth="yes"/>
      <point x="188" y="283" type="line" smooth="yes"/>
      <point x="188" y="361"/>
      <point x="212" y="407"/>
      <point x="273" y="407" type="curve" smooth="yes"/>
      <point x="323" y="407"/>
      <point x="349" y="378"/>
      <point x="349" y="324" type="curve"/>
      <point x="498" y="324" type="line"/>
      <point x="498" y="347" type="line" smooth="yes"/>
      <point x="498" y="464"/>
      <point x="422" y="543"/>
      <point x="270" y="543" type="curve" smooth="yes"/>
      <point x="103" y="543"/>
      <point x="30" y="436"/>
      <point x="30" y="283" type="curve" smooth="yes"/>
      <point x="30" y="247" type="line" smooth="yes"/>
      <point x="30" y="106"/>
      <point x="91" y="5"/>
      <point x="230" y="-10" type="curve"/>
      <point x="206" y="-72" type="line"/>
      <point x="221" y="-100" type="line"/>
      <point x="221" y="-100"/>
      <point x="241" y="-95"/>
      <point x="259" y="-95" type="curve" smooth="yes"/>
      <point x="291" y="-95"/>
      <point x="307" y="-103"/>
      <point x="307" y="-118" type="curve" smooth="yes"/>
      <point x="307" y="-132"/>
      <point x="295" y="-141"/>
      <point x="260" y="-141" type="curve" smooth="yes"/>
      <point x="234" y="-141"/>
      <point x="204" y="-134"/>
      <point x="188" y="-124" type="curve"/>
    </contour>
  </outline>
</glyph>
<glyph name="igrave" format="1">
  <advance width="266"/>
  <unicode hex="00EC"/>
  <outline>
    <contour>
      <point x="54" y="0" type="line"/>
      <point x="211" y="0" type="line"/>
      <point x="211" y="530" type="line"/>
      <point x="54" y="530" type="line"/>
    </contour>
    <contour>
      <point x="-52" y="780" type="line"/>
      <point x="55" y="596" type="line"/>
      <point x="211" y="596" type="line"/>
      <point x="120" y="780" type="line"/>
    </contour>
  </outline>
</glyph>
<glyph name="iacute" format="1">
  <advance width="265"/>
  <unicode hex="00ED"/>
  <outline>
    <contour>
      <point x="54" y="0" type="line"/>
      <point x="211" y="0" type="line"/>
      <point x="211" y="530" type="line"/>
      <point x="54" y="530" type="line"/>
    </contour>
    <contour>
      <point x="146" y="780" type="line"/>
      <point x="55" y="596" type="line"/>
      <point x="211" y="596" type="line"/>
      <point x="318" y="780" type="line"/>
    </contour>
  </outline>
</glyph>
<glyph name="icircumflex" format="1">
  <advance width="265"/>
  <unicode hex="00EE"/>
  <outline>
    <contour>
      <point x="54" y="0" type="line"/>
      <point x="211" y="0" type="line"/>
      <point x="211" y="530" type="line"/>
      <point x="54" y="530" type="line"/>
    </contour>
    <contour>
      <point x="61" y="596" type="line"/>
      <point x="133" y="678" type="line"/>
      <point x="205" y="596" type="line"/>
      <point x="343" y="596" type="line"/>
      <point x="209" y="780" type="line"/>
      <point x="57" y="780" type="line"/>
      <point x="-77" y="596" type="line"/>
    </contour>
  </outline>
</glyph>
<glyph name="idieresis" format="1">
  <advance width="265"/>
  <unicode hex="00EF"/>
  <outline>
    <contour>
      <point x="54" y="0" type="line"/>
      <point x="211" y="0" type="line"/>
      <point x="211" y="530" type="line"/>
      <point x="54" y="530" type="line"/>
    </contour>
    <contour>
      <point x="108" y="772" type="line"/>
      <point x="-57" y="772" type="line"/>
      <point x="-57" y="606" type="line"/>
      <point x="108" y="606" type="line"/>
    </contour>
    <contour>
      <point x="323" y="772" type="line"/>
      <point x="158" y="772" type="line"/>
      <point x="158" y="606" type="line"/>
      <point x="323" y="606" type="line"/>
    </contour>
  </outline>
</glyph>
<glyph name="eth" format="1">
  <advance width="556"/>
  <unicode hex="00F0"/>
  <outline>
    <contour>
      <point x="31" y="673" type="line"/>
      <point x="71" y="669"/>
      <point x="108" y="663"/>
      <point x="143" y="653" type="curve"/>
      <point x="59" y="607" type="line"/>
      <point x="59" y="518" type="line"/>
      <point x="235" y="616" type="line"/>
      <point x="259" y="602"/>
      <point x="280" y="585"/>
      <point x="297" y="566" type="curve" smooth="yes"/>
      <point x="306" y="556"/>
      <point x="315" y="545"/>
      <point x="322" y="533" type="curve"/>
      <point x="301" y="540"/>
      <point x="278" y="543"/>
      <point x="254" y="543" type="curve" smooth="yes"/>
      <point x="108" y="543"/>
      <point x="31" y="436"/>
      <point x="31" y="283" type="curve" smooth="yes"/>
      <point x="31" y="247" type="line" smooth="yes"/>
      <point x="31" y="94"/>
      <point x="108" y="-13"/>
      <point x="278" y="-13" type="curve" smooth="yes"/>
      <point x="449" y="-13"/>
      <point x="526" y="94"/>
      <point x="526" y="247" type="curve" smooth="yes"/>
      <point x="526" y="283" type="line" smooth="yes"/>
      <point x="526" y="405"/>
      <point x="505" y="546"/>
      <point x="420" y="655" type="curve" smooth="yes"/>
      <point x="408" y="670"/>
      <point x="395" y="684"/>
      <point x="381" y="697" type="curve"/>
      <point x="430" y="724" type="line"/>
      <point x="430" y="813" type="line"/>
      <point x="310" y="746" type="line"/>
      <point x="230" y="789"/>
      <point x="133" y="806"/>
      <point x="31" y="813" type="curve"/>
    </contour>
    <contour>
      <point x="278" y="122" type="curve" smooth="yes"/>
      <point x="215" y="122"/>
      <point x="187" y="169"/>
      <point x="187" y="247" type="curve" smooth="yes"/>
      <point x="187" y="283" type="line" smooth="yes"/>
      <point x="187" y="361"/>
      <point x="215" y="408"/>
      <point x="278" y="408" type="curve" smooth="yes"/>
      <point x="341" y="408"/>
      <point x="369" y="361"/>
      <point x="369" y="283" type="curve" smooth="yes"/>
      <point x="369" y="247" type="line" smooth="yes"/>
      <point x="369" y="169"/>
      <point x="341" y="122"/>
    </contour>
  </outline>
</glyph>
<glyph name="ntilde" format="1">
  <advance width="580"/>
  <unicode hex="00F1"/>
  <outline>
    <contour>
      <point x="532" y="0" type="line"/>
      <point x="532" y="359" type="line" smooth="yes"/>
      <point x="532" y="455"/>
      <point x="488" y="543"/>
      <point x="368" y="543" type="curve" smooth="yes"/>
      <point x="286" y="543"/>
      <point x="231" y="509"/>
      <point x="198" y="462" type="curve"/>
      <point x="186" y="530" type="line"/>
      <point x="45" y="530" type="line"/>
      <point x="54" y="380" type="line"/>
      <point x="54" y="0" type="line"/>
      <point x="212" y="0" type="line"/>
      <point x="212" y="357" type="line"/>
      <point x="224" y="376"/>
      <point x="255" y="407"/>
      <point x="305" y="407" type="curve" smooth="yes"/>
      <point x="359" y="407"/>
      <point x="375" y="371"/>
      <point x="375" y="333" type="curve" smooth="yes"/>
      <point x="375" y="0" type="line"/>
    </contour>
    <contour>
      <point x="389" y="772" type="line"/>
      <point x="389" y="745"/>
      <point x="376" y="735"/>
      <point x="358" y="735" type="curve" smooth="yes"/>
      <point x="318" y="735"/>
      <point x="267" y="787"/>
      <point x="203" y="787" type="curve" smooth="yes"/>
      <point x="141" y="787"/>
      <point x="92" y="740"/>
      <point x="92" y="628" type="curve"/>
      <point x="197" y="628" type="line"/>
      <point x="197" y="655"/>
      <point x="210" y="665"/>
      <point x="228" y="665" type="curve" smooth="yes"/>
      <point x="268" y="665"/>
      <point x="319" y="613"/>
      <point x="383" y="613" type="curve" smooth="yes"/>
      <point x="445" y="613"/>
      <point x="494" y="660"/>
      <point x="494" y="772" type="curve"/>
    </contour>
  </outline>
</glyph>
<glyph name="ograve" format="1">
  <advance width="556"/>
  <unicode hex="00F2"/>
  <outline>
    <contour>
      <point x="278" y="-13" type="curve" smooth="yes"/>
      <point x="449" y="-13"/>
      <point x="526" y="94"/>
      <point x="526" y="247" type="curve" smooth="yes"/>
      <point x="526" y="283" type="line" smooth="yes"/>
      <point x="526" y="436"/>
      <point x="449" y="543"/>
      <point x="278" y="543" type="curve" smooth="yes"/>
      <point x="108" y="543"/>
      <point x="30" y="436"/>
      <point x="30" y="283" type="curve" smooth="yes"/>
      <point x="30" y="247" type="line" smooth="yes"/>
      <point x="30" y="94"/>
      <point x="108" y="-13"/>
    </contour>
    <contour>
      <point x="278" y="123" type="curve" smooth="yes"/>
      <point x="216" y="123"/>
      <point x="188" y="169"/>
      <point x="188" y="247" type="curve" smooth="yes"/>
      <point x="188" y="283" type="line" smooth="yes"/>
      <point x="188" y="361"/>
      <point x="216" y="407"/>
      <point x="278" y="407" type="curve" smooth="yes"/>
      <point x="341" y="407"/>
      <point x="368" y="361"/>
      <point x="368" y="283" type="curve" smooth="yes"/>
      <point x="368" y="247" type="line" smooth="yes"/>
      <point x="368" y="169"/>
      <point x="341" y="123"/>
    </contour>
    <contour>
      <point x="93" y="780" type="line"/>
      <point x="200" y="596" type="line"/>
      <point x="356" y="596" type="line"/>
      <point x="265" y="780" type="line"/>
    </contour>
  </outline>
</glyph>
<glyph name="ocircumflex" format="1">
  <advance width="556"/>
  <unicode hex="00F4"/>
  <outline>
    <contour>
      <point x="278" y="-13" type="curve" smooth="yes"/>
      <point x="449" y="-13"/>
      <point x="526" y="94"/>
      <point x="526" y="247" type="curve" smooth="yes"/>
      <point x="526" y="283" type="line" smooth="yes"/>
      <point x="526" y="436"/>
      <point x="449" y="543"/>
      <point x="278" y="543" type="curve" smooth="yes"/>
      <point x="108" y="543"/>
      <point x="30" y="436"/>
      <point x="30" y="283" type="curve" smooth="yes"/>
      <point x="30" y="247" type="line" smooth="yes"/>
      <point x="30" y="94"/>
      <point x="108" y="-13"/>
    </contour>
    <contour>
      <point x="206" y="596" type="line"/>
      <point x="278" y="678" type="line"/>
      <point x="350" y="596" type="line"/>
      <point x="488" y="596" type="line"/>
      <point x="354" y="780" type="line"/>
      <point x="202" y="780" type="line"/>
      <point x="68" y="596" type="line"/>
    </contour>
    <contour>
      <point x="278" y="123" type="curve" smooth="yes"/>
      <point x="216" y="123"/>
      <point x="188" y="169"/>
      <point x="188" y="247" type="curve" smooth="yes"/>
      <point x="188" y="283" type="line" smooth="yes"/>
      <point x="188" y="361"/>
      <point x="216" y="407"/>
      <point x="278" y="407" type="curve" smooth="yes"/>
      <point x="341" y="407"/>
      <point x="368" y="361"/>
      <point x="368" y="283" type="curve" smooth="yes"/>
      <point x="368" y="247" type="line" smooth="yes"/>
      <point x="368" y="169"/>
      <point x="341" y="123"/>
    </contour>
  </outline>
</glyph>
<glyph name="otilde" format="1">
  <advance width="556"/>
  <unicode hex="00F5"/>
  <outline>
    <contour>
      <point x="278" y="-13" type="curve" smooth="yes"/>
      <point x="449" y="-13"/>
      <point x="526" y="94"/>
      <point x="526" y="247" type="curve" smooth="yes"/>
      <point x="526" y="283" type="line" smooth="yes"/>
      <point x="526" y="436"/>
      <point x="449" y="543"/>
      <point x="278" y="543" type="curve" smooth="yes"/>
      <point x="108" y="543"/>
      <point x="30" y="436"/>
      <point x="30" y="283" type="curve" smooth="yes"/>
      <point x="30" y="247" type="line" smooth="yes"/>
      <point x="30" y="94"/>
      <point x="108" y="-13"/>
    </contour>
    <contour>
      <point x="374" y="772" type="line"/>
      <point x="374" y="745"/>
      <point x="361" y="735"/>
      <point x="343" y="735" type="curve" smooth="yes"/>
      <point x="303" y="735"/>
      <point x="252" y="787"/>
      <point x="188" y="787" type="curve" smooth="yes"/>
      <point x="126" y="787"/>
      <point x="77" y="740"/>
      <point x="77" y="628" type="curve"/>
      <point x="182" y="628" type="line"/>
      <point x="182" y="655"/>
      <point x="195" y="665"/>
      <point x="213" y="665" type="curve" smooth="yes"/>
      <point x="253" y="665"/>
      <point x="304" y="613"/>
      <point x="368" y="613" type="curve" smooth="yes"/>
      <point x="430" y="613"/>
      <point x="479" y="660"/>
      <point x="479" y="772" type="curve"/>
    </contour>
    <contour>
      <point x="278" y="123" type="curve" smooth="yes"/>
      <point x="216" y="123"/>
      <point x="188" y="169"/>
      <point x="188" y="247" type="curve" smooth="yes"/>
      <point x="188" y="283" type="line" smooth="yes"/>
      <point x="188" y="361"/>
      <point x="216" y="407"/>
      <point x="278" y="407" type="curve" smooth="yes"/>
      <point x="341" y="407"/>
      <point x="368" y="361"/>
      <point x="368" y="283" type="curve" smooth="yes"/>
      <point x="368" y="247" type="line" smooth="yes"/>
      <point x="368" y="169"/>
      <point x="341" y="123"/>
    </contour>
  </outline>
</glyph>
<glyph name="odieresis" format="1">
  <advance width="556"/>
  <unicode hex="00F6"/>
  <outline>
    <contour>
      <point x="278" y="-13" type="curve" smooth="yes"/>
      <point x="449" y="-13"/>
      <point x="526" y="94"/>
      <point x="526" y="247" type="curve" smooth="yes"/>
      <point x="526" y="283" type="line" smooth="yes"/>
      <point x="526" y="436"/>
      <point x="449" y="543"/>
      <point x="278" y="543" type="curve" smooth="yes"/>
      <point x="108" y="543"/>
      <point x="30" y="436"/>
      <point x="30" y="283" type="curve" smooth="yes"/>
      <point x="30" y="247" type="line" smooth="yes"/>
      <point x="30" y="94"/>
      <point x="108" y="-13"/>
    </contour>
    <contour>
      <point x="278" y="123" type="curve" smooth="yes"/>
      <point x="216" y="123"/>
      <point x="188" y="169"/>
      <point x="188" y="247" type="curve" smooth="yes"/>
      <point x="188" y="283" type="line" smooth="yes"/>
      <point x="188" y="361"/>
      <point x="216" y="407"/>
      <point x="278" y="407" type="curve" smooth="yes"/>
      <point x="341" y="407"/>
      <point x="368" y="361"/>
      <point x="368" y="283" type="curve" smooth="yes"/>
      <point x="368" y="247" type="line" smooth="yes"/>
      <point x="368" y="169"/>
      <point x="341" y="123"/>
    </contour>
    <contour>
      <point x="253" y="772" type="line"/>
      <point x="88" y="772" type="line"/>
      <point x="88" y="606" type="line"/>
      <point x="253" y="606" type="line"/>
    </contour>
    <contour>
      <point x="468" y="772" type="line"/>
      <point x="303" y="772" type="line"/>
      <point x="303" y="606" type="line"/>
      <point x="468" y="606" type="line"/>
    </contour>
  </outline>
</glyph>
<glyph name="divide" format="1">
  <advance width="600"/>
  <unicode hex="00F7"/>
  <outline>
    <contour>
      <point x="42" y="320" type="line"/>
      <point x="558" y="320" type="line"/>
      <point x="558" y="460" type="line"/>
      <point x="42" y="460" type="line"/>
    </contour>
    <contour>
      <point x="383" y="265" type="line"/>
      <point x="217" y="265" type="line"/>
      <point x="217" y="99" type="line"/>
      <point x="383" y="99" type="line"/>
    </contour>
    <contour>
      <point x="383" y="681" type="line"/>
      <point x="217" y="681" type="line"/>
      <point x="217" y="515" type="line"/>
      <point x="383" y="515" type="line"/>
    </contour>
  </outline>
</glyph>
<glyph name="oslash" format="1">
  <advance width="556"/>
  <unicode hex="00F8"/>
  <outline>
    <contour>
      <point x="526" y="530" type="line"/>
      <point x="444" y="530" type="line"/>
      <point x="425" y="505" type="line"/>
      <point x="387" y="529"/>
      <point x="338" y="543"/>
      <point x="278" y="543" type="curve" smooth="yes"/>
      <point x="108" y="543"/>
      <point x="30" y="436"/>
      <point x="30" y="283" type="curve" smooth="yes"/>
      <point x="30" y="247" type="line" smooth="yes"/>
      <point x="30" y="175"/>
      <point x="47" y="113"/>
      <point x="83" y="68" type="curve"/>
      <point x="30" y="0" type="line"/>
      <point x="111" y="0" type="line"/>
      <point x="130" y="25" type="line"/>
      <point x="168" y="0"/>
      <point x="217" y="-13"/>
      <point x="278" y="-13" type="curve" smooth="yes"/>
      <point x="449" y="-13"/>
      <point x="526" y="94"/>
      <point x="526" y="247" type="curve" smooth="yes"/>
      <point x="526" y="283" type="line" smooth="yes"/>
      <point x="526" y="355"/>
      <point x="509" y="416"/>
      <point x="473" y="462" type="curve"/>
    </contour>
    <contour>
      <point x="368" y="283" type="curve" smooth="yes"/>
      <point x="368" y="247" type="line" smooth="yes"/>
      <point x="368" y="169"/>
      <point x="341" y="123"/>
      <point x="278" y="123" type="curve" smooth="yes"/>
      <point x="254" y="123"/>
      <point x="236" y="129"/>
      <point x="222" y="142" type="curve"/>
      <point x="365" y="324" type="line"/>
      <point x="367" y="312"/>
      <point x="368" y="298"/>
    </contour>
    <contour>
      <point x="188" y="247" type="curve" smooth="yes"/>
      <point x="188" y="283" type="line" smooth="yes"/>
      <point x="188" y="361"/>
      <point x="216" y="407"/>
      <point x="278" y="407" type="curve" smooth="yes"/>
      <point x="301" y="407"/>
      <point x="319" y="401"/>
      <point x="333" y="389" type="curve"/>
      <point x="191" y="206" type="line"/>
      <point x="189" y="219"/>
      <point x="188" y="232"/>
    </contour>
  </outline>
</glyph>
<glyph name="ugrave" format="1">
  <advance width="580"/>
  <unicode hex="00F9"/>
  <outline>
    <contour>
      <point x="48" y="530" type="line"/>
      <point x="48" y="171" type="line" smooth="yes"/>
      <point x="48" y="75"/>
      <point x="91" y="-13"/>
      <point x="212" y="-13" type="curve" smooth="yes"/>
      <point x="293" y="-13"/>
      <point x="348" y="20"/>
      <point x="382" y="67" type="curve"/>
      <point x="394" y="0" type="line"/>
      <point x="535" y="0" type="line"/>
      <point x="526" y="150" type="line"/>
      <point x="526" y="530" type="line"/>
      <point x="368" y="530" type="line"/>
      <point x="368" y="173" type="line"/>
      <point x="355" y="154"/>
      <point x="325" y="123"/>
      <point x="275" y="123" type="curve" smooth="yes"/>
      <point x="221" y="123"/>
      <point x="205" y="159"/>
      <point x="205" y="197" type="curve" smooth="yes"/>
      <point x="205" y="530" type="line"/>
    </contour>
    <contour>
      <point x="101" y="780" type="line"/>
      <point x="208" y="596" type="line"/>
      <point x="364" y="596" type="line"/>
      <point x="273" y="780" type="line"/>
    </contour>
  </outline>
</glyph>
<glyph name="udieresis" format="1">
  <advance width="580"/>
  <unicode hex="00FC"/>
  <outline>
    <contour>
      <point x="48" y="530" type="line"/>
      <point x="48" y="171" type="line" smooth="yes"/>
      <point x="48" y="75"/>
      <point x="91" y="-13"/>
      <point x="212" y="-13" type="curve" smooth="yes"/>
      <point x="293" y="-13"/>
      <point x="348" y="20"/>
      <point x="382" y="67" type="curve"/>
      <point x="394" y="0" type="line"/>
      <point x="535" y="0" type="line"/>
      <point x="526" y="150" type="line"/>
      <point x="526" y="530" type="line"/>
      <point x="368" y="530" type="line"/>
      <point x="368" y="173" type="line"/>
      <point x="355" y="154"/>
      <point x="325" y="123"/>
      <point x="275" y="123" type="curve" smooth="yes"/>
      <point x="221" y="123"/>
      <point x="205" y="159"/>
      <point x="205" y="197" type="curve" smooth="yes"/>
      <point x="205" y="530" type="line"/>
    </contour>
    <contour>
      <point x="476" y="772" type="line"/>
      <point x="311" y="772" type="line"/>
      <point x="311" y="606" type="line"/>
      <point x="476" y="606" type="line"/>
    </contour>
    <contour>
      <point x="261" y="772" type="line"/>
      <point x="96" y="772" type="line"/>
      <point x="96" y="606" type="line"/>
      <point x="261" y="606" type="line"/>
    </contour>
  </outline>
</glyph>
<glyph name="thorn" format="1">
  <advance width="574"/>
  <unicode hex="00FE"/>
  <outline>
    <contour>
      <point x="52" y="800" type="line"/>
      <point x="52" y="-200" type="line"/>
      <point x="210" y="-200" type="line"/>
      <point x="210" y="46" type="line"/>
      <point x="240" y="10"/>
      <point x="284" y="-13"/>
      <point x="347" y="-13" type="curve" smooth="yes"/>
      <point x="492" y="-13"/>
      <point x="544" y="94"/>
      <point x="544" y="247" type="curve" smooth="yes"/>
      <point x="544" y="283" type="line" smooth="yes"/>
      <point x="544" y="436"/>
      <point x="492" y="543"/>
      <point x="347" y="543" type="curve" smooth="yes"/>
      <point x="284" y="543"/>
      <point x="240" y="519"/>
      <point x="210" y="484" type="curve"/>
      <point x="210" y="800" type="line"/>
    </contour>
    <contour>
      <point x="211" y="173" type="curve"/>
      <point x="211" y="357" type="line"/>
      <point x="224" y="376"/>
      <point x="254" y="407"/>
      <point x="301" y="407" type="curve" smooth="yes"/>
      <point x="362" y="407"/>
      <point x="386" y="361"/>
      <point x="386" y="283" type="curve" smooth="yes"/>
      <point x="386" y="247" type="line" smooth="yes"/>
      <point x="386" y="169"/>
      <point x="362" y="123"/>
      <point x="301" y="123" type="curve" smooth="yes"/>
      <point x="254" y="123"/>
      <point x="224" y="154"/>
    </contour>
  </outline>
</glyph>
<glyph name="Amacron" format="1">
  <advance width="641"/>
  <unicode hex="0100"/>
  <outline>
    <contour>
      <point x="209" y="782" type="line"/>
      <point x="14" y="0" type="line"/>
      <point x="188" y="0" type="line"/>
      <point x="225" y="168" type="line"/>
      <point x="416" y="168" type="line"/>
      <point x="454" y="0" type="line"/>
      <point x="627" y="0" type="line"/>
      <point x="432" y="782" type="line"/>
    </contour>
    <contour>
      <point x="171" y="847" type="line"/>
      <point x="469" y="847" type="line"/>
      <point x="469" y="943" type="line"/>
      <point x="171" y="943" type="line"/>
    </contour>
    <contour>
      <point x="320" y="595" type="line"/>
      <point x="384" y="308" type="line"/>
      <point x="256" y="308" type="line"/>
    </contour>
  </outline>
</glyph>
<glyph name="Abreve" format="1">
  <advance width="641"/>
  <unicode hex="0102"/>
  <outline>
    <contour>
      <point x="209" y="782" type="line"/>
      <point x="14" y="0" type="line"/>
      <point x="188" y="0" type="line"/>
      <point x="225" y="168" type="line"/>
      <point x="416" y="168" type="line"/>
      <point x="454" y="0" type="line"/>
      <point x="627" y="0" type="line"/>
      <point x="432" y="782" type="line"/>
    </contour>
    <contour>
      <point x="320" y="825" type="curve" smooth="yes"/>
      <point x="467" y="825"/>
      <point x="503" y="882"/>
      <point x="503" y="950" type="curve"/>
      <point x="394" y="950" type="line"/>
      <point x="394" y="924"/>
      <point x="373" y="910"/>
      <point x="320" y="910" type="curve" smooth="yes"/>
      <point x="267" y="910"/>
      <point x="246" y="924"/>
      <point x="246" y="950" type="curve"/>
      <point x="137" y="950" type="line"/>
      <point x="137" y="882"/>
      <point x="173" y="825"/>
    </contour>
    <contour>
      <point x="320" y="595" type="line"/>
      <point x="384" y="308" type="line"/>
      <point x="256" y="308" type="line"/>
    </contour>
  </outline>
</glyph>
<glyph name="abreve" format="1">
  <advance width="549"/>
  <unicode hex="0103"/>
  <outline>
    <contour>
      <point x="368" y="0" type="line"/>
      <point x="510" y="0" type="line"/>
      <point x="500" y="150" type="line"/>
      <point x="500" y="341" type="line" smooth="yes"/>
      <point x="500" y="469"/>
      <point x="448" y="543"/>
      <point x="275" y="543" type="curve" smooth="yes"/>
      <point x="100" y="543"/>
      <point x="50" y="456"/>
      <point x="50" y="364" type="curve" smooth="yes"/>
      <point x="50" y="355" type="line"/>
      <point x="199" y="355" type="line"/>
      <point x="199" y="390"/>
      <point x="213" y="423"/>
      <point x="270" y="423" type="curve" smooth="yes"/>
      <point x="324" y="423"/>
      <point x="341" y="397"/>
      <point x="342" y="345" type="curve"/>
      <point x="220" y="326" type="line" smooth="yes"/>
      <point x="109" y="309"/>
      <point x="30" y="271"/>
      <point x="30" y="156" type="curve" smooth="yes"/>
      <point x="30" y="146" type="line" smooth="yes"/>
      <point x="30" y="61"/>
      <point x="73" y="-13"/>
      <point x="192" y="-13" type="curve" smooth="yes"/>
      <point x="266" y="-13"/>
      <point x="321" y="15"/>
      <point x="358" y="55" type="curve"/>
    </contour>
    <contour>
      <point x="274" y="582" type="curve" smooth="yes"/>
      <point x="414" y="582"/>
      <point x="463" y="666"/>
      <point x="461" y="780" type="curve"/>
      <point x="348" y="780" type="line"/>
      <point x="348" y="721"/>
      <point x="317" y="702"/>
      <point x="274" y="702" type="curve" smooth="yes"/>
      <point x="231" y="702"/>
      <point x="200" y="721"/>
      <point x="200" y="780" type="curve"/>
      <point x="87" y="780" type="line"/>
      <point x="85" y="666"/>
      <point x="134" y="582"/>
    </contour>
    <contour>
      <point x="250" y="115" type="curve" smooth="yes"/>
      <point x="204" y="115"/>
      <point x="187" y="142"/>
      <point x="187" y="169" type="curve" smooth="yes"/>
      <point x="187" y="175" type="line" smooth="yes"/>
      <point x="187" y="207"/>
      <point x="203" y="230"/>
      <point x="252" y="238" type="curve" smooth="yes"/>
      <point x="342" y="252" type="line"/>
      <point x="342" y="155" type="line"/>
      <point x="325" y="137"/>
      <point x="295" y="115"/>
    </contour>
  </outline>
</glyph>
<glyph name="Aogonek" format="1">
  <advance width="641"/>
  <unicode hex="0104"/>
  <outline>
    <contour>
      <point x="565" y="-69" type="curve" smooth="yes"/>
      <point x="565" y="-39"/>
      <point x="588" y="-17"/>
      <point x="627" y="0" type="curve"/>
      <point x="432" y="782" type="line"/>
      <point x="209" y="782" type="line"/>
      <point x="14" y="0" type="line"/>
      <point x="188" y="0" type="line"/>
      <point x="225" y="168" type="line"/>
      <point x="416" y="168" type="line"/>
      <point x="454" y="0" type="line"/>
      <point x="492" y="0" type="line"/>
      <point x="465" y="-28"/>
      <point x="448" y="-64"/>
      <point x="448" y="-107" type="curve" smooth="yes"/>
      <point x="448" y="-180"/>
      <point x="502" y="-215"/>
      <point x="583" y="-215" type="curve" smooth="yes"/>
      <point x="624" y="-215"/>
      <point x="665" y="-203"/>
      <point x="686" y="-190" type="curve"/>
      <point x="650" y="-94" type="line"/>
      <point x="642" y="-99"/>
      <point x="627" y="-105"/>
      <point x="608" y="-105" type="curve" smooth="yes"/>
      <point x="582" y="-105"/>
      <point x="565" y="-90"/>
    </contour>
    <contour>
      <point x="320" y="595" type="line"/>
      <point x="384" y="308" type="line"/>
      <point x="256" y="308" type="line"/>
    </contour>
  </outline>
</glyph>
<glyph name="aogonek" format="1">
  <advance width="549"/>
  <unicode hex="0105"/>
  <outline>
    <contour>
      <point x="250" y="115" type="curve" smooth="yes"/>
      <point x="204" y="115"/>
      <point x="187" y="142"/>
      <point x="187" y="169" type="curve" smooth="yes"/>
      <point x="187" y="175" type="line" smooth="yes"/>
      <point x="187" y="207"/>
      <point x="203" y="230"/>
      <point x="252" y="238" type="curve" smooth="yes"/>
      <point x="342" y="252" type="line"/>
      <point x="342" y="155" type="line"/>
      <point x="325" y="137"/>
      <point x="295" y="115"/>
    </contour>
    <contour>
      <point x="329" y="-107" type="curve" smooth="yes"/>
      <point x="329" y="-180"/>
      <point x="383" y="-215"/>
      <point x="464" y="-215" type="curve" smooth="yes"/>
      <point x="505" y="-215"/>
      <point x="546" y="-203"/>
      <point x="567" y="-190" type="curve"/>
      <point x="531" y="-94" type="line"/>
      <point x="523" y="-99"/>
      <point x="508" y="-105"/>
      <point x="489" y="-105" type="curve" smooth="yes"/>
      <point x="463" y="-105"/>
      <point x="446" y="-90"/>
      <point x="446" y="-69" type="curve" smooth="yes"/>
      <point x="446" y="-39"/>
      <point x="469" y="-17"/>
      <point x="508" y="0" type="curve"/>
      <point x="510" y="0" type="line"/>
      <point x="500" y="150" type="line"/>
      <point x="500" y="341" type="line" smooth="yes"/>
      <point x="500" y="469"/>
      <point x="448" y="543"/>
      <point x="275" y="543" type="curve" smooth="yes"/>
      <point x="100" y="543"/>
      <point x="50" y="456"/>
      <point x="50" y="364" type="curve" smooth="yes"/>
      <point x="50" y="355" type="line"/>
      <point x="199" y="355" type="line"/>
      <point x="199" y="390"/>
      <point x="213" y="423"/>
      <point x="270" y="423" type="curve" smooth="yes"/>
      <point x="324" y="423"/>
      <point x="341" y="397"/>
      <point x="342" y="345" type="curve"/>
      <point x="220" y="326" type="line" smooth="yes"/>
      <point x="109" y="309"/>
      <point x="30" y="271"/>
      <point x="30" y="156" type="curve" smooth="yes"/>
      <point x="30" y="146" type="line" smooth="yes"/>
      <point x="30" y="61"/>
      <point x="73" y="-13"/>
      <point x="192" y="-13" type="curve" smooth="yes"/>
      <point x="266" y="-13"/>
      <point x="321" y="15"/>
      <point x="358" y="55" type="curve"/>
      <point x="369" y="-4" type="line"/>
      <point x="344" y="-32"/>
      <point x="329" y="-66"/>
    </contour>
  </outline>
</glyph>
<glyph name="cacute" format="1">
  <advance width="527"/>
  <unicode hex="0107"/>
  <outline>
    <contour>
      <point x="188" y="247" type="curve" smooth="yes"/>
      <point x="188" y="283" type="line" smooth="yes"/>
      <point x="188" y="361"/>
      <point x="212" y="407"/>
      <point x="273" y="407" type="curve" smooth="yes"/>
      <point x="323" y="407"/>
      <point x="349" y="378"/>
      <point x="349" y="324" type="curve"/>
      <point x="498" y="324" type="line"/>
      <point x="498" y="347" type="line" smooth="yes"/>
      <point x="498" y="464"/>
      <point x="422" y="543"/>
      <point x="270" y="543" type="curve" smooth="yes"/>
      <point x="103" y="543"/>
      <point x="30" y="436"/>
      <point x="30" y="283" type="curve" smooth="yes"/>
      <point x="30" y="247" type="line" smooth="yes"/>
      <point x="30" y="94"/>
      <point x="103" y="-13"/>
      <point x="270" y="-13" type="curve" smooth="yes"/>
      <point x="422" y="-13"/>
      <point x="498" y="65"/>
      <point x="498" y="174" type="curve" smooth="yes"/>
      <point x="498" y="196" type="line"/>
      <point x="349" y="196" type="line"/>
      <point x="349" y="154"/>
      <point x="324" y="123"/>
      <point x="273" y="123" type="curve" smooth="yes"/>
      <point x="212" y="123"/>
      <point x="188" y="169"/>
    </contour>
    <contour>
      <point x="283" y="780" type="line"/>
      <point x="192" y="596" type="line"/>
      <point x="348" y="596" type="line"/>
      <point x="455" y="780" type="line"/>
    </contour>
  </outline>
</glyph>
<glyph name="ccircumflex" format="1">
  <advance width="527"/>
  <unicode hex="0109"/>
  <outline>
    <contour>
      <point x="188" y="247" type="curve" smooth="yes"/>
      <point x="188" y="283" type="line" smooth="yes"/>
      <point x="188" y="361"/>
      <point x="212" y="407"/>
      <point x="273" y="407" type="curve" smooth="yes"/>
      <point x="323" y="407"/>
      <point x="349" y="378"/>
      <point x="349" y="324" type="curve"/>
      <point x="498" y="324" type="line"/>
      <point x="498" y="347" type="line" smooth="yes"/>
      <point x="498" y="464"/>
      <point x="422" y="543"/>
      <point x="270" y="543" type="curve" smooth="yes"/>
      <point x="103" y="543"/>
      <point x="30" y="436"/>
      <point x="30" y="283" type="curve" smooth="yes"/>
      <point x="30" y="247" type="line" smooth="yes"/>
      <point x="30" y="94"/>
      <point x="103" y="-13"/>
      <point x="270" y="-13" type="curve" smooth="yes"/>
      <point x="422" y="-13"/>
      <point x="498" y="65"/>
      <point x="498" y="174" type="curve" smooth="yes"/>
      <point x="498" y="196" type="line"/>
      <point x="349" y="196" type="line"/>
      <point x="349" y="154"/>
      <point x="324" y="123"/>
      <point x="273" y="123" type="curve" smooth="yes"/>
      <point x="212" y="123"/>
      <point x="188" y="169"/>
    </contour>
    <contour>
      <point x="198" y="596" type="line"/>
      <point x="270" y="678" type="line"/>
      <point x="342" y="596" type="line"/>
      <point x="480" y="596" type="line"/>
      <point x="346" y="780" type="line"/>
      <point x="194" y="780" type="line"/>
      <point x="60" y="596" type="line"/>
    </contour>
  </outline>
</glyph>
<glyph name="Cdotaccent" format="1">
  <advance width="650"/>
  <unicode hex="010A"/>
  <outline>
    <contour>
      <point x="203" y="370" type="curve" smooth="yes"/>
      <point x="203" y="410" type="line" smooth="yes"/>
      <point x="203" y="566"/>
      <point x="228" y="653"/>
      <point x="332" y="653" type="curve" smooth="yes"/>
      <point x="341" y="653" type="line" smooth="yes"/>
      <point x="426" y="653"/>
      <point x="449" y="591"/>
      <point x="449" y="484" type="curve"/>
      <point x="611" y="484" type="line"/>
      <point x="611" y="520" type="line" smooth="yes"/>
      <point x="611" y="715"/>
      <point x="517" y="793"/>
      <point x="332" y="793" type="curve" smooth="yes"/>
      <point x="129" y="793"/>
      <point x="39" y="680"/>
      <point x="39" y="410" type="curve" smooth="yes"/>
      <point x="39" y="370" type="line" smooth="yes"/>
      <point x="39" y="100"/>
      <point x="129" y="-13"/>
      <point x="332" y="-13" type="curve" smooth="yes"/>
      <point x="517" y="-13"/>
      <point x="611" y="65"/>
      <point x="611" y="257" type="curve" smooth="yes"/>
      <point x="611" y="266" type="line"/>
      <point x="449" y="266" type="line"/>
      <point x="449" y="182"/>
      <point x="420" y="127"/>
      <point x="341" y="127" type="curve" smooth="yes"/>
      <point x="332" y="127" type="line" smooth="yes"/>
      <point x="228" y="127"/>
      <point x="203" y="214"/>
    </contour>
    <contour>
      <point x="399" y="945" type="line"/>
      <point x="265" y="945" type="line"/>
      <point x="265" y="845" type="line"/>
      <point x="399" y="845" type="line"/>
    </contour>
  </outline>
</glyph>
<glyph name="Ccaron" format="1">
  <advance width="650"/>
  <unicode hex="010C"/>
  <outline>
    <contour>
      <point x="203" y="370" type="curve" smooth="yes"/>
      <point x="203" y="410" type="line" smooth="yes"/>
      <point x="203" y="566"/>
      <point x="228" y="653"/>
      <point x="332" y="653" type="curve" smooth="yes"/>
      <point x="341" y="653" type="line" smooth="yes"/>
      <point x="426" y="653"/>
      <point x="449" y="591"/>
      <point x="449" y="484" type="curve"/>
      <point x="611" y="484" type="line"/>
      <point x="611" y="520" type="line" smooth="yes"/>
      <point x="611" y="715"/>
      <point x="517" y="793"/>
      <point x="332" y="793" type="curve" smooth="yes"/>
      <point x="129" y="793"/>
      <point x="39" y="680"/>
      <point x="39" y="410" type="curve" smooth="yes"/>
      <point x="39" y="370" type="line" smooth="yes"/>
      <point x="39" y="100"/>
      <point x="129" y="-13"/>
      <point x="332" y="-13" type="curve" smooth="yes"/>
      <point x="517" y="-13"/>
      <point x="611" y="65"/>
      <point x="611" y="257" type="curve" smooth="yes"/>
      <point x="611" y="266" type="line"/>
      <point x="449" y="266" type="line"/>
      <point x="449" y="182"/>
      <point x="420" y="127"/>
      <point x="341" y="127" type="curve" smooth="yes"/>
      <point x="332" y="127" type="line" smooth="yes"/>
      <point x="228" y="127"/>
      <point x="203" y="214"/>
    </contour>
    <contour>
      <point x="128" y="950" type="line"/>
      <point x="252" y="840" type="line"/>
      <point x="412" y="840" type="line"/>
      <point x="536" y="950" type="line"/>
      <point x="394" y="950" type="line"/>
      <point x="332" y="905" type="line"/>
      <point x="270" y="950" type="line"/>
    </contour>
  </outline>
</glyph>
<glyph name="dcaron" format="1">
  <advance width="582"/>
  <unicode hex="010F"/>
  <outline>
    <contour>
      <point x="235" y="543" type="curve" smooth="yes"/>
      <point x="90" y="543"/>
      <point x="38" y="436"/>
      <point x="38" y="283" type="curve" smooth="yes"/>
      <point x="38" y="247" type="line" smooth="yes"/>
      <point x="38" y="94"/>
      <point x="90" y="-13"/>
      <point x="235" y="-13" type="curve" smooth="yes"/>
      <point x="308" y="-13"/>
      <point x="355" y="19"/>
      <point x="385" y="63" type="curve"/>
      <point x="396" y="0" type="line"/>
      <point x="538" y="0" type="line"/>
      <point x="529" y="150" type="line"/>
      <point x="529" y="800" type="line"/>
      <point x="371" y="800" type="line"/>
      <point x="371" y="485" type="line"/>
      <point x="341" y="520"/>
      <point x="297" y="543"/>
    </contour>
    <contour>
      <point x="371" y="357" type="curve"/>
      <point x="371" y="173" type="line"/>
      <point x="358" y="154"/>
      <point x="328" y="123"/>
      <point x="281" y="123" type="curve" smooth="yes"/>
      <point x="219" y="123"/>
      <point x="195" y="169"/>
      <point x="195" y="247" type="curve" smooth="yes"/>
      <point x="195" y="283" type="line" smooth="yes"/>
      <point x="195" y="361"/>
      <point x="219" y="407"/>
      <point x="281" y="407" type="curve" smooth="yes"/>
      <point x="328" y="407"/>
      <point x="358" y="376"/>
    </contour>
    <contour>
      <point x="584" y="800" type="line"/>
      <point x="584" y="596" type="line"/>
      <point x="654" y="596" type="line"/>
      <point x="680" y="800" type="line"/>
    </contour>
  </outline>
</glyph>
<glyph name="dcroat" format="1">
  <advance width="582"/>
  <unicode hex="0111"/>
  <outline>
    <contour>
      <point x="596" y="721" type="line"/>
      <point x="528" y="721" type="line"/>
      <point x="528" y="800" type="line"/>
      <point x="371" y="800" type="line"/>
      <point x="371" y="721" type="line"/>
      <point x="258" y="721" type="line"/>
      <point x="258" y="609" type="line"/>
      <point x="371" y="609" type="line"/>
      <point x="371" y="485" type="line"/>
      <point x="341" y="519"/>
      <point x="297" y="543"/>
      <point x="235" y="543" type="curve" smooth="yes"/>
      <point x="90" y="543"/>
      <point x="38" y="436"/>
      <point x="38" y="283" type="curve" smooth="yes"/>
      <point x="38" y="247" type="line" smooth="yes"/>
      <point x="38" y="94"/>
      <point x="90" y="-13"/>
      <point x="235" y="-13" type="curve" smooth="yes"/>
      <point x="308" y="-13"/>
      <point x="356" y="19"/>
      <point x="385" y="64" type="curve"/>
      <point x="397" y="0" type="line"/>
      <point x="537" y="0" type="line"/>
      <point x="528" y="150" type="line"/>
      <point x="528" y="609" type="line"/>
      <point x="596" y="609" type="line"/>
    </contour>
    <contour>
      <point x="371" y="357" type="curve"/>
      <point x="371" y="173" type="line"/>
      <point x="358" y="153"/>
      <point x="328" y="122"/>
      <point x="280" y="122" type="curve" smooth="yes"/>
      <point x="219" y="122"/>
      <point x="195" y="168"/>
      <point x="195" y="247" type="curve" smooth="yes"/>
      <point x="195" y="283" type="line" smooth="yes"/>
      <point x="195" y="362"/>
      <point x="219" y="408"/>
      <point x="280" y="408" type="curve" smooth="yes"/>
      <point x="328" y="408"/>
      <point x="358" y="377"/>
    </contour>
  </outline>
</glyph>
<glyph name="Emacron" format="1">
  <advance width="573"/>
  <unicode hex="0112"/>
  <outline>
    <contour>
      <point x="56" y="780" type="line"/>
      <point x="56" y="0" type="line"/>
      <point x="533" y="0" type="line"/>
      <point x="533" y="140" type="line"/>
      <point x="218" y="140" type="line"/>
      <point x="218" y="328" type="line"/>
      <point x="483" y="328" type="line"/>
      <point x="483" y="468" type="line"/>
      <point x="218" y="468" type="line"/>
      <point x="218" y="640" type="line"/>
      <point x="533" y="640" type="line"/>
      <point x="533" y="780" type="line"/>
    </contour>
    <contour>
      <point x="147" y="847" type="line"/>
      <point x="445" y="847" type="line"/>
      <point x="445" y="943" type="line"/>
      <point x="147" y="943" type="line"/>
    </contour>
  </outline>
</glyph>
<glyph name="Ebreve" format="1">
  <advance width="573"/>
  <unicode hex="0114"/>
  <outline>
    <contour>
      <point x="296" y="825" type="curve" smooth="yes"/>
      <point x="443" y="825"/>
      <point x="479" y="882"/>
      <point x="479" y="950" type="curve"/>
      <point x="370" y="950" type="line"/>
      <point x="370" y="924"/>
      <point x="349" y="910"/>
      <point x="296" y="910" type="curve" smooth="yes"/>
      <point x="243" y="910"/>
      <point x="222" y="924"/>
      <point x="222" y="950" type="curve"/>
      <point x="113" y="950" type="line"/>
      <point x="113" y="882"/>
      <point x="149" y="825"/>
    </contour>
    <contour>
      <point x="56" y="780" type="line"/>
      <point x="56" y="0" type="line"/>
      <point x="533" y="0" type="line"/>
      <point x="533" y="140" type="line"/>
      <point x="218" y="140" type="line"/>
      <point x="218" y="328" type="line"/>
      <point x="483" y="328" type="line"/>
      <point x="483" y="468" type="line"/>
      <point x="218" y="468" type="line"/>
      <point x="218" y="640" type="line"/>
      <point x="533" y="640" type="line"/>
      <point x="533" y="780" type="line"/>
    </contour>
  </outline>
</glyph>
<glyph name="ebreve" format="1">
  <advance width="556"/>
  <unicode hex="0115"/>
  <outline>
    <contour>
      <point x="526" y="208" type="line"/>
      <point x="526" y="279" type="line" smooth="yes"/>
      <point x="526" y="432"/>
      <point x="449" y="543"/>
      <point x="281" y="543" type="curve" smooth="yes"/>
      <point x="114" y="543"/>
      <point x="30" y="432"/>
      <point x="30" y="279" type="curve" smooth="yes"/>
      <point x="30" y="251" type="line" smooth="yes"/>
      <point x="30" y="98"/>
      <point x="111" y="-13"/>
      <point x="287" y="-13" type="curve" smooth="yes"/>
      <point x="440" y="-13"/>
      <point x="526" y="65"/>
      <point x="526" y="166" type="curve" smooth="yes"/>
      <point x="526" y="170" type="line"/>
      <point x="377" y="170" type="line"/>
      <point x="377" y="138"/>
      <point x="343" y="107"/>
      <point x="288" y="107" type="curve" smooth="yes"/>
      <point x="229" y="107"/>
      <point x="194" y="134"/>
      <point x="188" y="208" type="curve"/>
    </contour>
    <contour>
      <point x="281" y="582" type="curve" smooth="yes"/>
      <point x="421" y="582"/>
      <point x="470" y="666"/>
      <point x="468" y="780" type="curve"/>
      <point x="355" y="780" type="line"/>
      <point x="355" y="721"/>
      <point x="324" y="702"/>
      <point x="281" y="702" type="curve" smooth="yes"/>
      <point x="238" y="702"/>
      <point x="207" y="721"/>
      <point x="207" y="780" type="curve"/>
      <point x="94" y="780" type="line"/>
      <point x="92" y="666"/>
      <point x="141" y="582"/>
    </contour>
    <contour>
      <point x="278" y="423" type="curve" smooth="yes"/>
      <point x="334" y="423"/>
      <point x="362" y="391"/>
      <point x="367" y="322" type="curve"/>
      <point x="189" y="322" type="line"/>
      <point x="194" y="391"/>
      <point x="222" y="423"/>
    </contour>
  </outline>
</glyph>
<glyph name="Edotaccent" format="1">
  <advance width="573"/>
  <unicode hex="0116"/>
  <outline>
    <contour>
      <point x="56" y="780" type="line"/>
      <point x="56" y="0" type="line"/>
      <point x="533" y="0" type="line"/>
      <point x="533" y="140" type="line"/>
      <point x="218" y="140" type="line"/>
      <point x="218" y="328" type="line"/>
      <point x="483" y="328" type="line"/>
      <point x="483" y="468" type="line"/>
      <point x="218" y="468" type="line"/>
      <point x="218" y="640" type="line"/>
      <point x="533" y="640" type="line"/>
      <point x="533" y="780" type="line"/>
    </contour>
    <contour>
      <point x="363" y="945" type="line"/>
      <point x="229" y="945" type="line"/>
      <point x="229" y="845" type="line"/>
      <point x="363" y="845" type="line"/>
    </contour>
  </outline>
</glyph>
<glyph name="Eogonek" format="1">
  <advance width="573"/>
  <unicode hex="0118"/>
  <outline>
    <contour>
      <point x="56" y="780" type="line"/>
      <point x="56" y="0" type="line"/>
      <point x="397" y="0" type="line"/>
      <point x="370" y="-28"/>
      <point x="353" y="-64"/>
      <point x="353" y="-107" type="curve" smooth="yes"/>
      <point x="353" y="-180"/>
      <point x="407" y="-215"/>
      <point x="488" y="-215" type="curve" smooth="yes"/>
      <point x="529" y="-215"/>
      <point x="570" y="-203"/>
      <point x="591" y="-190" type="curve"/>
      <point x="555" y="-94" type="line"/>
      <point x="547" y="-99"/>
      <point x="532" y="-105"/>
      <point x="513" y="-105" type="curve" smooth="yes"/>
      <point x="487" y="-105"/>
      <point x="470" y="-90"/>
      <point x="470" y="-69" type="curve" smooth="yes"/>
      <point x="470" y="-39"/>
      <point x="493" y="-17"/>
      <point x="532" y="0" type="curve"/>
      <point x="533" y="0" type="line"/>
      <point x="533" y="140" type="line"/>
      <point x="218" y="140" type="line"/>
      <point x="218" y="328" type="line"/>
      <point x="483" y="328" type="line"/>
      <point x="483" y="468" type="line"/>
      <point x="218" y="468" type="line"/>
      <point x="218" y="640" type="line"/>
      <point x="533" y="640" type="line"/>
      <point x="533" y="780" type="line"/>
    </contour>
  </outline>
</glyph>
<glyph name="eogonek" format="1">
  <advance width="556"/>
  <unicode hex="0119"/>
  <outline>
    <contour>
      <point x="526" y="208" type="line"/>
      <point x="526" y="279" type="line" smooth="yes"/>
      <point x="526" y="432"/>
      <point x="449" y="543"/>
      <point x="281" y="543" type="curve" smooth="yes"/>
      <point x="114" y="543"/>
      <point x="30" y="432"/>
      <point x="30" y="279" type="curve" smooth="yes"/>
      <point x="30" y="251" type="line" smooth="yes"/>
      <point x="30" y="111"/>
      <point x="97" y="6"/>
      <point x="243" y="-10" type="curve"/>
      <point x="221" y="-37"/>
      <point x="208" y="-69"/>
      <point x="208" y="-107" type="curve" smooth="yes"/>
      <point x="208" y="-180"/>
      <point x="262" y="-215"/>
      <point x="343" y="-215" type="curve" smooth="yes"/>
      <point x="384" y="-215"/>
      <point x="425" y="-203"/>
      <point x="446" y="-190" type="curve"/>
      <point x="410" y="-94" type="line"/>
      <point x="402" y="-99"/>
      <point x="387" y="-105"/>
      <point x="368" y="-105" type="curve" smooth="yes"/>
      <point x="342" y="-105"/>
      <point x="325" y="-90"/>
      <point x="325" y="-69" type="curve" smooth="yes"/>
      <point x="325" y="-39"/>
      <point x="347" y="-12"/>
      <point x="387" y="0" type="curve" smooth="yes"/>
      <point x="474" y="25"/>
      <point x="526" y="89"/>
      <point x="526" y="166" type="curve" smooth="yes"/>
      <point x="526" y="170" type="line"/>
      <point x="377" y="170" type="line"/>
      <point x="377" y="138"/>
      <point x="343" y="107"/>
      <point x="288" y="107" type="curve" smooth="yes"/>
      <point x="229" y="107"/>
      <point x="194" y="134"/>
      <point x="188" y="208" type="curve"/>
    </contour>
    <contour>
      <point x="278" y="423" type="curve" smooth="yes"/>
      <point x="334" y="423"/>
      <point x="362" y="391"/>
      <point x="367" y="322" type="curve"/>
      <point x="189" y="322" type="line"/>
      <point x="194" y="391"/>
      <point x="222" y="423"/>
    </contour>
  </outline>
</glyph>
<glyph name="Ecaron" format="1">
  <advance width="573"/>
  <unicode hex="011A"/>
  <outline>
    <contour>
      <point x="56" y="780" type="line"/>
      <point x="56" y="0" type="line"/>
      <point x="533" y="0" type="line"/>
      <point x="533" y="140" type="line"/>
      <point x="218" y="140" type="line"/>
      <point x="218" y="328" type="line"/>
      <point x="483" y="328" type="line"/>
      <point x="483" y="468" type="line"/>
      <point x="218" y="468" type="line"/>
      <point x="218" y="640" type="line"/>
      <point x="533" y="640" type="line"/>
      <point x="533" y="780" type="line"/>
    </contour>
    <contour>
      <point x="92" y="950" type="line"/>
      <point x="216" y="840" type="line"/>
      <point x="376" y="840" type="line"/>
      <point x="500" y="950" type="line"/>
      <point x="358" y="950" type="line"/>
      <point x="296" y="905" type="line"/>
      <point x="234" y="950" type="line"/>
    </contour>
  </outline>
</glyph>
